<svg viewBox="0 0 24 24" fill="none" xmlns="http://www.w3.org/2000/svg">
<path fill-rule="evenodd" clip-rule="evenodd" d="M2 22H22V2H2V22Z" fill="#FFF101"/>
<path fill-rule="evenodd" clip-rule="evenodd" d="M4.63525 17.3442L6.15304 16.3314L7.67017 17.3442L4.63525 19.3694V17.3442ZM19.2006 6.81298L17.6835 7.82523L16.1664 6.81298L19.2006 4.78784V6.81298ZM19.2006 14.5087L11.9183 19.3694L4.63525 14.5087L13.2834 8.7369L14.8006 9.74915L7.82149 14.4074L12.0696 17.243L14.042 15.9265L12.5249 14.9142L16.1664 12.4835L19.2006 14.5087ZM4.63525 9.64858L11.9183 4.78784L19.2006 9.64858L10.5525 15.4203L9.03533 14.4074L16.0144 9.74915L11.7663 6.91421L9.7939 8.23078L11.311 9.24303L7.67017 11.6737L4.63525 9.64858Z" fill="#005795"/>
</svg>
