<svg viewBox="0 0 16 16" fill="none" xmlns="http://www.w3.org/2000/svg">
<path fill-rule="evenodd" clip-rule="evenodd" d="M4.66669 0.666687L7.44999 5.33335L12 5.06882L9.62422 0.666687H4.66669Z" fill="#00ABE8"/>
<path fill-rule="evenodd" clip-rule="evenodd" d="M7.14349 4.94343L4.66669 8.66669L6.96265 8.65215L8.09908 6.92715L10.718 6.92832L12 4.7318L11.9642 4.66785L11.963 4.66669L7.13771 4.93471L7.14233 4.94227L7.14349 4.94343Z" fill="#0065B0"/>
<path fill-rule="evenodd" clip-rule="evenodd" d="M10.0725 11.1867L10.1464 11.3243L10.1412 11.3334H15.3282L15.3333 11.3243L15.3305 11.32L13.1944 7.35398L8 7.33337L10.0725 11.1867Z" fill="#00ABE8"/>
<path fill-rule="evenodd" clip-rule="evenodd" d="M2.98858 10.6194L2.98971 10.621L7.99721 10.6667V10.6661L8.00002 10.6613L6.84076 8.50766L4.57236 8.47286L3.24363 6.69713L0.666687 6.66669L2.98858 10.6194Z" fill="#00ABE8"/>
<path fill-rule="evenodd" clip-rule="evenodd" d="M10.4551 11.3334L8.32273 14.6734L7.08739 12.956L7.97308 11.4844L3.18153 11.4389L3.20254 11.4759L0.666687 15.3334H5.53043L6.71297 13.526L8.06575 15.3334H12.9176L15.3334 11.3334H10.4551Z" fill="#0065B0"/>
</svg>
