<svg viewBox="0 0 21 20" fill="none" xmlns="http://www.w3.org/2000/svg">
<path fill-rule="evenodd" clip-rule="evenodd" d="M20.5 20H3.85935C3.85935 20 0.5 20 0.5 16.6408V0H17.1408C17.1408 0 20.5 0 20.5 3.3594V20Z" fill="#D11F3E"/>
<path fill-rule="evenodd" clip-rule="evenodd" d="M8.58569 17.1325H9.56711V12.1038H8.58569V17.1325Z" fill="#FFFFFE"/>
<path fill-rule="evenodd" clip-rule="evenodd" d="M10.4597 17.1324H12.0669V10.2296H10.4597V17.1324Z" fill="#FFFFFE"/>
<path fill-rule="evenodd" clip-rule="evenodd" d="M7.70538 5.42205C7.70538 5.42205 9.32617 3.83812 12.057 4.35985C12.057 4.35985 13.2592 4.54615 14.1799 5.36394C14.1799 5.36394 14.3167 5.49292 14.4224 5.38788C14.4224 5.38788 14.5558 5.28268 14.4073 5.12583C14.4073 5.12583 13.6153 4.02741 12.0526 3.54205C12.0526 3.54205 9.9046 2.77339 7.69798 3.81245C7.69798 3.81245 6.33971 4.37449 5.5868 5.90741C5.5868 5.90741 4.51326 6.25528 3.70838 6.70615C3.70838 6.70615 3.46995 6.80127 3.5605 6.9852C3.5605 6.9852 3.63735 7.1178 3.84554 7.01938C3.84554 7.01938 4.59294 6.7619 5.31357 6.60079C5.31357 6.60079 4.7342 8.10347 5.33893 9.96961C5.60838 10.7997 6.09924 11.6452 6.8509 12.3243C6.8509 12.3243 6.9731 12.4526 7.1068 12.3649C7.1068 12.3649 7.22239 12.281 7.14066 12.1441C7.14066 12.1441 6.54208 11.2425 6.30932 9.95938C6.11546 8.91512 6.2068 7.47134 6.93263 6.3282C6.93263 6.3282 9.69578 5.94205 12.0512 6.82883C12.0512 6.82883 16.0528 8.13434 15.0448 10.5554C15.0448 10.5554 14.7529 11.3973 13.6484 12.1589C13.6484 12.1589 13.4633 12.2661 13.5643 12.421C13.5643 12.421 13.6476 12.5408 13.8362 12.4633C13.8362 12.4633 15.5281 11.9137 16.2575 10.5551C16.2575 10.5551 17.7391 8.28867 14.2466 6.44048C14.2466 6.44048 13.287 5.92678 12.0526 5.65213C12.0526 5.65213 9.82838 5.10237 7.70538 5.42205Z" fill="#FFFFFE"/>
</svg>
