<svg viewBox="0 0 14 14" fill="none" xmlns="http://www.w3.org/2000/svg">
<g clip-path="url(#clip0_514_419)">
<path d="M13.6666 0.333313H0.333313V13.6666H13.6666V0.333313Z" fill="white"/>
<path d="M13.6666 0.333313H0.333313V13.6666H13.6666V0.333313Z" fill="#FF7A00"/>
<path d="M2.50362 5.17706H2.635C2.80121 5.17706 2.92861 5.29253 2.92762 5.46329V5.62316C2.92762 5.79292 2.80121 5.90938 2.635 5.90938H2.50362C2.34238 5.90938 2.211 5.79292 2.211 5.62316V5.46329C2.211 5.29352 2.34238 5.17706 2.50362 5.17706Z" fill="white"/>
<path d="M4.04134 6.6486C4.16874 6.41172 4.42751 6.19855 4.83759 6.19855C5.46363 6.19855 5.71246 6.59037 5.71147 7.15292V8.76068H5.08144V7.31282C5.08144 6.92988 4.94506 6.7167 4.60767 6.7167C4.27126 6.7167 4.04631 6.9585 4.04631 7.37501V8.75969H3.41132V6.26071H4.02145L4.04134 6.6486Z" fill="white"/>
<path d="M1.84375 6.77495H2.26377V8.7607H2.89877V6.26172H1.84375V6.77495Z" fill="white"/>
<path fill-rule="evenodd" clip-rule="evenodd" d="M7.70013 7.47665C7.70013 6.7167 8.19381 6.19855 8.98505 6.19855C9.82906 6.19855 10.2491 6.79467 10.2063 7.66024H8.35006C8.38388 8.10534 8.60386 8.33334 8.98505 8.33334C9.30753 8.33334 9.48768 8.18331 9.56133 7.97014H10.1914C10.0689 8.49324 9.635 8.82287 8.98505 8.82287C8.18383 8.82287 7.70013 8.30964 7.70013 7.53982V7.47665ZM8.97909 6.68709C8.62774 6.68709 8.42271 6.86672 8.36399 7.22993H9.55537C9.52154 6.8904 9.33539 6.68709 8.97909 6.68709Z" fill="white"/>
<path d="M6.79137 7.99483V6.77496H7.45523V6.26173H6.79137V5.41394H6.15637V8.058C6.15637 8.56136 6.43504 8.8229 7.02129 8.8229C7.1676 8.8229 7.34874 8.79824 7.46619 8.75972V8.27019C7.39752 8.29488 7.28106 8.3235 7.16361 8.3235C6.88392 8.32449 6.79137 8.22282 6.79137 7.99483Z" fill="white"/>
<path d="M11.2354 6.74634C11.3578 6.4315 11.6166 6.21832 11.9829 6.21832C12.0276 6.21832 12.0904 6.22324 12.1302 6.23311V6.78483C12.0854 6.77989 12.0127 6.77496 11.949 6.77496C11.4653 6.77496 11.2454 7.04145 11.2454 7.52111V8.76072H10.6104V6.26173H11.2205L11.2354 6.74634Z" fill="white"/>
</g>
<defs>
<clipPath id="clip0_514_419">
<rect x="0.333313" y="0.333313" width="13.3333" height="13.3333" rx="2" fill="white"/>
</clipPath>
</defs>
</svg>
