<svg viewBox="0 0 15 14" fill="none" xmlns="http://www.w3.org/2000/svg">
<mask id="mask0_514_377" style="mask-type:alpha" maskUnits="userSpaceOnUse" x="0" y="0" width="15" height="14">
<rect x="0.833313" y="0.333252" width="13.3333" height="13.3333" rx="2" fill="#C4C4C4"/>
</mask>
<g mask="url(#mask0_514_377)">
<path d="M14.1666 0.333252H0.833313V6.91624H14.1666V0.333252Z" fill="url(#paint0_linear_514_377)"/>
<path d="M14.1666 6.92358H0.833313V13.6126H14.1666V6.92358Z" fill="url(#paint1_linear_514_377)"/>
<path d="M1.45367 7.85792C1.53759 7.84112 1.62305 7.83327 1.70863 7.83448C1.81313 7.82622 1.91665 7.85973 1.99649 7.92765C2.02715 7.95869 2.0511 7.99571 2.06684 8.03641C2.08258 8.0771 2.08978 8.1206 2.08799 8.16419C2.09263 8.25179 2.06393 8.3379 2.00765 8.4052C1.9672 8.44726 1.91815 8.4801 1.86385 8.50148C1.80955 8.52285 1.75127 8.53225 1.69301 8.52905C1.6572 8.53029 1.62139 8.52692 1.58645 8.519V8.97089H1.45367V7.85792ZM1.58645 8.39962C1.62288 8.40887 1.66046 8.41282 1.69803 8.41133C1.85981 8.41133 1.95577 8.32486 1.95577 8.172C1.95577 8.01914 1.85981 7.94885 1.71309 7.94885C1.67114 7.94844 1.62926 7.95237 1.58812 7.96057L1.58645 8.39962Z" fill="#E2C275"/>
<path d="M3.07323 8.44138H2.67491V8.84807H3.12121V8.97081H2.54102V7.84277H3.0989V7.96495H2.67602V8.32143H3.07435L3.07323 8.44138Z" fill="#E2C275"/>
<path d="M3.52228 7.8596C3.60616 7.8424 3.6916 7.83398 3.77723 7.83449C3.91893 7.83449 4.0121 7.86462 4.07625 7.92766C4.1103 7.9649 4.13487 8.0098 4.14789 8.05855C4.16091 8.1073 4.16199 8.15847 4.15105 8.20773C4.1401 8.25698 4.11745 8.30288 4.08501 8.34153C4.05257 8.38017 4.01129 8.41044 3.96468 8.42975V8.43477C4.04278 8.4649 4.0902 8.54635 4.11586 8.66239C4.13418 8.76739 4.16029 8.87088 4.19397 8.97201H4.05728C4.02607 8.8846 4.00346 8.79436 3.98978 8.70256C3.95966 8.54691 3.90275 8.48833 3.78225 8.48331H3.65728V8.97201H3.52451L3.52228 7.8596ZM3.65505 8.37173H3.79118C3.93288 8.37173 4.0227 8.28582 4.0227 8.15751C4.0227 8.01134 3.92674 7.9483 3.78616 7.9483C3.74206 7.94705 3.69799 7.95155 3.65505 7.96169V8.37173Z" fill="#E2C275"/>
<path d="M4.54823 8.79356C4.61792 8.84119 4.70037 8.86666 4.78478 8.86664C4.92034 8.86664 4.99956 8.79021 4.99956 8.67473C4.99956 8.57097 4.94377 8.50737 4.80598 8.45158C4.63861 8.38463 4.53429 8.28756 4.53429 8.12968C4.53429 7.95451 4.66706 7.82396 4.86902 7.82396C4.94803 7.82136 5.02623 7.84067 5.09496 7.87975L5.05814 7.99914C5.00052 7.96187 4.93317 7.94246 4.86455 7.94335C4.72397 7.94335 4.67097 8.03596 4.67097 8.11071C4.67097 8.21671 4.73345 8.2686 4.87515 8.32885C5.04921 8.4036 5.13624 8.49621 5.13624 8.65967C5.13624 8.83373 5.0202 8.98659 4.77752 8.98659C4.68494 8.98714 4.59408 8.96162 4.51532 8.91295L4.54823 8.79356Z" fill="#E2C275"/>
<path d="M5.9245 8.98932C5.6729 8.98932 5.49884 8.75835 5.49884 8.41693C5.49884 8.05821 5.68406 7.82446 5.93733 7.82446C6.19061 7.82446 6.36411 8.05989 6.36411 8.39462C6.36411 8.78179 6.16606 8.98932 5.92562 8.98932H5.9245ZM5.93008 8.87049C6.12367 8.87049 6.23357 8.65738 6.23357 8.40187C6.23357 8.17872 6.13538 7.94329 5.93176 7.94329C5.72813 7.94329 5.6266 8.16923 5.6266 8.41358C5.6266 8.65794 5.73817 8.87049 5.92841 8.87049H5.93008Z" fill="#E2C275"/>
<path d="M6.79541 8.97081V7.84277H6.94213L7.27017 8.41348C7.33915 8.5315 7.40028 8.65395 7.45315 8.78001H7.45762C7.4459 8.62883 7.44255 8.49159 7.44255 8.31753V7.84445H7.56752V8.97248H7.43363L7.10671 8.4001C7.03552 8.27857 6.9718 8.15281 6.91591 8.02353H6.91145C6.91926 8.16634 6.92038 8.30247 6.92038 8.48936V8.97136L6.79541 8.97081Z" fill="#E2C275"/>
<path d="M8.02942 8.94127V7.81323H8.17558L8.50417 8.38394C8.57305 8.50202 8.63418 8.62446 8.68716 8.75047H8.69162C8.67935 8.59984 8.67656 8.46261 8.67656 8.28855V7.81491H8.79929V8.94294H8.66484L8.33848 8.37056C8.26696 8.24921 8.20324 8.12343 8.14769 7.99399H8.14323C8.15048 8.13625 8.15215 8.27293 8.15215 8.45926V8.94127H8.02942Z" fill="#E2C275"/>
<path d="M9.47598 8.61544L9.36887 8.97081H9.23163L9.5803 7.84277H9.74097L10.0919 8.97081H9.94962L9.83804 8.61544H9.47598ZM9.81071 8.50386L9.70861 8.17973C9.68742 8.10609 9.6718 8.03915 9.65673 7.97387H9.65227C9.63832 8.03915 9.62159 8.10888 9.6015 8.17806L9.50108 8.50386H9.81071Z" fill="#E2C275"/>
<path d="M10.4478 7.84277H10.5845V8.84696H11.0235V8.96969H10.4478V7.84277Z" fill="#E2C275"/>
<path d="M11.4844 7.84277V8.97081H11.3499V7.84277H11.4844Z" fill="#E2C275"/>
<path d="M12.2582 7.96662H11.9452V7.84277H12.7067V7.96662H12.3926V8.97081H12.2582V7.96662Z" fill="#E2C275"/>
<path d="M13.5279 8.44155H13.1301V8.84825H13.5764V8.97098H12.9957V7.84295H13.5535V7.96512H13.1312V8.32161H13.529L13.5279 8.44155ZM13.5039 7.58521L13.307 7.7827H13.1987L13.3421 7.58521H13.5039Z" fill="#E2C275"/>
<path fill-rule="evenodd" clip-rule="evenodd" d="M6.07013 1.68385H9.052C9.24965 1.68487 9.43891 1.76384 9.57868 1.90361C9.71844 2.04337 9.79741 2.23264 9.79844 2.43029V5.41216C9.79625 5.60904 9.71676 5.79716 9.57712 5.93597C9.43748 6.07477 9.24888 6.15313 9.052 6.15414H6.07013C5.97233 6.15458 5.8754 6.13572 5.7849 6.09865C5.6944 6.06158 5.6121 6.00703 5.54271 5.93811C5.47332 5.86918 5.41821 5.78725 5.38053 5.697C5.34285 5.60675 5.32334 5.50996 5.32313 5.41216V2.43029C5.32276 2.33211 5.34183 2.23484 5.37925 2.14407C5.41666 2.05331 5.47168 1.97085 5.54113 1.90145C5.61057 1.83206 5.69307 1.7771 5.78387 1.73975C5.87466 1.7024 5.97195 1.6834 6.07013 1.68385Z" fill="#342509"/>
<path fill-rule="evenodd" clip-rule="evenodd" d="M6.07071 1.69118H8.99791C9.19192 1.69249 9.37761 1.77015 9.5148 1.90734C9.65199 2.04453 9.72965 2.23022 9.73096 2.42423V5.35143C9.72762 5.54408 9.64907 5.72778 9.5121 5.8633C9.37512 5.99881 9.19059 6.07539 8.99791 6.07667H6.07071C5.97494 6.07726 5.87999 6.05896 5.7913 6.02281C5.7026 5.98667 5.6219 5.9334 5.55382 5.86604C5.48573 5.79868 5.4316 5.71855 5.39451 5.63025C5.35741 5.54195 5.3381 5.4472 5.33766 5.35143V2.42423C5.33707 2.3278 5.35562 2.23221 5.39225 2.143C5.42888 2.0538 5.48286 1.97275 5.55104 1.90456C5.61923 1.83637 5.70028 1.7824 5.78949 1.74577C5.87869 1.70914 5.97428 1.69058 6.07071 1.69118Z" fill="#ECBF6B"/>
<path fill-rule="evenodd" clip-rule="evenodd" d="M8.69215 4.18149H8.92981L9.22102 3.88525H8.9008L8.69215 4.18149ZM8.60456 4.25457H8.26481V4.89223C8.26481 5.05959 8.30833 5.1879 8.39089 5.27047C8.42954 5.30728 8.47532 5.33577 8.52541 5.35419C8.57549 5.37261 8.62882 5.38058 8.68211 5.37758C8.75672 5.38211 8.83113 5.3659 8.8971 5.33075C8.96308 5.2956 9.01803 5.24288 9.05589 5.17842H9.06091V5.35304H9.3616V4.25457H9.02241V4.89502C9.02279 4.91806 9.01959 4.94102 9.01293 4.96308C8.99803 5.00592 8.96964 5.04278 8.93202 5.06812C8.89441 5.09347 8.84959 5.10594 8.80428 5.10366C8.67318 5.10366 8.60512 5.01161 8.60512 4.83198V4.25457H8.60456ZM7.73092 4.61831C7.50777 4.61831 7.33762 4.65234 7.22102 4.72542C7.16366 4.75653 7.11604 4.80292 7.08345 4.85944C7.05085 4.91597 7.03455 4.98042 7.03636 5.04564C7.03631 5.08826 7.04488 5.13044 7.06156 5.16966C7.07824 5.20887 7.10269 5.2443 7.13343 5.27382C7.20934 5.34326 7.30958 5.37995 7.41237 5.37591C7.4761 5.37987 7.53989 5.36921 7.59887 5.34475C7.65785 5.32029 7.71046 5.28267 7.75268 5.23477H7.76216V5.35136H8.0729V4.7059C8.07931 4.5827 8.03952 4.46156 7.96133 4.36615C7.87374 4.27354 7.74264 4.225 7.56802 4.225C7.41216 4.2182 7.25752 4.25532 7.12172 4.33212L7.18476 4.54578C7.28288 4.48682 7.39554 4.45649 7.51 4.4582C7.66063 4.4582 7.73315 4.50673 7.73315 4.60882V4.61831H7.73092ZM6.90247 4.25457H6.69382V3.88804H6.36412V4.25736H6.20847V4.50952H6.36412V4.94802C6.36412 5.09864 6.39313 5.21022 6.45617 5.27326C6.49102 5.30812 6.53284 5.33523 6.57888 5.35282C6.62493 5.37041 6.67417 5.37809 6.72339 5.37535C6.78604 5.37662 6.8484 5.36661 6.90749 5.34578L6.90247 5.0886C6.89299 5.09864 6.87346 5.10311 6.83943 5.10311C6.81686 5.10509 6.79417 5.10096 6.77375 5.09114C6.75333 5.08132 6.73594 5.06619 6.72339 5.04732C6.69964 5.00086 6.6894 4.94868 6.69382 4.89669V4.50617H6.90247V4.25401V4.25457ZM7.35435 5.01663C7.35435 4.88553 7.48546 4.82696 7.74487 4.83198V4.94802L7.73985 5.01106C7.72523 5.05376 7.69598 5.08992 7.65728 5.11315C7.61811 5.14628 7.56797 5.16359 7.5167 5.16168C7.40958 5.16168 7.35659 5.11315 7.35659 5.01608L7.35435 5.01663ZM5.70135 3.88804V5.35415H6.04612V3.88804H5.70135Z" fill="#342509"/>
</g>
<defs>
<linearGradient id="paint0_linear_514_377" x1="0.833313" y1="3.62474" x2="14.1666" y2="3.62474" gradientUnits="userSpaceOnUse">
<stop stop-color="#D4AB5E"/>
<stop offset="1" stop-color="#977A42"/>
</linearGradient>
<linearGradient id="paint1_linear_514_377" x1="0.833313" y1="10.2681" x2="14.1666" y2="10.2681" gradientUnits="userSpaceOnUse">
<stop stop-color="#003569"/>
<stop offset="1" stop-color="#00001C"/>
</linearGradient>
</defs>
</svg>
