<svg viewBox="0 0 21 20" fill="none" xmlns="http://www.w3.org/2000/svg">
<path fill-rule="evenodd" clip-rule="evenodd" d="M3.83227 0H17.1391C18.066 0 18.8383 0.330909 19.4783 0.970909C20.1403 1.61091 20.4714 2.40534 20.4714 3.33216V16.639C20.4714 17.5439 20.1403 18.3382 19.4783 18.9782C18.8383 19.6182 18.066 19.9492 17.1391 19.9492H3.83227C2.90545 19.9492 2.11102 19.6182 1.47102 18.9782C0.831023 18.3382 0.5 17.5439 0.5 16.639V3.33216C0.5 2.40534 0.831023 1.61091 1.47102 0.970909C2.11102 0.330909 2.90545 0 3.83227 0" fill="#292D78"/>
<path fill-rule="evenodd" clip-rule="evenodd" d="M15.7488 11.3207H16.8301L18.1542 9.97455H16.6977L15.7488 11.3207ZM15.3516 11.6517H13.8068V14.5425C13.8068 15.3149 14.0054 15.8888 14.3807 16.2639C14.7117 16.5949 15.153 16.7494 15.7046 16.7494C16.477 16.7494 17.0508 16.4405 17.4038 15.8445H17.426V16.639H18.7942V11.6517H17.2494V14.5647C17.2494 14.697 17.2274 14.8074 17.2053 14.8735C17.0287 15.2928 16.7197 15.5135 16.2563 15.5135C15.6605 15.5135 15.3516 15.0943 15.3516 14.2777V11.6517ZM11.3794 13.3068C10.3643 13.3068 9.59191 13.4613 9.06236 13.7923C8.51066 14.1233 8.22373 14.6088 8.22373 15.2488C8.22373 15.6459 8.37816 15.9991 8.66509 16.2859C8.99611 16.5949 9.41532 16.7494 9.92293 16.7494C10.607 16.7494 11.1146 16.5286 11.4677 16.1094H11.5118V16.639H12.9242V13.704C12.9242 13.0419 12.7476 12.5344 12.4166 12.1592C12.0194 11.74 11.4235 11.5193 10.6291 11.5193C9.81259 11.5193 9.1285 11.6738 8.59895 12.0048L8.88577 12.9758C9.32714 12.711 9.81259 12.5785 10.3643 12.5785C11.0484 12.5785 11.3794 12.7992 11.3794 13.2626V13.3068ZM7.60589 11.6517H6.65691V9.97455H5.15634V11.6517H4.45009V12.7992H5.15634V14.8074C5.15634 15.4916 5.28873 15.9991 5.57554 16.2859C5.86248 16.5949 6.28179 16.7494 6.78929 16.7494C7.12032 16.7494 7.38509 16.7052 7.62793 16.6169L7.60589 15.4474C7.56168 15.4916 7.47339 15.5135 7.31895 15.5135C7.07623 15.5135 6.89964 15.4253 6.78929 15.2488C6.701 15.1164 6.65691 14.8957 6.65691 14.5647V12.7992H7.60589V11.6517ZM9.65816 15.1164C9.65816 14.5206 10.254 14.2557 11.4235 14.2777V14.8074L11.4015 15.0943C11.3353 15.2928 11.2029 15.4474 11.0263 15.5577C10.8497 15.7122 10.6291 15.7784 10.3863 15.7784C9.90089 15.7784 9.65816 15.5577 9.65816 15.1164ZM2.15509 16.639H3.72191V9.97455H2.15509V16.639Z" fill="#FFF101"/>
</svg>
