<svg viewBox="0 0 19 18" fill="none" xmlns="http://www.w3.org/2000/svg">
<path fill-rule="evenodd" clip-rule="evenodd" d="M13.6848 8.3064C13.6427 7.68378 13.4755 7.06061 13.1404 6.52097L10.2945 1.57903C10.0851 1.20534 9.91782 0.790446 9.83418 0.375L9.70845 0.582723C8.9967 1.78675 8.9967 3.32324 9.70845 4.52782L12.0104 8.47291C12.7222 9.67693 12.7222 11.2134 12.0104 12.4175L11.8847 12.6252C11.8011 12.2097 11.6338 11.7948 11.4244 11.4211L9.3318 7.80797L7.99249 5.4829C7.78312 5.10922 7.61585 4.69377 7.53166 4.27833L7.40592 4.48605C6.69473 5.69063 6.69473 7.18535 7.40592 8.43114L9.70845 12.3762C10.4196 13.5803 10.4196 15.1168 9.70845 16.3213L9.58272 16.5285C9.49908 16.1136 9.3318 15.6982 9.12243 15.3245L6.23444 10.3825C5.85779 9.71815 5.68997 8.97078 5.68997 8.22342C2.6347 9.01255 0.5 10.715 0.5 12.6664C0.5 15.4075 4.60212 17.6083 9.66636 17.6083C14.7311 17.6083 18.8327 15.4075 18.8327 12.6664C18.8748 10.798 16.7822 9.09553 13.6848 8.3064" fill="#EA1D25"/>
</svg>
