<?xml version="1.0" encoding="UTF-8"?>
<!DOCTYPE svg PUBLIC "-//W3C//DTD SVG 1.1//EN" "http://www.w3.org/Graphics/SVG/1.1/DTD/svg11.dtd">
<!-- Creator: CorelDRAW Home & Student X8 -->
<svg xmlns="http://www.w3.org/2000/svg" xml:space="preserve" width="130.066mm" height="111.746mm" version="1.1" style="shape-rendering:geometricPrecision; text-rendering:geometricPrecision; image-rendering:optimizeQuality; fill-rule:evenodd; clip-rule:evenodd"
viewBox="0 0 8032 6901"
 xmlns:xlink="http://www.w3.org/1999/xlink">
 <defs>
  <style type="text/css">
   <![CDATA[
    .fil12 {fill:none;fill-rule:nonzero}
    .fil19 {fill:#002A4D;fill-rule:nonzero}
    .fil2 {fill:#003865;fill-rule:nonzero}
    .fil10 {fill:#0C1B3A;fill-rule:nonzero}
    .fil13 {fill:#0E4669;fill-rule:nonzero}
    .fil16 {fill:#156091;fill-rule:nonzero}
    .fil23 {fill:#38455E;fill-rule:nonzero}
    .fil0 {fill:#47CFFF;fill-rule:nonzero}
    .fil21 {fill:#58120E;fill-rule:nonzero}
    .fil15 {fill:#5A114A;fill-rule:nonzero}
    .fil28 {fill:#649CC9;fill-rule:nonzero}
    .fil24 {fill:#6F82B3;fill-rule:nonzero}
    .fil26 {fill:#8A2D85;fill-rule:nonzero}
    .fil14 {fill:#9A3F5E;fill-rule:nonzero}
    .fil25 {fill:#B1C7D5;fill-rule:nonzero}
    .fil27 {fill:#B2C8D5;fill-rule:nonzero}
    .fil8 {fill:#C92041;fill-rule:nonzero}
    .fil22 {fill:#C92603;fill-rule:nonzero}
    .fil4 {fill:#DFECEB;fill-rule:nonzero}
    .fil9 {fill:#EB5926;fill-rule:nonzero}
    .fil17 {fill:#F4D7C7;fill-rule:nonzero}
    .fil5 {fill:#F65D2F;fill-rule:nonzero}
    .fil3 {fill:#F6F6F6;fill-rule:nonzero}
    .fil11 {fill:#F8D8AD;fill-rule:nonzero}
    .fil6 {fill:#FAE2C2;fill-rule:nonzero}
    .fil18 {fill:#FD9723;fill-rule:nonzero}
    .fil7 {fill:#FF8B66;fill-rule:nonzero}
    .fil20 {fill:#FFAA3F;fill-rule:nonzero}
    .fil1 {fill:white;fill-rule:nonzero}
   ]]>
  </style>
   <clipPath id="id0" style="clip-rule:nonzero">
    <path d="M1798 6649l1430 0 0 252 -1430 0 0 -252zm0 0z"/>
   </clipPath>
 </defs>
 <g id="Camada_x0020_1">
  <metadata id="CorelCorpID_0Corel-Layer"/>
  <polygon class="fil0" points="5364,3 3341,1668 3261,2736 1666,2560 1078,3279 1410,3382 1489,5590 7280,5590 7059,1736 "/>
  <polygon class="fil1" points="5242,766 3535,2035 3420,3065 1856,2775 1157,3248 1711,3629 1785,5559 7129,5559 6909,2336 "/>
  <polygon class="fil0" points="7342,5658 1322,5658 1322,4964 7342,4964 "/>
  <polygon class="fil2" points="1078,3279 1957,2625 3254,2868 3298,2402 1502,2464 "/>
  <polygon class="fil2" points="3246,1585 3172,1793 5088,360 6998,2318 7185,1863 5393,0 "/>
  <polygon class="fil3" points="6995,2317 6925,2897 7493,3898 8032,3558 7479,2598 "/>
  <polygon class="fil2" points="6998,2318 6966,2874 7504,3846 8028,3555 7490,2583 "/>
  <path class="fil4" d="M7156 2516c-38,0 -68,36 -68,79 0,44 30,80 68,80 37,0 67,-36 67,-80 0,-43 -30,-79 -67,-79z"/>
  <polygon class="fil0" points="4282,1371 4162,1480 "/>
  <polygon class="fil0" points="4801,1022 4882,938 "/>
  <path class="fil2" d="M6965 2732c-72,-11 -134,-55 -173,-116 -46,-71 -53,-160 -35,-240 19,-84 72,-154 112,-228 36,-68 62,-150 36,-225 -12,-34 -35,-62 -57,-88 -8,-8 -20,4 -12,12 28,33 53,68 60,112 7,42 -2,85 -16,124 -28,80 -85,146 -118,224 -32,74 -41,158 -20,236 18,69 61,129 120,168 30,20 64,33 99,38 11,1 15,-15 4,-17z"/>
  <path class="fil2" d="M7422 2156c-89,35 -124,129 -137,218 -7,51 -8,104 -27,154 -16,40 -52,79 -98,83 -10,1 -11,18 0,17 41,-3 73,-28 96,-60 28,-41 35,-92 40,-140 11,-96 29,-215 131,-256 10,-4 5,-21 -5,-16z"/>
  <path class="fil0" d="M2829 2897l0 333 163 -333 -163 0zm0 0z"/>
  <polygon class="fil0" points="3705,1779 3837,1590 "/>
  <path class="fil5" d="M1110 4590c1,14 -2,28 -2,42 -2,24 2,50 15,70 3,5 8,9 13,10 7,0 12,-7 13,-14 1,-7 0,-14 2,-20 5,-16 23,-22 34,-35 7,-7 10,-17 13,-27 9,-27 14,-60 -5,-82 -8,-9 -20,-14 -32,-19 -16,-6 -33,-10 -50,-7 -17,3 -33,13 -39,29 20,10 35,31 38,53z"/>
  <path class="fil6" d="M3899 6450c-791,0 -1432,74 -1432,164 0,91 641,164 1432,164 792,0 1433,-73 1433,-164 0,-90 -641,-164 -1433,-164z"/>
  <g id="_800207728">
   <path class="fil6" d="M1043 6652c-576,0 -1043,53 -1043,119 0,66 467,119 1043,119 576,0 1044,-53 1044,-119 0,-66 -468,-119 -1044,-119z"/>
  </g>
  <path class="fil7" d="M1870 4769c8,0 15,0 23,0 22,0 47,-7 58,-27 17,-31 -14,-88 -48,-95 -14,-3 -28,1 -42,4 -44,11 -99,16 -141,33 -35,15 -58,43 -87,66 -29,23 -63,38 -97,52 -37,17 -68,43 -109,47 -46,4 -90,14 -135,24 -12,2 -24,4 -34,10 -23,14 -34,42 -32,69 4,52 30,108 86,113 58,5 112,-29 166,-44 51,-14 93,-57 135,-87 56,-41 111,-85 164,-130 15,-13 30,-26 49,-32 14,-4 29,-4 44,-3z"/>
  <path class="fil8" d="M3117 3743c-8,3 -17,5 -26,6 -11,1 -22,-1 -32,-6 -16,-10 -30,-35 -9,-46 32,-17 68,-23 103,-27 14,-2 44,-4 49,14 4,14 -18,25 -27,33 -15,11 -33,19 -51,24 -2,1 -4,2 -7,2z"/>
  <path class="fil9" d="M3123 3478c-23,-57 -40,-125 -75,-174 -27,-40 -59,-83 -106,-95 32,85 37,180 34,270 -4,100 -5,199 -22,298 32,-16 64,-32 96,-47 48,-24 97,-46 151,-47 1,-1 1,-1 2,-1 0,-1 0,-2 0,-2 -2,-4 -3,-8 -5,-11 -2,-5 -3,-9 -5,-14 -11,-27 -20,-54 -30,-81 -12,-31 -25,-62 -38,-93 -1,-1 -1,-2 -2,-3z"/>
  <path class="fil8" d="M2603 3745c-27,-23 -54,-58 -84,-77 -20,-12 -47,-16 -69,-26 -21,-10 -42,-22 -65,-26 -26,-5 -58,3 -83,10 -24,5 -49,20 -53,44 -2,16 6,31 16,45 8,12 17,23 27,33 65,69 163,108 252,136 19,7 42,10 62,9 13,-1 26,-5 35,-14 15,-16 14,-42 9,-64 -3,-9 -5,-20 -9,-29 -3,-7 -7,-14 -11,-19 -7,-9 -18,-15 -27,-22z"/>
  <path class="fil10" d="M3021 2649c-1,-4 -3,-9 -5,-13 -14,-36 -29,-44 -61,-62 -14,-8 -26,-21 -42,-25 -12,-3 -47,7 -52,21 -6,20 22,62 31,81 16,36 47,64 58,103 9,36 22,77 16,113 -6,39 -30,74 -64,93 -18,11 -41,18 -53,36 -10,15 -11,35 -11,54 1,34 3,69 20,99 17,30 52,52 85,44 -15,-31 -18,-68 -8,-101 9,-31 33,-53 47,-82 15,-29 25,-60 32,-92 13,-57 15,-115 16,-174 1,-31 0,-64 -9,-95z"/>
  <path class="fil6" d="M6076 6282c-677,0 -1225,61 -1225,135 0,74 548,135 1225,135 677,0 1226,-61 1226,-135 0,-74 -549,-135 -1226,-135z"/>
  <path class="fil11" d="M5792 6499c-623,0 -1129,50 -1129,111 0,62 506,112 1129,112 624,0 1129,-50 1129,-112 0,-61 -505,-111 -1129,-111z"/>
  <g>
  </g>
  <g style="clip-path:url(#id0)">
   <g>
    <path class="fil11" d="M2513 6666c-392,0 -709,53 -709,118 0,65 317,117 709,117 391,0 708,-52 708,-117 0,-65 -317,-118 -708,-118z"/>
   </g>
  </g>
  <path class="fil12" d="M1798 6649l1430 0 0 252 -1430 0 0 -252zm0 0z"/>
  <path class="fil13" d="M5912 6279c-8,-17 -16,-26 -43,-24 -29,3 -57,13 -82,28 -45,28 -76,72 -117,105 -19,16 -41,28 -63,39 -18,9 -47,4 -60,21 -8,12 -10,27 -11,41 0,5 0,10 3,14 3,3 8,3 12,4 62,4 122,-1 184,-6 2,-1 3,-1 4,-1 2,-1 2,-2 3,-4 24,-37 60,-70 100,-88 2,0 9,83 9,91 20,0 41,-1 62,-2 4,-32 9,-65 14,-97 1,-9 8,-12 10,-19 1,-9 -3,-21 -4,-29 -3,-19 -8,-38 -15,-55 -2,-7 -4,-13 -6,-18z"/>
  <path class="fil13" d="M6383 6358c0,-1 0,-2 1,-3 2,-8 -4,-17 -6,-26 -2,-9 -6,-17 -9,-26 -7,-17 -16,-36 -32,-46 -30,-21 -71,-11 -99,10 -27,21 -45,52 -65,80 -25,35 -55,73 -89,100 -15,12 -48,17 -57,35 -6,13 -4,27 -2,41 0,4 1,10 5,12 3,2 8,2 12,2 59,-8 115,-25 171,-42 2,0 3,-1 4,-2 1,-1 2,-2 2,-3 13,-34 34,-66 62,-90 16,-14 27,1 33,16 8,21 13,44 19,65 4,-1 53,-18 53,-17 -4,-20 -7,-40 -9,-60 -1,-9 -4,-19 -3,-28 0,-8 5,-12 9,-18z"/>
  <path class="fil13" d="M6373 5530c-44,-17 -92,-22 -137,-35 -51,-15 -100,-36 -151,-51 -92,-29 -184,-56 -278,-81 -48,-14 -95,-30 -144,-40 -23,-4 -145,-25 -124,32 28,78 110,96 179,131 58,28 117,50 178,73 42,16 84,32 128,42 63,14 128,19 193,17 40,-1 126,-10 153,-51 5,-9 8,-19 8,-30 0,-2 0,-3 -1,-4 -1,-1 -2,-2 -4,-3z"/>
  <path class="fil14" d="M5807 5270c-20,-23 -44,-43 -74,-48 -32,-6 -65,8 -90,29 -65,55 -30,148 -18,219 32,189 59,373 108,558 15,55 33,110 39,167 2,25 5,60 -5,84 -11,24 -31,48 -44,71 -6,10 -13,21 -22,29 -4,3 -10,6 -13,10 -4,5 -7,11 -4,16 3,6 10,8 17,8 26,1 51,-8 75,-16 15,-6 30,-11 43,-21 24,-15 47,-31 70,-48 24,-16 15,-34 11,-60 -11,-68 -5,-138 3,-206 9,-76 7,-153 8,-230 2,-114 3,-228 -15,-341 -13,-80 -37,-160 -89,-221z"/>
  <path class="fil15" d="M5807 5270c-15,-17 -33,-33 -53,-42 -6,0 -11,0 -16,1l-45 11c-8,-3 -16,-6 -22,-7 -10,5 -20,11 -28,18 -56,47 -38,122 -24,188 9,1 18,4 27,5 107,24 205,70 261,138 -3,-30 -6,-61 -11,-91 -13,-80 -37,-160 -89,-221z"/>
  <path class="fil14" d="M6133 5108c-116,78 -68,204 -61,316 9,133 38,260 59,393 15,97 34,193 51,290 9,50 17,100 23,150 6,57 -45,123 -82,162 24,11 51,2 75,-7 13,-5 26,-11 37,-20 16,-12 28,-29 40,-45 14,-18 34,-26 53,-39 2,-2 5,-4 6,-6 3,-5 2,-12 1,-18 -8,-34 -19,-67 -18,-103 4,-147 24,-293 29,-441 2,-91 2,-182 7,-273 4,-65 8,-129 -3,-193 -18,-113 -87,-253 -217,-166z"/>
  <path class="fil15" d="M6267 5101c-23,-14 -48,-22 -73,-19 -19,3 -39,11 -61,26 -2,1 -4,2 -5,4 -48,43 -56,124 -68,189 -1,2 -1,4 -1,6 4,39 11,79 13,117 5,69 15,136 27,204 79,-30 165,-43 250,-39 0,-41 2,-82 4,-122 4,-65 8,-129 -3,-193 -10,-64 -37,-138 -83,-173z"/>
  <path class="fil16" d="M6395 4125c-14,-18 -28,-34 -45,-48 -47,-40 -109,-57 -169,-59 -14,0 -30,-1 -46,-1 -39,-1 -82,1 -114,13 -38,15 -69,45 -91,80 -33,52 -65,116 -86,174 -47,132 -72,267 -101,404 -7,31 -14,62 -22,93 -32,131 -77,261 -123,388 -13,36 -30,72 -42,108 -8,25 -16,50 -25,74 1,0 2,0 3,0 34,1 68,8 101,18 245,72 493,132 744,181 10,-206 38,-408 66,-612 15,-102 27,-206 32,-309 5,-104 -13,-206 -13,-309 -11,-71 -26,-137 -69,-195z"/>
  <path class="fil13" d="M6395 4125c-14,-18 -28,-34 -45,-48 -47,-40 -109,-57 -169,-59 -14,0 -30,-1 -46,-1 -63,-1 -113,12 -155,37 -20,15 -36,35 -50,56 -16,24 -31,52 -45,80 13,-3 28,-4 42,-5 70,-4 140,-1 210,8 4,1 4,8 0,10 -15,39 -31,84 -33,127 78,-26 144,-55 228,-35 50,12 97,34 137,65 -1,-13 -3,-26 -5,-40 -11,-71 -26,-137 -69,-195z"/>
  <path class="fil16" d="M6011 3076c-60,25 -95,67 -131,120 -28,41 -56,82 -84,124 13,-1 24,12 25,25 2,13 -3,26 -8,39 -31,83 -69,159 -110,239 -22,42 -41,65 -85,84 -16,8 -30,19 -46,27 -23,12 -51,14 -76,20 -114,24 -228,48 -337,91 -2,1 -6,2 -8,5 -4,4 -4,10 -4,15 0,20 -1,41 1,61 3,26 -1,81 14,103 12,16 50,4 66,1 27,-6 49,-6 77,-7 44,-1 88,-5 132,-11 50,-8 96,-7 146,-19 49,-12 145,-31 174,-77 21,-35 45,-97 68,-74 20,22 -13,90 -16,115 -9,79 -13,162 -36,238 16,-7 33,-3 50,-1 57,5 114,-12 170,-3 -19,-78 -9,-166 -8,-246 1,-86 2,-173 2,-259 1,-42 1,-84 1,-126 1,-48 8,-63 33,-103 42,-67 78,-137 103,-211 12,-34 21,-70 15,-105 -12,-70 -66,-91 -128,-65z"/>
  <path class="fil13" d="M5200 3910c-4,-21 -31,-101 -59,-53 -9,14 -5,37 -6,53 0,38 8,75 23,110 2,4 4,9 8,12 19,16 43,-32 43,-46 0,-12 -1,-25 -3,-38 -1,-13 -4,-27 -6,-38z"/>
  <path class="fil13" d="M6056 3111c-52,19 -99,82 -132,124 -42,53 -76,113 -86,181 -10,74 18,140 20,212 2,58 6,118 6,177 0,14 -1,28 -1,42 -1,114 -6,228 -42,334 33,7 66,11 99,13 24,2 48,-6 72,-4 -11,-82 -8,-162 -7,-245 1,-86 2,-173 2,-259 1,-42 1,-84 1,-126 1,-48 8,-63 33,-103 42,-67 78,-137 103,-211 12,-34 21,-70 15,-105 -6,-37 -52,-41 -83,-30z"/>
  <path class="fil1" d="M6319 3072c-19,-4 -38,-3 -56,-3 -67,1 -139,0 -203,22 -51,18 -76,77 -97,121 -25,52 -68,97 -83,153 -8,30 -7,63 -6,94 8,158 15,311 30,469 7,70 14,140 23,210 144,-9 288,-6 431,-2 69,2 38,-40 40,-103 3,-71 19,-140 25,-210 9,-108 39,-217 72,-320 37,-117 37,-267 -54,-360 -36,-36 -80,-63 -122,-71z"/>
  <path class="fil16" d="M6571 3410c10,-56 27,-112 8,-168 -10,-31 -31,-57 -56,-78 -26,-21 -56,-33 -83,-51 -24,-17 -47,-39 -76,-50 -9,-4 -19,-7 -28,-9 -36,-10 -71,-19 -108,-19 -37,0 -74,6 -110,12 -22,4 -50,8 -67,24 -2,2 -4,4 -4,7 1,3 6,4 9,4 24,0 53,0 75,-11 22,-10 40,-17 64,-23 17,-3 34,-6 51,-3 32,8 37,28 26,55 -9,21 -27,32 -42,49 -22,26 -40,55 -53,87 -29,68 -39,143 -44,218 -10,148 4,298 17,446 8,96 17,192 25,288 144,7 288,8 431,2 -50,-94 -54,-206 -57,-313 -4,-156 -7,-313 22,-467z"/>
  <path class="fil14" d="M6275 2840c7,-53 6,-107 -3,-160 -12,-69 -78,-130 -150,-124 -44,4 -105,27 -131,64 -19,26 -28,57 -33,87 -10,64 -5,131 19,191 11,30 28,64 51,86 17,16 46,45 71,45 30,-1 7,26 2,41 -2,6 -12,59 -7,62 32,17 72,15 106,0 33,-14 61,-40 83,-68 -41,-64 -17,-148 -8,-224z"/>
  <path class="fil10" d="M6425 2585c-29,-5 -69,-8 -75,-37 -2,-6 -1,-13 -2,-19 -9,-42 -104,-79 -141,-77 -37,2 -71,18 -103,34 -40,21 -122,60 -129,110 -4,30 21,61 52,62 68,3 63,59 92,112 6,10 107,156 128,117 -21,38 -19,86 3,123 10,15 24,29 41,32 18,3 39,-8 41,-26 1,-10 -3,-20 -2,-30 4,-30 46,-32 74,-43 32,-12 55,-49 44,-83 -2,-7 -6,-15 -3,-23 2,-6 7,-10 13,-13 37,-26 72,-60 78,-105 10,-64 -47,-123 -111,-134z"/>
  <path class="fil15" d="M6150 3002c-17,10 -34,19 -52,27 4,-1 7,-2 10,-4 -4,29 -8,58 -11,87 2,-1 4,-1 7,-2 11,-4 22,-8 31,-16 6,-5 10,-11 15,-17 26,-37 45,-81 55,-126 -11,23 -33,38 -55,51z"/>
  <path class="fil13" d="M5824 3636c-12,-55 -26,-151 -12,-206 -32,125 -39,277 -28,404 20,4 62,10 73,-12 9,-21 -17,-92 -20,-116 -4,-24 -8,-47 -13,-70z"/>
  <path class="fil9" d="M5501 3473c22,109 185,537 218,651 2,7 239,13 297,14 -25,-112 -161,-655 -163,-671 -96,0 -330,8 -352,6z"/>
  <path class="fil13" d="M6553 3624c-1,-9 -5,-20 -13,-20 -5,1 -9,5 -11,8 -35,44 -41,97 -73,139 -18,24 -43,40 -68,56 -45,29 -71,68 -113,100 -24,18 -53,28 -75,49 -45,43 -35,113 -30,167 65,20 134,32 201,23 89,-11 140,-117 168,-193 4,-10 8,-21 12,-31 -1,-15 -1,-30 -2,-45 -1,-46 -2,-92 -2,-137 0,-39 10,-78 6,-116z"/>
  <path class="fil16" d="M6520 3168c-55,-2 -114,54 -139,99 -24,42 -36,89 -48,135 -17,69 -34,137 -51,206 -15,61 -29,128 -41,192 -4,19 -4,76 -22,86 -18,10 -55,-9 -72,-12 -69,-14 -137,-32 -206,-45 -35,-6 -70,-11 -105,-14 -17,-1 -35,-1 -52,-1 -24,0 -31,21 -35,41 -6,28 -19,53 -23,83 -1,7 -1,15 0,22 5,21 35,26 53,33 24,10 48,20 72,30 49,19 98,39 147,59 98,40 207,78 314,64 89,-11 140,-117 168,-193 61,-160 96,-323 139,-488 16,-63 32,-130 14,-193 -13,-48 -59,-102 -113,-104z"/>
  <path class="fil13" d="M6221 3891c-3,-9 -2,-18 -2,-27 5,-62 19,-123 33,-183 -18,28 -29,61 -39,93 -11,32 -21,64 -31,96 -20,-3 -40,-6 -61,-9 -32,-5 -16,4 -49,11 19,2 38,5 57,7 10,1 19,2 28,6 19,10 27,33 33,54 4,14 9,28 13,42 2,-26 0,-52 -6,-77 20,29 49,53 81,68 -16,-22 -31,-44 -47,-65 -4,-5 -8,-10 -10,-16z"/>
  <path class="fil17" d="M6325 3112c-32,59 -39,131 -17,195 -34,10 -67,25 -98,43 13,16 29,28 48,36 -62,66 -102,152 -112,241 30,-92 79,-179 144,-253 -14,-5 -28,-11 -42,-17 29,-2 58,-9 85,-20 -21,-73 -23,-151 -8,-225z"/>
  <path class="fil17" d="M5802 3981c24,-13 42,-36 51,-62 9,-26 9,-55 5,-82 -8,51 -27,101 -56,144z"/>
  <path class="fil13" d="M6409 3257c-23,33 -37,71 -49,110 -9,31 -16,63 -11,95 15,-52 32,-103 56,-151 24,-48 56,-92 99,-124 -39,10 -72,37 -95,70z"/>
  <path class="fil14" d="M5186 3893c-8,-17 -48,-9 -64,-10 -56,-3 -107,-31 -162,-12 -69,25 -136,57 -205,85 -9,4 -32,16 -28,30 1,3 4,5 8,6 3,0 6,0 10,-1 12,-1 25,-3 38,-5 -6,4 -12,7 -18,10 -3,2 -5,3 -7,6 -9,13 15,22 24,22 18,1 35,-2 53,-2 33,-1 66,0 99,1 41,2 82,3 123,0 8,-1 19,0 28,-3 8,-2 16,-8 24,-11 18,-6 36,-8 55,-7 6,1 12,1 17,-2 12,-8 10,-31 10,-43 1,-16 0,-31 -1,-46 0,-6 -1,-12 -4,-18z"/>
  <path class="fil15" d="M5088 3935c-24,3 -47,4 -71,-1 -18,-4 -36,-10 -55,-11 -34,-2 -69,7 -101,18 -17,6 -35,11 -52,18 -16,6 -29,16 -45,21 -8,3 -15,5 -23,8 0,2 3,2 5,2 9,1 17,0 25,-2 22,-3 42,-12 63,-17 12,-3 25,-2 35,6 2,2 4,4 6,6 4,4 9,6 14,8 13,5 26,8 40,7 16,-2 31,-9 47,-12 32,-8 66,2 97,-7 28,-8 60,-28 72,-55 -19,-2 -38,8 -57,11z"/>
  <path class="fil14" d="M5121 3893c-6,-5 -14,-8 -22,-10 -74,-17 -112,22 -174,50 -13,6 -25,13 -30,27 -2,5 -2,12 3,17 1,1 3,2 4,3 14,6 26,0 38,-5 15,-7 31,-13 47,-16 10,-2 21,-2 31,-3 33,-2 74,-8 103,-28 11,-9 16,-20 0,-35z"/>
  <path class="fil15" d="M4929 3947c-9,2 -18,9 -24,16 -2,2 -4,4 -4,7 1,2 1,3 2,4 5,7 26,0 31,-4 5,-4 8,-10 8,-17 0,0 0,-1 0,-2 -2,-4 -8,-5 -13,-4z"/>
  <path class="fil13" d="M5770 3813c-10,-8 -31,52 -34,60 -9,27 -14,54 -15,82 -1,6 0,13 5,14 1,1 1,1 1,1 6,1 10,-5 12,-10 21,-44 33,-88 34,-137 0,-4 0,-8 -3,-10z"/>
  <path class="fil14" d="M5741 3810c-15,-13 -28,-28 -43,-39 -24,-19 -50,-36 -73,-55 -20,-15 -42,-22 -54,-44 -13,-23 -20,-51 -26,-77 -1,-7 -3,-15 -7,-21 -4,-6 -12,-10 -19,-7 0,31 -3,64 -10,95 -6,26 -16,52 -13,80 2,16 3,33 5,49 1,16 3,32 10,45 11,22 34,35 57,41 28,6 53,3 79,14 32,14 65,24 95,43 15,-28 21,-57 26,-88 2,-20 -14,-24 -27,-36z"/>
  <path class="fil14" d="M5707 3759c-21,-39 -23,-88 -53,-121 -3,-3 -5,-5 -9,-6 -6,-1 -11,3 -13,9 -2,6 -1,12 0,18 5,24 13,47 18,71 6,28 2,38 -4,65 -9,36 47,48 74,53 4,1 9,2 13,0 7,-2 12,-10 12,-18 1,-8 -2,-16 -6,-23 -9,-17 -22,-31 -32,-48z"/>
  <path class="fil15" d="M5519 3562c-2,2 -3,5 -4,6 -2,7 2,21 3,29 0,2 0,4 1,5 9,9 12,-11 12,-15 0,-7 -3,-15 -5,-23 -2,-5 -5,-4 -7,-2z"/>
  <path class="fil15" d="M5649 3633c-2,-2 -5,-3 -8,-3 -1,0 -1,0 -2,0 -1,0 -2,1 -3,1 -3,3 -2,8 -1,12 1,6 2,11 5,16 1,3 2,6 5,8 2,2 6,3 8,0 2,-1 2,-3 3,-5 1,-11 1,-23 -7,-29z"/>
  <path class="fil15" d="M5520 3677c0,-9 0,-18 0,-27 -11,39 2,84 31,114 -6,-26 -27,-47 -31,-73 0,-5 0,-10 0,-14z"/>
  <path class="fil15" d="M5647 3754c0,-4 2,-9 2,-14 2,-20 -6,-40 -13,-58 5,17 8,35 7,53 -1,7 -2,13 -2,20 0,8 0,17 2,26 1,6 3,13 8,15 -5,-13 -6,-28 -4,-42z"/>
  <path class="fil16" d="M5704 6471c-48,4 -96,3 -143,-3 -7,-1 -7,10 0,11 47,6 95,7 143,4 7,-1 7,-12 0,-12z"/>
  <path class="fil16" d="M6204 6451c-50,21 -102,39 -154,55 -6,2 -3,12 3,10 52,-15 103,-34 153,-55 7,-2 4,-13 -2,-10z"/>
  <path class="fil16" d="M6349 6343c-17,7 -35,14 -53,21 -6,2 -3,13 3,10l53 -21c6,-3 4,-13 -3,-10z"/>
  <path class="fil16" d="M5919 6369c-16,3 -33,7 -50,11 -7,2 -4,12 4,11 16,-4 32,-8 49,-12 7,-1 4,-12 -3,-10z"/>
  <path class="fil10" d="M3805 6623c-17,-16 -35,-32 -52,-48 -11,-10 -22,-20 -29,-33 -8,-15 -10,-32 -11,-49 -7,-71 6,-147 -29,-211 -28,-52 -77,-92 -133,-103 -10,-2 -21,-3 -30,2 -9,4 -14,12 -20,20 -39,59 -79,112 -96,183 26,23 53,47 79,70 4,4 8,8 13,9 6,1 11,0 17,1 12,3 16,17 19,29 35,126 152,174 263,216 3,1 22,-62 20,-72 -2,-6 -6,-10 -11,-14z"/>
  <path class="fil10" d="M4562 6556c-10,-7 -24,-11 -36,-17 -38,-19 -72,-45 -105,-71 -22,-16 -44,-33 -62,-55 -1,-1 -2,-3 -4,-5 -16,-21 -29,-47 -32,-75 -4,-25 -14,-41 -36,-54 -39,-26 -97,-21 -129,16 -31,33 -33,78 -36,122 -4,41 -5,80 -2,121 2,13 60,21 72,25 17,4 35,9 52,6 12,-3 23,-9 35,-6 11,4 18,14 26,23 19,20 82,21 108,25 49,9 104,21 153,18 2,-1 4,-1 5,-2 2,-1 2,-3 3,-5 1,-7 3,-15 5,-22 5,-24 -3,-36 -17,-44z"/>
  <path class="fil18" d="M4280 4080c29,60 69,115 113,166 24,29 50,64 80,88 24,19 54,32 79,51 70,51 155,89 230,132 38,-42 72,-87 101,-135 4,-7 -84,-99 -93,-109 -33,-37 -70,-71 -100,-109 -22,-28 -36,-56 -62,-81 -34,-34 -67,-69 -91,-110 -11,-18 -15,-39 -19,-59 -23,-109 -46,-218 -69,-328 -15,-69 -21,-138 -37,-207 -21,-91 -116,-303 -241,-232 0,1 -1,1 -1,1 -53,31 -53,94 -53,149 0,48 12,100 19,149 7,58 16,115 26,173 21,115 47,230 77,343 8,28 16,57 27,85 4,11 9,22 14,33z"/>
  <path class="fil2" d="M4415 4791c-24,-112 -50,-223 -78,-334 -21,-84 -34,-186 -117,-228 -39,-20 -82,-26 -125,-32 -67,-9 -135,-17 -200,3 -37,11 -71,32 -105,54 -151,95 -135,279 -138,439 -2,113 2,225 11,337 10,110 41,223 35,332 -6,100 -33,196 -61,292 -55,192 -110,384 -165,577 72,59 155,104 243,131 171,-490 294,-999 366,-1516 17,71 36,141 57,210 18,62 37,125 44,190 6,55 3,111 0,166 -5,87 -40,381 -45,443 -6,93 -11,185 -14,277 -2,43 -5,223 0,271 83,-2 167,-4 250,-7 28,-154 88,-784 118,-943 9,-49 19,-99 19,-149 1,-82 -28,-160 -42,-240 -16,-92 -34,-183 -53,-273z"/>
  <path class="fil2" d="M4172 5523c0,-1 0,-3 0,-4 0,1 0,3 0,4z"/>
  <path class="fil2" d="M4173 5515c0,-1 0,-3 0,-4 0,1 0,3 0,4z"/>
  <path class="fil2" d="M4171 5531c0,-1 0,-3 1,-4 -1,1 -1,3 -1,4z"/>
  <path class="fil2" d="M4168 5564c0,-1 0,-3 0,-5 0,2 0,4 0,5z"/>
  <path class="fil2" d="M4174 5507c0,-1 0,-2 0,-4 0,2 0,3 0,4z"/>
  <path class="fil2" d="M4169 5556c0,-1 0,-3 0,-5 0,2 0,4 0,5z"/>
  <path class="fil2" d="M4169 5548c1,-2 1,-3 1,-5 0,2 0,3 -1,5z"/>
  <path class="fil2" d="M4170 5539c0,-1 1,-3 1,-4 0,1 -1,3 -1,4z"/>
  <path class="fil2" d="M4177 5470c0,-1 0,-2 0,-3 0,1 0,2 0,3z"/>
  <path class="fil2" d="M4174 5499c0,-1 1,-2 1,-3 0,1 -1,2 -1,3z"/>
  <path class="fil2" d="M4178 5457c0,-1 0,-2 1,-3 -1,1 -1,2 -1,3z"/>
  <path class="fil2" d="M4178 5464c0,-1 0,-2 0,-3 0,1 0,2 0,3z"/>
  <path class="fil2" d="M4176 5478c1,-2 1,-3 1,-4 0,1 0,2 -1,4z"/>
  <path class="fil2" d="M4175 5492c0,-1 0,-2 0,-4 0,2 0,3 0,4z"/>
  <path class="fil2" d="M4176 5485c0,-2 0,-3 0,-4 0,1 0,2 0,4z"/>
  <path class="fil2" d="M4145 5772c1,-3 1,-6 1,-9 0,3 0,6 -1,9z"/>
  <path class="fil2" d="M4148 5749c0,-4 1,-9 1,-13 0,4 -1,9 -1,13z"/>
  <path class="fil2" d="M4167 5573c0,-1 0,-3 0,-5 0,2 0,4 0,5z"/>
  <path class="fil2" d="M4147 5760c0,-3 0,-6 1,-9 -1,3 -1,6 -1,9z"/>
  <path class="fil2" d="M4145 5781c0,-3 0,-6 0,-9 0,3 0,6 0,9z"/>
  <path class="fil2" d="M4129 6001c0,-4 0,-9 0,-13 0,4 0,9 0,13z"/>
  <path class="fil2" d="M4137 5855c1,-2 1,-5 1,-8 0,3 0,6 -1,8z"/>
  <path class="fil2" d="M4132 5933c1,-4 1,-7 1,-11 0,4 0,7 -1,11z"/>
  <path class="fil2" d="M4179 5451c0,-1 0,-2 0,-3 0,1 0,2 0,3z"/>
  <path class="fil2" d="M4164 5599c0,-2 0,-4 1,-6 -1,2 -1,4 -1,6z"/>
  <path class="fil2" d="M4165 5590c0,-2 0,-3 1,-6 -1,3 -1,4 -1,6z"/>
  <path class="fil2" d="M4166 5582c0,-2 0,-4 0,-6 0,2 0,4 0,6z"/>
  <path class="fil2" d="M4162 5617c0,-2 1,-4 1,-6 0,2 -1,4 -1,6z"/>
  <path class="fil2" d="M4149 5735c1,-2 1,-5 1,-7 0,2 0,5 -1,7z"/>
  <path class="fil2" d="M4163 5608c0,-3 1,-5 1,-7 0,2 -1,4 -1,7z"/>
  <path class="fil2" d="M4130 5967c1,-4 1,-8 1,-12 0,4 0,8 -1,12z"/>
  <path class="fil2" d="M4154 5113c0,-1 0,-2 -1,-3 1,1 1,2 1,3z"/>
  <path class="fil2" d="M4157 5124c0,-2 -1,-4 -1,-5 0,1 1,3 1,5z"/>
  <path class="fil2" d="M3702 4261c0,0 0,0 0,-1 0,1 0,1 0,1z"/>
  <path class="fil2" d="M4140 5824c0,-1 0,-2 1,-4 -1,2 -1,3 -1,4z"/>
  <path class="fil2" d="M4140 5826c0,-1 0,-1 0,-2 0,1 0,1 0,2z"/>
  <path class="fil2" d="M4141 5820c0,0 0,-1 0,-2 0,1 0,2 0,2z"/>
  <path class="fil2" d="M4139 5832c1,-1 1,-2 1,-2 0,0 0,1 -1,2z"/>
  <path class="fil2" d="M4140 5830c0,-1 0,-3 0,-4 0,1 0,3 0,4z"/>
  <path class="fil2" d="M4139 5832c0,1 0,3 0,5 0,-2 0,-4 0,-5z"/>
  <path class="fil2" d="M4141 5818c0,-1 0,-3 0,-4 0,1 0,3 0,4z"/>
  <path class="fil2" d="M4143 5791c1,-2 1,-5 1,-8 0,3 0,6 -1,8z"/>
  <path class="fil2" d="M4143 5792c0,5 -1,9 -1,14 0,-5 1,-10 1,-15 0,1 0,1 0,1z"/>
  <path class="fil2" d="M4141 5814c0,-1 0,-1 0,-2 0,1 0,1 0,2z"/>
  <path class="fil2" d="M4142 5807c0,-1 0,-1 0,-1 0,0 0,0 0,1z"/>
  <path class="fil2" d="M4141 5812c1,-2 1,-4 1,-5 0,1 0,3 -1,5z"/>
  <path class="fil2" d="M4415 4791c-22,-102 -45,-203 -70,-304 -59,2 -118,13 -174,32 -5,2 -11,4 -15,9 -4,6 -5,14 -5,22 1,79 5,148 18,225 15,80 35,159 56,237 29,105 50,211 72,317 2,10 4,20 5,30 1,13 1,25 0,38 -5,104 -20,207 -32,310 -12,108 -36,221 -36,330 -8,94 -15,189 -17,283 0,8 1,43 3,80 51,-1 102,-2 153,-4 28,-154 88,-784 118,-943 9,-49 19,-99 19,-149 1,-82 -28,-160 -42,-240 -16,-92 -34,-183 -53,-273z"/>
  <path class="fil2" d="M4152 5711c-1,6 -1,11 -2,16 1,-5 1,-10 2,-16z"/>
  <path class="fil2" d="M4153 5702c0,3 -1,6 -1,9 0,0 0,0 0,0 0,-4 1,-8 1,-13 0,2 0,3 0,4z"/>
  <path class="fil2" d="M4185 5291c0,-2 0,-3 0,-4 0,1 0,2 0,4z"/>
  <path class="fil2" d="M4185 5298c0,-3 0,-5 0,-7 0,2 0,4 0,7z"/>
  <path class="fil2" d="M4185 5287c0,-2 0,-4 0,-7 0,3 0,5 0,7z"/>
  <path class="fil2" d="M4186 5329c0,-10 0,-21 -1,-31 1,10 1,21 1,31z"/>
  <path class="fil2" d="M4184 5271c0,-2 0,-3 0,-5 0,2 0,3 0,5z"/>
  <path class="fil2" d="M4184 5264c-1,-6 -1,-12 -2,-18 1,6 1,12 2,18z"/>
  <path class="fil2" d="M4184 5266c0,-1 0,-1 0,-2 0,1 0,1 0,2z"/>
  <path class="fil2" d="M4185 5277c0,-2 0,-4 -1,-6 1,2 1,4 1,6z"/>
  <path class="fil2" d="M4185 5280c0,-1 0,-2 0,-3 0,1 0,2 0,3z"/>
  <path class="fil2" d="M3671 4491c-1,-9 -1,-18 -1,-27 0,9 0,18 1,27z"/>
  <path class="fil2" d="M4158 5652c2,-12 3,-23 4,-35 -1,13 -3,26 -4,39 0,-1 0,-3 0,-4z"/>
  <path class="fil2" d="M4184 5367c0,-1 0,-2 0,-3 0,1 0,2 0,3z"/>
  <path class="fil2" d="M4181 5423c0,-1 0,-1 0,-2 0,1 0,1 0,2z"/>
  <path class="fil2" d="M4182 5418c0,-1 0,-1 0,-2 0,1 0,1 0,2z"/>
  <path class="fil2" d="M4183 5399c0,-1 0,-3 0,-4 0,1 0,3 0,4z"/>
  <path class="fil2" d="M4180 5433c0,0 0,-1 1,-2 -1,1 -1,2 -1,2z"/>
  <path class="fil2" d="M4180 5439c0,-1 0,-2 0,-3 0,1 0,2 0,3z"/>
  <path class="fil2" d="M4181 5428c0,-1 0,-1 0,-2 0,1 0,1 0,2z"/>
  <path class="fil2" d="M4179 5445c1,-1 1,-2 1,-3 0,1 0,2 -1,3z"/>
  <path class="fil2" d="M4180 5231c0,-3 0,-5 -1,-8 1,3 1,5 1,8z"/>
  <path class="fil2" d="M4175 5197c-1,-4 -2,-7 -2,-10 0,3 1,6 2,10z"/>
  <path class="fil2" d="M4177 5208c-1,-3 -1,-7 -2,-10 1,3 1,7 2,10z"/>
  <path class="fil2" d="M4179 5219c-1,-2 -1,-5 -1,-7 0,2 0,5 1,7z"/>
  <path class="fil2" d="M4182 5246c0,-4 -1,-8 -1,-11 0,3 1,7 1,11z"/>
  <path class="fil2" d="M4169 5172c0,-3 -1,-5 -1,-7 0,2 1,4 1,7z"/>
  <path class="fil2" d="M4123 6403c0,-1 0,-2 0,-3 0,1 0,2 0,3z"/>
  <path class="fil2" d="M4122 6394c0,0 0,-1 0,-2 0,1 0,2 0,2z"/>
  <path class="fil2" d="M4124 6099c0,-3 0,-7 0,-10 0,3 0,7 0,10z"/>
  <path class="fil2" d="M4121 6358c0,-2 0,-3 0,-4 0,1 0,2 0,4z"/>
  <path class="fil2" d="M4122 6391c0,0 0,-1 0,-2 0,1 0,2 0,2z"/>
  <path class="fil2" d="M4125 6067c0,-5 1,-9 1,-13 0,4 -1,8 -1,13z"/>
  <path class="fil2" d="M4121 6349c0,-2 0,-3 0,-5 0,2 0,3 0,5z"/>
  <path class="fil2" d="M4122 6385c0,-1 0,-2 0,-3 0,1 0,2 0,3z"/>
  <path class="fil2" d="M4121 6344c1,-71 2,-141 2,-212 -1,32 -3,139 -2,212z"/>
  <path class="fil2" d="M4121 6353c0,-1 0,-3 0,-4 0,1 0,3 0,4z"/>
  <path class="fil2" d="M4121 6362c0,-1 0,-3 0,-4 0,1 0,3 0,4z"/>
  <path class="fil2" d="M4122 6381c0,-1 0,-2 0,-2 0,0 0,1 0,2z"/>
  <path class="fil2" d="M4122 6388c0,-1 0,-2 0,-2 0,0 0,1 0,2z"/>
  <path class="fil2" d="M4122 6378c0,-1 0,-2 -1,-3 1,1 1,2 1,3z"/>
  <path class="fil2" d="M4123 6400c0,-1 0,-2 0,-2 0,0 0,1 0,2z"/>
  <path class="fil2" d="M4121 6366c0,-1 0,-2 0,-4 0,2 0,3 0,4z"/>
  <path class="fil2" d="M4127 6034c0,-4 0,-9 1,-13 -1,4 -1,9 -1,13z"/>
  <path class="fil2" d="M4121 6374c0,-1 0,-2 0,-3 0,1 0,2 0,3z"/>
  <path class="fil2" d="M4121 6370c0,-1 0,-2 0,-3 0,1 0,2 0,3z"/>
  <path class="fil2" d="M4123 6397c0,-1 0,-1 0,-2 0,1 0,1 0,2z"/>
  <path class="fil19" d="M4386 5390c-30,6 -60,16 -87,30 0,-5 0,-10 0,-14 21,-16 43,-32 65,-48 4,-4 0,-11 -5,-8 -20,15 -40,30 -60,45 -1,-14 -1,-28 -2,-42 -9,-114 -42,-231 -72,-341 -21,-78 -41,-157 -56,-237 -13,-77 -17,-146 -18,-225 0,-8 1,-16 5,-22 4,-5 10,-7 15,-9 56,-19 115,-30 174,-32 0,0 1,0 2,0 -11,-121 -51,-222 -167,-265 -74,-26 -153,-23 -230,-16 -26,2 -52,5 -78,12 -29,9 -57,23 -84,37 -49,26 -82,46 -102,100 -11,29 -44,129 -27,157 13,21 117,-12 142,-14 50,-4 97,-3 147,0 51,3 101,8 152,15 0,49 -5,97 -5,146 -3,65 -6,131 -13,196 -1,3 -1,5 0,8 0,3 2,6 4,9 10,15 23,36 26,55 2,18 2,35 6,53 41,184 68,371 54,560 -14,193 -32,385 -43,579 -4,75 -7,150 -8,225 0,2 0,3 0,5l0 0c0,1 0,3 0,4 0,0 0,0 0,1 0,1 0,2 0,4 0,0 0,0 0,0 0,1 0,3 0,4 0,0 0,0 0,0 0,2 0,3 0,4 0,0 0,1 0,1 0,1 0,2 0,3 0,0 0,1 0,1 0,1 0,2 0,3 0,0 0,0 0,1 1,1 1,2 1,3 0,0 0,0 0,1 0,0 0,1 0,2 0,1 0,1 0,1 0,1 0,2 0,3 0,0 0,0 0,1 0,0 0,1 0,2 0,0 0,1 0,1 0,1 0,2 0,2 0,1 0,1 0,1 0,1 0,2 0,2 1,0 1,1 1,1 0,1 0,1 0,2 0,0 0,1 0,1 0,0 0,1 0,2 0,0 0,0 0,0 0,1 0,2 0,3l97 -3c-2,-36 -3,-68 -3,-78 50,5 103,5 147,-16 6,-2 1,-10 -4,-8 -29,13 -60,16 -91,16 -17,0 -35,0 -52,-2 3,-92 9,-184 17,-275 0,-109 24,-222 36,-330 11,-92 27,-184 28,-277 29,-15 59,-25 91,-31 5,-1 3,-10 -3,-9z"/>
  <path class="fil20" d="M4277 3153c-109,-122 -446,-115 -567,-24 -78,60 -119,180 -134,273 -25,152 3,285 36,430 23,95 31,193 37,291 3,48 3,97 7,145 5,49 14,95 14,144 51,1 102,2 153,3 61,1 122,2 184,1 109,-3 218,-14 326,-33 -9,2 -32,-196 -33,-214 -4,-72 1,-143 3,-214 1,-73 25,-149 35,-221 10,-76 18,-151 18,-228 0,-90 -9,-179 -36,-267 -10,-31 -22,-62 -43,-86z"/>
  <path class="fil7" d="M4073 2498c-60,-5 -127,29 -163,74 -36,45 -70,97 -73,156 -2,66 33,125 42,190 10,67 -18,143 -27,210 -1,5 -2,10 0,14 2,7 8,12 14,16 55,35 115,63 177,82 5,2 11,4 17,2 6,-3 9,-9 12,-15 10,-23 20,-46 29,-68 9,-20 15,-47 -3,-59 -7,-4 -16,-5 -21,-11 -4,-5 -5,-12 -5,-18 0,-34 0,-67 0,-101 31,0 61,-15 80,-39 12,-17 19,-38 25,-58 16,-56 24,-113 24,-171 0,-45 -5,-91 -26,-131 -20,-38 -58,-70 -102,-73z"/>
  <path class="fil5" d="M4072 2971c-12,-1 -23,-4 -34,-9 -37,-17 -68,-43 -91,-75 -2,10 -1,20 1,30 3,9 5,18 8,27 6,19 15,39 26,56 21,34 52,65 90,70 0,-24 0,-48 0,-71 0,-9 -1,-18 1,-27 0,0 0,-1 -1,-1 0,0 0,0 0,0z"/>
  <path class="fil21" d="M4198 2437c-29,3 -58,13 -83,30 9,-14 5,-34 -8,-44 -14,-9 -33,-7 -49,-2 -71,20 -131,66 -188,113 -12,10 -25,20 -40,25 -9,2 -19,3 -28,7 -17,6 -29,22 -35,39 -7,17 -8,36 -7,54 1,103 36,205 99,287 5,7 13,14 21,13 4,-38 4,-76 4,-114 1,-9 1,-18 8,-24 2,-2 4,-3 6,-5 16,-15 -32,-63 -36,-81 -3,-13 -2,-27 5,-38 8,-10 24,-15 35,-8 10,6 12,19 15,30 3,10 7,20 12,30 1,2 2,4 3,5 5,4 13,-1 15,-7 1,-6 -1,-12 -3,-18 -14,-47 -3,-122 48,-144 26,-11 58,-14 87,-11 8,0 101,25 97,33 22,-38 41,-78 57,-119 5,-13 10,-31 0,-42 -8,-10 -22,-10 -35,-9z"/>
  <path class="fil20" d="M4153 4179c0,-2 0,-5 -1,-8 0,-1 -1,-3 -2,-4 -27,-34 -92,-46 -129,-64 -26,-11 -50,-25 -77,-34 -29,-9 -57,-19 -86,-30 -15,-5 -170,-59 -169,-63 45,-149 80,-302 104,-456 14,-94 -9,-180 -10,-273 -1,-49 -14,-156 -94,-113 -224,119 -272,360 -316,587 -8,42 -15,83 -20,125 -5,34 1,65 -2,99 -5,45 -9,92 -5,137 3,39 -2,79 3,119 3,-1 5,4 6,7 7,20 41,33 59,43 26,14 55,23 82,35 69,30 141,51 215,62 20,3 39,6 58,8 24,2 49,4 74,6 53,3 107,7 161,7 57,1 100,-16 150,-42 -9,-47 -9,-97 -1,-145 0,-1 0,-2 0,-3z"/>
  <path class="fil22" d="M3885 2708c-6,-1 -6,8 0,9 13,1 19,22 23,37 -6,-3 -12,-7 -19,-9 -5,-3 -9,5 -4,7 9,4 18,9 26,15 4,3 8,1 7,-4 -4,-19 -10,-52 -33,-55z"/>
  <path class="fil22" d="M4028 2951c-40,-21 -73,-52 -97,-91 -3,-5 -11,-1 -8,4 25,40 59,73 101,95 5,2 9,-5 4,-8z"/>
  <path class="fil7" d="M4475 4113c-59,3 -118,11 -175,25 -13,3 -28,6 -39,12 -12,7 -33,18 -40,30 -5,9 -12,22 -5,31 1,2 3,4 5,5 14,10 27,14 44,15 18,1 42,-6 57,-16 27,-17 46,-42 79,-50 11,-2 22,-2 32,-2 27,-2 54,-10 77,-25 1,-5 2,-10 3,-15 -9,-10 -25,-11 -38,-10z"/>
  <path class="fil18" d="M3840 3979c-16,-24 -20,-53 -22,-81 -12,-123 -21,-246 -28,-370 -26,150 -64,298 -114,441 99,54 205,96 314,127 -36,-26 -72,-52 -108,-78 -16,-12 -32,-23 -42,-39z"/>
  <path class="fil18" d="M4176 3168c-9,41 -26,78 -50,113 -7,9 -14,19 -23,25 -10,7 -32,-1 -43,-4 -23,-5 -45,-12 -68,-18 -45,-14 -90,-31 -134,-50 -21,-9 -40,-20 -52,-40 -12,-20 -12,-45 -2,-66 2,-5 -5,-9 -7,-4 -19,39 -4,81 31,104 22,14 47,23 71,32 26,11 53,20 81,29 27,9 55,16 83,23 21,5 39,10 55,-7 34,-37 56,-87 67,-135 1,-5 -7,-8 -9,-2z"/>
  <path class="fil18" d="M3642 3990c-34,25 -63,54 -89,88 -3,4 4,8 8,4 24,-32 53,-60 85,-85 5,-3 0,-10 -4,-7z"/>
  <path class="fil18" d="M3679 3999c-28,30 -53,64 -73,101 -3,4 4,9 7,4 20,-36 44,-69 72,-99 4,-4 -2,-11 -6,-6z"/>
  <path class="fil18" d="M4127 4184c-26,51 -28,111 -3,162 3,7 8,15 16,14 7,-1 10,-9 12,-16 0,-2 0,-3 0,-6 1,-28 -11,-131 6,-133 4,0 8,-2 11,-5 -14,-24 -23,-53 -42,-16z"/>
  <path class="fil18" d="M4265 4341c1,0 1,1 1,1 1,-2 1,-3 1,-5 0,1 -1,1 -2,1l0 3z"/>
  <path class="fil18" d="M4119 4341c-129,30 -262,11 -392,2 -6,-1 -6,8 0,8 131,10 265,28 395,-2 5,-1 3,-10 -3,-8z"/>
  <path class="fil7" d="M5051 4474c-43,-49 -108,-50 -164,-77 -16,-9 -50,-38 -67,-26 -6,4 -10,9 -13,15 -10,14 -19,29 -27,44 -6,13 -21,33 -14,48 3,6 10,8 16,11 18,9 35,22 49,37 6,7 11,17 18,24 7,7 17,13 26,18 37,26 78,47 118,68 33,17 66,34 97,53 17,10 33,23 50,32 10,4 37,9 36,-9 0,-4 -2,-6 -4,-9 -4,-7 -8,-13 -12,-20 12,9 23,18 34,26 3,3 7,5 10,6 4,1 8,1 11,-2 12,-11 -5,-35 -12,-44 -50,-65 -98,-133 -152,-195z"/>
  <path class="fil7" d="M4910 4409c-9,-2 -18,-4 -27,-2 -23,5 -25,19 -18,34 16,35 53,63 84,84 9,6 19,12 28,19 14,12 26,27 37,42 9,12 17,24 34,25 2,0 4,0 6,0 7,-2 11,-9 12,-15 3,-17 -5,-30 -14,-43 -45,-61 -61,-120 -142,-144z"/>
  <path class="fil5" d="M5001 4492c-4,-4 -9,2 -6,6 16,21 21,48 33,72 6,12 15,23 22,34 6,7 3,11 -7,12 -3,-2 -5,-3 -8,-5 -7,-3 -13,-7 -20,-11 -13,-9 -25,-19 -34,-32 -8,-11 -14,-23 -22,-34 -16,-20 -35,-38 -56,-53 -5,-4 -9,4 -4,7 30,21 53,49 72,80 8,12 18,23 29,31 13,9 28,21 43,26 9,3 16,1 19,-8 3,-12 -11,-27 -17,-36 -20,-27 -23,-62 -44,-89z"/>
  <path class="fil5" d="M5076 4583c-4,-4 -10,2 -6,5 19,20 38,40 56,59 4,4 10,-2 6,-5 -19,-20 -38,-40 -56,-59z"/>
  <path class="fil5" d="M5090 4634c-3,-4 -9,2 -5,6 14,17 30,34 47,49 4,4 10,-2 6,-6 -17,-15 -33,-32 -48,-49z"/>
  <path class="fil7" d="M4626 4154c-52,0 -104,10 -156,14 -59,3 -119,-21 -178,-3 -22,7 -42,18 -65,22 -11,1 -22,5 -33,6 -11,0 -20,-4 -30,-8 -6,-3 -15,-4 -19,4 -7,15 -9,33 -12,49 -2,14 -2,29 -2,44 1,13 1,31 9,42 7,9 21,4 30,3 26,-3 54,-10 78,2 45,24 95,19 145,20 23,1 47,1 69,-5 23,-5 44,-17 65,-29 45,-26 102,-48 123,-99 6,-15 12,-32 7,-47 -4,-14 -19,-16 -31,-15z"/>
  <path class="fil5" d="M4622 4184c-49,20 -99,36 -151,49 -5,1 -3,10 3,8 51,-13 101,-29 150,-49 5,-2 3,-11 -2,-8z"/>
  <path class="fil5" d="M4620 4217c-48,26 -97,48 -149,65 -5,2 -3,10 3,8 52,-17 102,-39 150,-66 5,-3 1,-10 -4,-7z"/>
  <path class="fil5" d="M4451 4168c12,-4 23,-9 35,-15 0,0 1,0 1,-1 9,-5 19,-12 20,-22 -4,3 -8,5 -11,8 -5,2 -9,5 -14,7 -8,-1 -15,-8 -15,-17 1,-5 -8,-5 -8,0 -1,9 4,18 12,22 -22,9 -46,14 -68,23 -30,11 -54,40 -86,40 -6,0 -6,9 0,9 26,0 53,-15 77,-25 8,-3 17,-7 27,-9 10,-2 21,-2 32,-2 47,0 96,-2 138,-25 2,-1 5,-4 3,-6 -48,4 -95,8 -143,13z"/>
  <path class="fil5" d="M4494 4117c-27,-9 -56,-3 -84,1 -32,4 -64,8 -96,13 -28,4 -47,14 -67,34 -22,23 -56,29 -85,15 -5,-2 -9,5 -4,8 21,10 44,11 66,3 10,-4 18,-10 26,-17 14,-13 24,-24 43,-30 15,-5 31,-6 47,-8 18,-2 36,-5 54,-7 31,-4 67,-14 98,-3 5,1 7,-7 2,-9z"/>
  <path class="fil5" d="M3831 4021c-38,-12 -76,-26 -111,-44 -5,-3 -10,4 -5,7 37,19 75,34 114,45 5,2 7,-7 2,-8z"/>
  <path class="fil5" d="M4502 4013c-9,7 -19,15 -29,23 -4,3 2,9 6,6 10,-8 20,-16 29,-23 5,-4 -1,-10 -6,-6z"/>
  <path class="fil23" d="M3684 6398c-20,-12 -42,-18 -65,-15 -6,1 -6,10 0,9 21,-2 42,2 60,14 5,4 10,-4 5,-8z"/>
  <path class="fil23" d="M3692 6445c-23,-8 -46,-11 -70,-8 -6,0 -6,10 0,9 23,-2 46,0 68,8 5,2 8,-7 2,-9z"/>
  <path class="fil23" d="M4349 6410c-26,7 -49,20 -71,36 -4,3 0,11 4,8 21,-16 44,-28 69,-36 5,-1 3,-10 -2,-8z"/>
  <path class="fil23" d="M4363 6433c-23,6 -44,19 -60,38 -4,5 2,11 6,7 15,-18 34,-30 56,-36 6,-1 3,-10 -2,-9z"/>
  <path class="fil1" d="M3743 3741c-29,-44 -75,-74 -120,-103 -66,-41 -139,-75 -217,-85 -7,34 -13,69 -18,105 72,9 144,27 208,62 28,16 54,35 77,58 15,14 50,50 44,74 6,-28 15,-54 27,-80 3,-7 6,-14 4,-22 -1,-3 -3,-6 -5,-9z"/>
  <path class="fil1" d="M4082 3664c-62,9 -124,23 -185,39 -28,8 -57,19 -86,24 -10,1 -63,3 -64,12 -5,37 -23,72 -30,110 2,-12 52,-15 61,-17 29,-7 57,-14 86,-20 78,-17 159,-24 239,-29 74,-5 151,1 221,27 5,-26 10,-51 14,-76 3,-21 5,-42 8,-63 -87,-19 -176,-18 -264,-7z"/>
  <path class="fil5" d="M3779 3569c-18,132 -52,260 -100,383 -2,5 6,7 8,2 49,-123 83,-251 100,-382 1,-6 -7,-8 -8,-3z"/>
  <path class="fil1" d="M4346 3670c-4,2 -8,4 -11,7 -2,3 -3,8 -4,12 -8,47 -10,85 -8,132 19,-26 51,-52 79,-68 15,-10 48,-24 75,-31 -7,-36 -14,-71 -22,-106 -36,18 -73,36 -109,54z"/>
  <path class="fil5" d="M4425 3431c-14,-74 -33,-149 -77,-212 -36,-51 -90,-92 -153,-102 -6,-1 -8,7 -3,8 68,11 122,57 158,113 42,64 57,142 70,216 29,164 57,329 85,493 -29,17 -53,42 -68,72 -2,5 5,10 8,5 15,-31 37,-55 67,-71 2,-1 2,-3 2,-5 -30,-172 -57,-345 -89,-517z"/>
  <path class="fil5" d="M3708 3128c-152,56 -233,205 -282,350 -29,85 -51,172 -62,262 -11,94 -18,188 -18,283 -1,62 2,125 8,188 1,5 9,5 9,0 -10,-95 -11,-190 -6,-285 5,-94 12,-190 31,-282 18,-88 46,-177 83,-259 34,-74 80,-142 143,-194 29,-23 61,-42 96,-54 5,-2 3,-10 -2,-9z"/>
  <path class="fil5" d="M4360 3486c0,-6 -9,-6 -8,0 21,228 -88,423 -52,652 1,5 8,0 7,-6 -36,-228 74,-418 53,-646z"/>
  <polygon class="fil24" points="2352,3703 2898,3703 2898,3696 2352,3696 "/>
  <polygon class="fil24" points="2638,3699 2645,3699 2645,3582 2638,3582 "/>
  <polygon class="fil24" points="2765,3820 2772,3820 2772,3703 2765,3703 "/>
  <polygon class="fil24" points="2383,3703 2389,3703 2389,3585 2383,3585 "/>
  <polygon class="fil24" points="2484,3817 2490,3817 2490,3699 2484,3699 "/>
  <path class="fil9" d="M2898 2918l0 -118 -106 -19 106 137zm0 0z"/>
  <path class="fil7" d="M2776 5840c-2,1 -3,1 -5,1 -39,4 -75,28 -94,62 -19,33 -22,73 -22,112 0,70 7,140 23,208 13,57 45,109 57,168 13,65 5,129 15,193 4,32 21,63 50,78 14,6 29,9 44,11 52,6 104,7 156,2 11,-1 22,-3 32,-8 18,-9 28,-31 27,-51 -3,-41 -48,-70 -70,-101 -28,-40 -48,-84 -63,-130 -29,-88 -39,-182 -48,-275 -6,-53 -12,-104 -9,-157 4,-41 -17,-94 -59,-109 -11,-3 -23,-4 -34,-4z"/>
  <path class="fil13" d="M2473 4596c-3,89 6,178 14,253 24,214 121,427 105,639 -4,50 -6,101 -12,151 -5,44 -13,86 -9,131 4,58 17,115 28,172 6,28 12,56 17,85 1,6 10,52 10,52 -5,2 -9,3 -14,4 -5,2 -11,4 -13,9 -1,2 -1,5 0,8 2,15 15,163 19,163 48,-2 96,-5 144,-5 31,-2 61,-3 92,-5 16,0 33,-3 49,-2 11,1 24,7 21,-11 -8,-48 -7,-96 -13,-143 -7,-46 -11,-91 -15,-137 -7,-76 -13,-152 -17,-228 -10,-157 -13,-314 -9,-472 4,-135 -2,-286 40,-416 42,-131 36,-282 46,-420 3,-43 6,-87 -7,-128 -35,-111 -240,-91 -322,-41 -29,18 -54,43 -75,70 -55,72 -75,171 -79,271z"/>
  <path class="fil16" d="M2614 4598c-18,128 -32,261 -17,390 12,107 80,189 147,269 48,57 90,124 95,199 12,148 -118,267 -160,410 -35,119 -9,240 9,360 19,-13 44,-14 67,-15 50,-2 101,-4 152,-6 3,0 6,0 8,-2 2,-2 1,-6 1,-9 -11,-71 -12,-143 -18,-214 -8,-83 -14,-165 -19,-248 -10,-157 -13,-314 -9,-472 4,-135 -2,-286 40,-416 42,-131 36,-282 46,-420 3,-43 6,-87 -7,-128 -19,-62 -117,-99 -177,-83 -102,27 -128,190 -141,276 -6,36 -12,73 -17,109z"/>
  <path class="fil7" d="M2554 5831c-67,134 -140,262 -206,397 -29,59 -52,109 -31,170 15,43 30,97 -45,96 -40,-1 -77,-22 -109,-47 -146,-114 16,-277 57,-404 44,-136 92,-272 152,-403 29,-63 63,-122 97,-182 33,-59 54,-124 93,-180 33,-45 74,-84 121,-114 7,-5 15,-9 23,-11 9,-1 19,1 28,4 36,11 67,37 85,69 58,103 -2,192 -68,264 -83,93 -141,231 -197,341z"/>
  <path class="fil7" d="M3277 4047c-30,-13 -143,-57 -142,-61 0,-52 -5,-102 -11,-153 -3,-26 -5,-51 -7,-77 -2,-24 -2,-49 -4,-73 -37,4 -72,21 -99,47 -30,30 -44,68 -48,110 -1,18 -5,36 -7,53 -4,41 -5,82 2,122 7,35 4,73 15,106 22,62 91,93 147,121 118,60 251,76 380,104 20,4 40,9 60,16 24,8 47,20 70,31 83,43 166,82 261,90 24,3 50,4 68,-11 25,-20 34,-48 19,-78 -10,-19 -27,-34 -46,-47 -19,-12 -40,-22 -61,-30 -7,-3 -15,-5 -22,-8 -39,-16 -64,-37 -105,-45 -57,-10 -105,-23 -146,-43 -57,-28 -113,-60 -169,-91 -50,-27 -99,-55 -150,-80 -1,-1 -3,-2 -5,-3z"/>
  <path class="fil7" d="M271 6249c11,25 28,49 32,76 2,15 -1,31 1,46 4,33 28,60 54,80 7,6 15,11 24,14 13,5 28,5 43,4 10,-1 21,-2 30,-7 20,-13 20,-42 13,-65 -7,-25 -18,-49 -20,-75 -4,-80 92,-69 145,-78 81,-13 160,-35 237,-64 27,-10 79,-26 88,-56 9,-31 -19,-87 -38,-108 -61,-68 -109,-12 -170,9 -73,24 -143,49 -211,84 -20,10 -51,38 -73,39 -39,3 -64,-33 -109,-14 -33,14 -57,49 -54,85 1,10 4,20 8,30z"/>
  <path class="fil15" d="M728 5999c14,84 116,150 189,187 10,5 23,10 33,4 5,-2 9,-7 12,-12 31,-46 43,-103 55,-158 34,-162 71,-356 -14,-509 -62,-114 -205,-50 -231,50 -33,125 -4,258 -41,382 -5,19 -6,38 -3,56z"/>
  <path class="fil7" d="M1095 6020c-7,0 -14,1 -21,3 -88,19 -119,150 -135,226 -9,48 -22,96 -31,143 -9,49 -4,94 -36,137 -10,14 -23,27 -30,42 -10,20 -9,44 -8,66 1,4 1,8 3,12 2,4 6,6 10,9 57,35 116,71 183,78 33,4 154,19 139,-44 -5,-19 -21,-33 -38,-43 -22,-14 -47,-26 -67,-43 -87,-77 30,-240 62,-321 28,-68 124,-185 43,-245 -21,-15 -48,-21 -74,-20z"/>
  <path class="fil15" d="M1059 5491c-46,6 -81,47 -95,91 -14,44 -10,92 -6,138 13,146 21,282 8,428 0,3 0,5 1,7 2,2 5,2 8,2 24,-2 48,-8 72,-9 37,-2 74,8 110,17 24,6 48,12 72,19 -8,-174 -10,-355 -43,-527 -13,-70 -24,-177 -127,-166z"/>
  <path class="fil7" d="M768 5056c96,46 22,241 -17,308 -14,24 -32,47 -41,74 -15,48 4,84 14,131 12,56 18,113 18,170 1,20 0,41 3,62 4,40 20,78 44,110 26,34 28,44 -2,62 -22,13 -98,26 -120,12 -25,-16 -20,-53 -19,-83 4,-73 -27,-142 -48,-211 -50,-166 -44,-384 22,-545 22,-55 89,-116 146,-90z"/>
  <path class="fil2" d="M580 5221c16,19 48,27 67,46 24,22 42,48 63,73 7,8 47,40 44,49 8,-23 19,-45 33,-64 -2,46 -8,95 -15,141 -8,49 -16,99 -24,149 78,-26 159,-47 242,-47 82,1 166,24 230,77 -7,-97 -11,-195 -13,-293 -1,-35 -2,-71 -2,-106 -1,-31 6,-60 9,-91 0,-7 1,-15 4,-21 5,-11 17,-17 28,-23 24,-12 48,-25 72,-37 3,-1 6,-3 6,-6 1,-2 1,-3 0,-4 -3,-37 -18,-77 -31,-112 -15,-39 -24,-73 -54,-104 -4,-5 -76,23 -86,25 -27,6 -56,8 -84,14 -67,12 -134,22 -202,33 -47,7 -97,15 -134,45 -25,20 -42,48 -59,75 -29,48 -59,97 -89,145 -5,8 -10,17 -9,26 0,4 1,7 4,10z"/>
  <path class="fil9" d="M3083 3422c-22,-34 -50,-64 -68,-101 -15,-32 -16,-71 -37,-101 -18,-25 -47,-38 -76,-49 -70,-27 -153,-63 -229,-37 -51,18 -115,37 -158,70 -45,34 -65,93 -66,150 -1,56 15,111 31,165 29,92 63,185 74,281 4,30 33,359 22,360 142,-9 285,-1 424,25 -16,-3 51,-473 80,-520 13,-20 28,-38 37,-60 18,-44 11,-94 -9,-137 -7,-16 -16,-31 -25,-46z"/>
  <path class="fil7" d="M2419 3474c19,-32 46,-65 82,-61 15,2 28,10 39,19 36,30 55,78 53,124 -2,45 -9,89 -20,132 -10,40 -34,76 -57,110 -47,72 -102,141 -132,223 -8,21 -14,43 -21,64 -24,73 -58,142 -90,212 -16,34 -30,70 -46,105 -12,29 -31,52 -44,82 -25,61 -73,111 -115,162 -45,56 -77,132 -147,163 -24,11 -51,16 -77,20 -26,4 -56,12 -81,11 -10,0 -22,-6 -22,-16 1,-5 4,-10 7,-14 20,-26 45,-47 55,-79 14,-44 30,-84 65,-115 18,-16 36,-30 55,-44 18,-12 36,-24 50,-41 29,-35 43,-81 54,-126 12,-50 23,-98 38,-148 34,-112 67,-224 101,-336 6,-21 12,-41 21,-61 8,-18 19,-35 29,-52 33,-53 69,-104 99,-158 33,-58 72,-113 101,-172 1,-2 2,-3 3,-4z"/>
  <path class="fil16" d="M2559 5088c-6,38 -14,74 -27,108 -47,121 -107,235 -167,350 -23,45 -44,92 -66,138 -6,12 -79,170 -79,170 -7,-4 -13,-10 -17,-18 -24,38 -47,77 -69,116 -2,4 -4,8 -5,12 0,7 3,13 7,19 68,108 161,176 280,219 -12,-4 162,-343 182,-378 79,-138 158,-276 237,-414 16,-28 32,-55 44,-85 23,-57 31,-120 39,-182 13,-95 26,-190 39,-285 12,-94 38,-196 38,-291 8,-61 16,-122 16,-184 0,-80 -7,-158 -14,-237 -16,-1 -429,4 -429,-28 0,69 -26,126 -58,185 -31,58 -63,117 -60,184 2,57 31,112 75,149 52,44 55,67 51,140 -6,97 -1,210 -17,312z"/>
  <path class="fil13" d="M2953 4222c-117,16 -236,8 -350,-24 -7,-2 -10,10 -3,12 115,32 235,40 353,24 8,-1 8,-13 0,-12z"/>
  <path class="fil13" d="M2645 4693c-44,-10 -86,-27 -124,-50 -7,-4 -13,6 -6,10 39,24 82,42 126,52 8,2 11,-10 4,-12z"/>
  <path class="fil13" d="M2593 5246c-12,-17 -24,-35 -36,-53 -4,-6 -15,0 -10,6l36 53c4,7 15,1 10,-6z"/>
  <path class="fil13" d="M2635 5219c-23,-10 -45,-21 -66,-35 -6,-4 -12,6 -6,11 22,14 45,26 69,36 7,3 10,-9 3,-12z"/>
  <path class="fil13" d="M2893 4252c-1,-8 -12,-4 -11,3 6,36 0,72 -15,104 -14,30 -39,53 -56,80 -18,30 -20,65 -21,98 -1,40 -2,80 -3,120 -3,79 -6,159 -11,238 -4,77 -7,155 -20,232 -12,75 -35,146 -69,214 -34,67 -74,131 -113,195 -83,137 -165,273 -248,410 -4,8 -9,16 -14,23 -18,-18 -34,-38 -48,-59 -4,-7 -15,-1 -10,6 15,23 32,45 52,64 -17,27 -33,54 -49,81 -4,6 6,12 10,6 16,-26 32,-52 48,-78 23,22 50,41 78,57 7,4 13,-6 6,-10 -28,-16 -55,-35 -78,-58 65,-107 129,-214 194,-321 41,-68 82,-135 122,-202 37,-62 73,-126 98,-193 26,-71 37,-145 44,-219 7,-78 10,-156 14,-234 3,-79 6,-159 9,-238 1,-38 -3,-80 14,-115 13,-30 40,-52 56,-80 22,-37 28,-82 21,-124z"/>
  <path class="fil7" d="M1069 5024c3,-2 6,-5 9,-8 12,-11 21,-26 22,-42 2,-16 -7,-34 -22,-39 -11,-4 -25,-3 -31,-13 -2,-4 -2,-8 -3,-12 -2,-29 -4,-58 -6,-87 -3,-38 -12,-68 -50,-86 -33,-16 -79,-14 -103,14 -20,25 -19,60 -21,92 -3,51 -15,78 -44,118 -2,3 -5,7 -4,11 0,3 2,5 4,8 9,12 20,23 33,33 59,46 153,57 216,11z"/>
  <path class="fil5" d="M1007 4880c20,-9 33,-28 31,-57 -3,-38 -12,-68 -50,-86 -45,-21 -109,-2 -121,51 -17,76 86,117 140,92z"/>
  <path class="fil7" d="M840 4776c17,21 37,38 65,49 36,13 76,15 114,9 73,-12 96,-55 110,-123 21,-98 2,-304 -125,-329 -61,-11 -118,-12 -170,28 -93,73 -79,167 -43,267 13,35 27,70 49,99z"/>
  <path class="fil9" d="M2638 3363c-20,-95 -78,-214 -180,-119 -56,53 -74,126 -106,192 -38,80 -72,162 -109,242 44,18 91,13 135,29 28,10 54,29 80,44 58,33 119,72 143,137 14,-41 16,-82 25,-124 23,-110 29,-246 19,-357 -2,-13 -4,-28 -7,-44z"/>
  <path class="fil13" d="M2127 6255c-4,-1 -8,-1 -13,0 -9,3 -16,11 -20,20 -4,10 -6,19 -10,29 -5,14 -15,27 -27,36 -12,8 -26,14 -32,26 -15,33 45,60 66,78 22,19 45,38 65,59 87,93 194,150 324,154 1,-18 2,-36 -5,-53 -17,-41 -60,-53 -92,-77 -39,-30 -53,-84 -92,-115 -23,-18 -52,-23 -76,-42 -23,-19 -42,-43 -54,-70 -5,-11 -8,-22 -16,-32 -4,-6 -11,-10 -18,-13z"/>
  <path class="fil16" d="M2434 6551c0,1 1,3 1,4 3,7 1,18 -6,19 -4,0 -7,-1 -9,-3 -60,-37 -125,-88 -159,-150 -20,-38 -38,-111 22,-120 11,-2 22,7 27,16 24,36 19,85 43,121 16,30 36,55 58,81 9,10 18,20 23,32z"/>
  <path class="fil1" d="M2447 6703c23,-7 38,-24 31,-49 -15,5 -31,2 -46,-1 -31,-6 -63,-12 -93,-24 -74,-29 -134,-97 -192,-151 -8,-7 -118,-111 -121,-107 -15,17 -24,32 -30,51 -3,8 -6,18 -9,28 3,-11 114,72 122,79 37,30 74,61 113,88 19,14 40,26 60,39 31,19 60,28 94,39 23,7 48,15 71,8z"/>
  <path class="fil25" d="M2315 6627c1,-2 2,-5 1,-7 -1,-2 -2,-3 -4,-4 -27,-21 -56,-36 -83,-60 -28,-25 -54,-52 -82,-78 -8,-7 -118,-111 -121,-107 -15,17 -24,32 -30,51 -3,8 -6,18 -9,28 3,-11 114,72 122,79 37,30 74,61 113,88 21,16 42,39 64,51 9,-13 18,-25 27,-38 1,-1 1,-2 2,-3z"/>
  <path class="fil13" d="M2444 6692c-92,17 -174,-39 -241,-95 -64,-55 -124,-118 -204,-148 -7,-2 -10,8 -3,10 86,33 148,103 217,160 65,54 146,99 234,84 7,-1 4,-12 -3,-11z"/>
  <path class="fil25" d="M2341 6416c-7,-2 -15,-3 -22,-3 4,-3 8,-6 12,-9 6,-4 1,-13 -5,-9 -9,5 -17,11 -24,18 -25,1 -49,9 -70,22 -6,3 0,13 5,9 17,-10 35,-16 53,-19 -13,14 -22,30 -30,47 -2,6 8,9 11,3 8,-20 20,-37 35,-52 11,0 22,1 32,3 7,1 10,-9 3,-10z"/>
  <path class="fil25" d="M2377 6475c-11,-2 -23,-3 -34,-2 4,-5 9,-10 15,-14 5,-4 0,-14 -6,-10 -10,8 -18,17 -25,27 -12,3 -24,8 -34,15 -6,4 -1,13 5,9 6,-4 13,-8 20,-10 -5,10 -9,21 -12,33 -1,7 9,10 11,3 3,-15 8,-29 16,-41 14,-3 28,-3 42,1 6,1 9,-9 2,-11z"/>
  <path class="fil13" d="M2739 6517c-4,1 -8,3 -11,6 -7,8 -8,18 -7,28 1,10 5,20 7,29 3,16 1,32 -5,46 -6,13 -15,25 -13,39 4,35 69,27 96,32 29,4 58,9 86,17 123,33 244,27 357,-38 -8,-16 -17,-31 -32,-42 -36,-27 -78,-14 -118,-18 -49,-6 -89,-45 -139,-51 -29,-3 -56,8 -86,4 -30,-4 -58,-15 -83,-32 -9,-6 -19,-14 -30,-18 -7,-3 -15,-4 -22,-2z"/>
  <path class="fil16" d="M3155 6610c1,1 2,1 3,2 6,5 10,15 4,20 -2,2 -6,2 -9,2 -70,-1 -152,-10 -213,-46 -37,-21 -91,-74 -44,-113 9,-7 22,-6 32,0 39,18 60,62 99,80 29,17 59,29 92,39 12,4 25,8 36,16z"/>
  <path class="fil1" d="M3245 6733c16,-18 20,-41 1,-58 -10,12 -25,18 -40,23 -30,11 -60,22 -92,28 -78,14 -165,-14 -242,-29 -10,-2 -158,-33 -159,-29 -4,23 -3,40 0,59 2,9 5,19 8,30 -4,-12 134,1 144,3 48,7 95,14 143,17 24,2 48,1 72,1 36,0 65,-7 100,-15 24,-6 49,-13 65,-30z"/>
  <path class="fil25" d="M3093 6737c-1,-3 -1,-6 -4,-7 -1,-1 -2,-1 -4,-1 -34,-4 -68,-2 -102,-8 -37,-7 -74,-17 -111,-24 -10,-2 -158,-33 -159,-29 -4,23 -3,40 0,59 2,9 5,19 8,30 -4,-12 134,1 144,3 48,7 95,14 143,17 26,2 56,11 81,9 1,-15 2,-30 4,-45 0,-2 0,-3 0,-4z"/>
  <path class="fil13" d="M3237 6725c-70,62 -169,58 -256,44 -83,-14 -166,-36 -251,-20 -7,1 -4,12 3,11 90,-18 180,10 269,23 83,12 176,8 243,-50 5,-5 -3,-12 -8,-8z"/>
  <path class="fil25" d="M3005 6542c-7,3 -14,6 -21,10 2,-5 4,-10 7,-14 3,-7 -7,-12 -10,-6 -4,9 -8,19 -11,29 -20,14 -36,32 -48,54 -3,7 6,12 9,6 9,-17 21,-32 35,-44 -3,18 -3,37 -1,56 2,7 12,3 11,-3 -4,-21 -2,-43 3,-63 9,-6 19,-11 29,-14 7,-3 4,-13 -3,-11z"/>
  <path class="fil25" d="M3067 6574c-11,4 -22,10 -31,16 1,-6 3,-13 6,-19 2,-7 -7,-12 -10,-6 -4,12 -7,24 -8,36 -9,9 -16,19 -21,31 -3,6 7,12 9,5 4,-7 7,-13 12,-19 1,11 3,23 7,34 3,7 13,4 11,-3 -6,-14 -8,-28 -7,-43 9,-10 22,-17 35,-21 7,-2 4,-13 -3,-11z"/>
  <path class="fil23" d="M3773 6665c-20,-6 -39,-13 -58,-23 2,1 4,0 5,-2 14,-14 31,-24 50,-29 8,-2 4,-14 -3,-12 -21,6 -40,17 -55,33 -3,3 -2,7 0,9 -50,-27 -94,-66 -125,-115 -11,-17 -20,-34 -27,-52 -7,-19 -13,-39 -26,-56 -23,-29 -62,-42 -82,-75 -4,-6 -14,0 -10,7 19,32 58,46 82,74 15,18 20,43 29,64 8,19 18,36 30,53 44,65 111,114 187,136 8,2 11,-10 3,-12z"/>
  <path class="fil23" d="M4547 6598c-33,2 -66,-2 -99,-8 1,-1 2,-2 2,-3 4,-19 13,-36 27,-50 6,-6 -3,-14 -8,-9 -16,15 -26,34 -31,56 0,1 0,3 1,4 -34,-8 -68,-16 -100,-27 -16,-5 -30,-13 -44,-22 -15,-8 -30,-12 -46,-14 -37,-6 -74,-11 -112,-16 -7,-1 -10,10 -3,11 36,5 72,10 107,16 19,2 35,7 51,16 14,8 28,15 44,21 33,12 69,20 104,27 35,8 71,13 107,10 8,0 8,-12 0,-12z"/>
  <path class="fil13" d="M2732 4381c-21,41 -38,84 -49,128 -3,11 -6,22 -8,34 -1,5 -2,10 -4,14 -3,6 -11,7 -16,8 -19,6 -36,16 -51,27 -17,-22 -35,-44 -52,-65 -5,-7 -13,2 -8,8 18,23 36,46 55,70 2,2 6,2 8,0 19,-15 39,-24 61,-31 18,-7 19,-29 22,-45 11,-49 29,-97 52,-142 4,-6 -7,-12 -10,-6z"/>
  <path class="fil13" d="M2811 4303c-43,-6 -88,-9 -132,-6 -21,1 -43,4 -64,8 -12,2 -24,4 -36,7 -15,4 -21,-6 -26,-19 -3,-7 -13,-1 -10,6 5,13 15,28 31,26 26,-3 52,-11 78,-14 52,-5 105,-4 156,4 8,1 11,-10 3,-12z"/>
  <path class="fil13" d="M2820 6057c-28,5 -55,9 -83,12 -15,-102 -19,-204 -15,-307 1,-7 -11,-7 -12,0 -5,103 0,206 15,308 -23,1 -46,2 -69,2 -8,0 -8,12 0,12 23,0 47,-1 71,-2 5,34 11,67 18,101 2,8 13,4 12,-3 -7,-33 -13,-66 -18,-99 28,-3 56,-7 84,-12 8,-2 5,-14 -3,-12z"/>
  <path class="fil7" d="M2655 3127c-6,20 -12,39 -18,59 53,56 106,112 159,168 25,27 53,55 89,64 14,3 29,3 41,-3 28,-15 18,-90 18,-118 2,-45 -4,-40 -26,-73 -24,-39 -52,-83 -55,-129 -1,-26 4,-51 7,-76 6,-44 5,-90 -2,-134 -2,-14 -5,-27 -12,-40 -18,-37 -65,-52 -106,-45 -22,4 -45,15 -54,36 -4,9 -5,19 -6,29 -4,56 0,116 -10,171 -5,30 -15,61 -25,91z"/>
  <path class="fil5" d="M2739 3032c19,17 43,29 68,34 33,5 55,-13 65,-44 7,-21 7,-43 6,-64 -2,-38 -4,-79 -22,-113 -18,-37 -65,-52 -106,-45 -22,4 -45,15 -54,36 -17,39 -12,96 2,135 5,12 10,23 17,34 7,10 15,19 24,27z"/>
  <path class="fil7" d="M2705 2558c-15,16 -27,36 -34,59 -20,58 -42,149 -15,207 27,56 69,102 125,131 34,17 76,31 115,25 45,-7 57,-46 67,-87 23,-93 28,-183 -12,-272 -43,-96 -164,-153 -246,-63z"/>
  <path class="fil10" d="M2971 2656c0,0 1,0 1,0 9,18 26,34 47,37 20,2 43,-14 42,-34 0,-7 -3,-14 -5,-21 -12,-24 -34,-59 -60,-71 -15,-7 -33,-9 -50,-14 -37,-11 -67,-39 -101,-58 -34,-19 -81,-27 -110,0 -16,15 -23,38 -40,52 -18,15 -32,6 -52,8 -18,2 -38,11 -53,23 -29,23 -48,54 -55,91 -12,65 3,137 26,197 21,57 7,135 -39,177 -12,11 -27,20 -39,32 -11,12 -21,29 -18,46 5,25 32,38 55,42 27,5 51,12 78,19 88,23 129,-25 132,-109 2,-88 -17,-169 -33,-254 -8,-47 3,-88 36,-120 34,-32 48,-81 81,-111 23,-20 58,17 68,37 3,6 5,13 9,19 9,12 23,18 38,19 14,1 29,-2 42,-7z"/>
  <path class="fil2" d="M3026 3662c-51,8 -102,17 -154,21 -48,3 -98,-2 -140,-28 -7,-4 -13,6 -6,10 41,27 90,32 138,30 55,-2 111,-13 166,-21 7,-2 4,-13 -4,-12z"/>
  <path class="fil2" d="M2883 3954c-20,28 -37,57 -52,87 -4,7 6,13 10,6 15,-30 33,-59 52,-87 5,-6 -6,-12 -10,-6z"/>
  <path class="fil2" d="M2919 4003c-13,23 -26,45 -41,66 -4,7 6,13 10,6 15,-21 29,-43 41,-66 4,-7 -7,-13 -10,-6z"/>
  <path class="fil2" d="M2981 3446c-18,44 -72,46 -111,36 -40,-10 -76,-33 -105,-63 -53,-53 -83,-125 -142,-174 -6,-5 -14,4 -8,9 66,54 97,140 163,194 34,28 77,47 120,51 39,4 80,-12 94,-50 3,-7 -8,-10 -11,-3z"/>
  <path class="fil22" d="M2813 2968c-25,-9 -48,-22 -71,-36 -7,-4 -13,6 -6,10 24,15 48,28 74,38 8,3 11,-9 3,-12z"/>
  <path class="fil9" d="M2582 3842c-70,-78 -164,-135 -266,-159 -8,-2 -11,10 -4,11 101,25 193,79 262,157 5,6 13,-3 8,-9z"/>
  <path class="fil5" d="M3119 3705c-1,-8 -12,-8 -11,0 8,89 13,178 13,267 0,8 11,8 11,0 0,-89 -4,-178 -13,-267z"/>
  <path class="fil5" d="M3657 4249c-88,-34 -164,-89 -244,-137 -83,-50 -172,-87 -261,-125 -7,-2 -10,9 -3,11 91,38 181,77 265,128 79,48 154,101 240,134 7,2 10,-9 3,-11z"/>
  <path class="fil5" d="M3903 4417c-15,-22 -30,-43 -48,-62 -9,-9 -19,-18 -30,-26 -11,-9 -24,-16 -33,-28 -4,-6 -14,0 -10,6 15,20 39,31 57,48 20,19 36,42 52,64 -7,3 -23,-4 -28,-6 -10,-4 -20,-9 -29,-15 -18,-10 -35,-23 -52,-36 -31,-24 -64,-48 -104,-54 -7,-1 -10,10 -3,11 47,7 83,39 119,66 19,14 38,27 59,36 13,6 41,19 50,2 1,-2 2,-5 0,-6z"/>
  <path class="fil5" d="M3981 4410c-27,-11 -54,-23 -80,-36 -6,-4 -12,6 -5,9 26,15 54,27 82,38 7,2 10,-8 3,-11z"/>
  <path class="fil5" d="M3934 4449c-36,-9 -72,-16 -108,-20 -7,-1 -7,10 0,11 35,4 70,11 105,20 7,2 10,-9 3,-11z"/>
  <path class="fil5" d="M725 4693c-9,21 -5,50 14,62 4,2 8,4 11,7 7,7 7,19 0,26 -6,6 -16,6 -23,9 -8,3 -15,12 -12,19 3,5 10,7 15,7 6,0 12,-2 18,0 5,2 9,7 15,9 6,3 14,1 20,0 11,-2 21,-4 32,-7 18,-4 39,-9 47,-28 6,-11 6,-25 3,-37 -2,-7 -4,-14 -9,-18 -1,-2 -3,-3 -5,-5 -18,-16 -15,-33 -6,-52 11,-23 14,-44 8,-68 -5,-17 -9,-39 6,-48 13,7 28,14 43,14 15,0 32,-8 35,-23 -26,-28 -42,-65 -65,-97 -22,-31 -58,-59 -96,-54 -41,4 -69,44 -84,82 -4,14 -8,27 -8,42 1,34 7,63 32,90 26,27 25,36 10,69 0,0 -1,1 -1,1z"/>
  <path class="fil5" d="M975 4534c23,-3 39,23 62,28 23,6 46,-11 68,-19 39,-15 85,-7 119,-29 2,-1 4,-3 5,-5 4,-7 -5,-14 -13,-17 -29,-11 -61,-24 -78,-50 -6,-9 -9,-20 -16,-29 -7,-9 -16,-16 -26,-23 -44,-32 -93,-65 -147,-63 -25,1 -48,9 -71,19 -23,11 -50,26 -67,44 -5,5 -7,12 -5,19 1,-3 5,0 5,3 -1,2 -3,5 -3,7 0,4 5,7 9,7 4,-1 7,-3 11,-4 8,-2 17,0 24,5 7,5 13,12 18,19 13,17 24,36 35,55 7,12 16,37 29,42 13,5 27,-7 41,-9z"/>
  <path class="fil19" d="M1203 5041c-1,-8 -13,-4 -11,3 36,173 -17,349 13,523 1,7 12,4 11,-4 -29,-173 23,-349 -13,-522z"/>
  <path class="fil19" d="M1131 4994c-31,66 -103,91 -172,86 -67,-4 -132,-38 -177,-87 -5,-6 -14,2 -9,8 48,53 115,85 186,91 72,7 150,-23 182,-92 3,-7 -7,-13 -10,-6z"/>
  <path class="fil19" d="M784 5316c-6,12 -12,24 -19,36 -2,6 -5,11 -8,16 -1,3 -3,6 -5,7 -2,-3 -4,-7 -6,-10 -13,-20 -28,-39 -44,-57 -33,-36 -72,-66 -114,-89 -7,-4 -13,6 -6,10 48,27 91,62 127,106 8,10 16,22 24,33 6,8 9,20 20,20 10,1 15,-15 19,-22 7,-14 15,-29 23,-44 3,-7 -7,-13 -11,-6z"/>
  <path class="fil19" d="M840 5252c-1,-5 -9,-6 -11,-1 -4,9 -8,18 -12,26 0,-51 -14,-101 -41,-144 -4,-7 -14,-1 -10,6 31,51 44,111 37,170 -1,6 8,9 11,3l9 -19c1,0 2,-1 4,-2 11,-10 15,-24 13,-39z"/>
  <path class="fil5" d="M1946 4560c-44,27 -82,62 -114,103 -35,45 -59,98 -84,150 -3,7 8,13 11,6 22,-48 45,-96 76,-140 31,-44 72,-81 117,-109 7,-4 1,-14 -6,-10z"/>
  <path class="fil5" d="M1864 4746c-29,36 -66,65 -109,82 -7,3 -4,15 3,12 45,-19 84,-48 114,-85 5,-6 -3,-15 -8,-9z"/>
  <path class="fil5" d="M1893 4775l-54 31c-6,4 0,14 6,10 18,-10 36,-20 54,-30 7,-4 0,-14 -6,-11z"/>
  <path class="fil5" d="M1446 4842c-65,1 -129,12 -189,34 -8,2 -4,14 3,11 60,-21 122,-32 186,-33 8,0 8,-12 0,-12z"/>
  <path class="fil5" d="M1666 4725c-61,38 -126,73 -193,102 -7,3 0,13 7,10 66,-29 131,-63 193,-102 6,-4 0,-15 -7,-10z"/>
  <path class="fil5" d="M755 5799c-8,-31 -7,-64 -7,-96 0,-29 -3,-58 -7,-87 -10,-59 -32,-116 -63,-167 -4,-6 -14,-1 -10,6 30,51 51,106 61,164 6,31 7,62 7,93 0,30 0,61 7,90 2,8 14,5 12,-3z"/>
  <path class="fil5" d="M786 5948c-8,-38 -21,-76 -38,-111 -3,-7 -14,-1 -10,6 16,34 28,71 37,108 1,8 13,5 11,-3z"/>
  <path class="fil5" d="M713 5968c-6,-9 -11,-19 -17,-28 -4,-7 -14,-1 -10,6 5,9 11,19 17,28 4,7 14,1 10,-6z"/>
  <path class="fil26" d="M1050 5704c0,-8 -12,-8 -12,0 -1,130 9,271 -49,391 0,-3 -1,-6 -4,-7 -60,-19 -122,-44 -160,-95 6,-15 9,-32 10,-49 1,-26 -3,-52 -5,-78 -2,-27 -4,-54 -6,-81 0,-8 -12,-8 -12,0 4,47 8,94 10,141 1,19 0,37 -5,55 0,-1 -1,-1 -1,-1 -4,-6 -14,0 -10,6 2,3 3,5 5,8 -10,19 -25,36 -39,51 -6,6 3,14 8,9 14,-15 27,-30 38,-47 0,-1 1,-2 1,-2 40,50 102,76 163,94 2,1 4,0 6,-2 -5,9 -9,17 -14,25 -1,1 -1,2 -1,3 0,0 0,0 0,0 -11,21 -22,42 -33,62 -3,7 7,13 11,7 11,-21 22,-42 32,-63 1,-1 1,-2 1,-2 0,-1 0,-1 0,-1 77,-128 65,-281 66,-424z"/>
  <path class="fil26" d="M861 5644c-6,47 -21,118 -81,117 -8,0 -8,12 0,12 27,1 49,-15 65,-36 19,-25 24,-59 28,-90 1,-7 -11,-11 -12,-3z"/>
  <path class="fil26" d="M1152 5630c-49,-25 -106,-28 -159,-28 -59,-1 -118,7 -175,21 -7,2 -4,14 4,12 54,-14 110,-21 166,-21 53,-1 110,2 158,26 7,4 13,-7 6,-10z"/>
  <path class="fil26" d="M1190 5727c-18,-6 -34,-14 -44,-30 -10,-16 -9,-37 -10,-55 0,-8 -12,-8 -12,0 1,21 2,42 12,61 10,19 31,29 51,36 7,2 10,-9 3,-12z"/>
  <path class="fil26" d="M1200 6087c-51,-15 -110,-27 -165,-20 -7,1 -7,13 0,12 54,-7 111,4 162,20 8,2 11,-10 3,-12z"/>
  <path class="fil27" d="M468 6300c3,-5 7,-9 8,-15 1,-8 -4,-15 -10,-19 -17,-10 -60,-18 -66,7 -1,4 -4,8 -8,8 -4,0 -7,-4 -8,-8 -7,-16 -5,-32 -8,-49 -2,-17 -8,-33 -10,-51 0,-3 0,-7 2,-11 5,-11 22,-9 31,-17 2,-3 -1,-7 -4,-9 -33,-24 -82,-23 -115,2 -32,25 -45,72 -30,111 9,23 28,42 36,65 11,32 3,69 16,100 16,37 56,56 92,71 21,8 42,16 63,10 8,-2 15,-6 20,-12 7,-9 8,-22 7,-34 -1,-22 -5,-44 -11,-65 -9,-28 -21,-60 -5,-84z"/>
  <path class="fil16" d="M285 6136c-24,3 -46,18 -57,39 -12,21 -13,47 -4,69 9,20 27,36 36,56 10,22 10,46 15,69 12,55 57,100 108,123 25,11 86,24 102,-8 5,-10 4,-24 -2,-33 -1,-1 -1,-1 -2,-2 -1,0 -3,1 -4,1 -16,9 -35,9 -53,4 -32,-7 -81,-29 -98,-60 -14,-26 -11,-58 -24,-85 -10,-20 -28,-36 -34,-58 -9,-38 26,-77 17,-115z"/>
  <path class="fil16" d="M457 6316c-8,2 -16,5 -23,9 -14,-6 -30,-9 -46,-9 -8,0 -8,12 0,12 12,0 23,2 34,6 -11,9 -21,20 -30,31 -5,6 4,15 9,9 10,-13 21,-26 34,-35 6,3 13,7 18,11 7,5 13,-6 7,-10 -4,-3 -9,-6 -13,-8 4,-2 9,-4 13,-5 8,-1 5,-13 -3,-11z"/>
  <path class="fil16" d="M465 6365c-23,0 -44,6 -64,19 -6,4 0,14 6,10 18,-11 37,-17 58,-17 8,0 8,-12 0,-12z"/>
  <path class="fil16" d="M451 6293c-20,-4 -40,-6 -60,-5 -8,0 -8,12 0,12 19,-1 38,1 56,4 8,2 11,-10 4,-11z"/>
  <path class="fil16" d="M381 6159c-6,5 -8,14 -8,22 0,8 1,16 0,24 -8,-19 -27,-46 -16,-67 5,-9 16,-15 26,-14 4,0 7,1 11,2 6,2 13,4 19,5 4,2 9,3 13,6 2,1 4,3 5,6 1,3 0,6 -3,7 -3,2 -11,-1 -15,-1 -7,0 -14,1 -20,3 -4,2 -9,3 -12,7z"/>
  <path class="fil27" d="M932 6710c27,5 52,18 78,27 35,12 72,16 109,11 15,-2 31,-5 41,-16 18,-18 13,-50 -3,-70 -16,-20 -40,-31 -63,-43 -22,-13 -45,-28 -54,-52 -6,-16 -7,-36 -20,-45 -18,-13 -44,3 -50,23 -6,21 2,43 10,64 -16,-11 -15,-36 -29,-50 -18,-18 -45,-4 -67,-11 -19,-7 -38,-24 -57,-3 -11,11 -8,30 -14,45 -4,11 -13,20 -17,31 -4,14 0,30 10,42 15,20 44,34 68,39 19,4 39,4 58,8z"/>
  <path class="fil16" d="M841 6649c-6,-7 -12,-14 -20,-20 -4,-2 -9,-5 -13,-3 -28,10 -11,73 0,89 16,24 45,39 74,38 14,-1 27,-5 41,-5 43,-2 81,28 123,40 43,13 151,3 127,-68 -41,8 -78,20 -121,13 -24,-3 -48,-12 -71,-20 -30,-11 -60,-22 -89,-36 -14,-6 -29,-13 -42,-22 -3,-2 -6,-4 -9,-6z"/>
  <path class="fil16" d="M932 6579c4,2 7,5 12,5 7,-1 10,-10 7,-16 -4,-12 -19,-15 -31,-17 -9,-1 -17,-2 -25,-3 -5,-1 -11,-2 -14,-7 -4,-7 4,-15 7,-22 1,-2 2,-4 1,-6 -1,-3 -4,-4 -7,-4 -7,-1 -13,-1 -20,0 -8,1 -15,2 -22,6 -6,4 -12,11 -13,18 -1,14 13,26 26,29 14,3 29,1 43,3 13,1 25,6 36,14z"/>
  <path class="fil16" d="M1033 6560c-19,11 -35,27 -45,46 -3,7 7,13 11,6 9,-18 22,-32 40,-42 7,-4 0,-14 -6,-10z"/>
  <path class="fil16" d="M1089 6611c-1,1 -1,1 -1,1 0,-3 -1,-6 -5,-6 -10,-2 -21,-3 -31,-1 3,-4 5,-8 9,-12 5,-6 -4,-15 -9,-9 -6,8 -12,16 -16,25 -12,4 -24,11 -34,20 -5,6 3,14 9,9 6,-6 12,-11 20,-14 -3,8 -4,17 -5,25 0,8 12,8 12,0 1,-10 3,-21 7,-31 11,-3 23,-3 35,-1 1,0 2,0 2,0 -12,13 -20,28 -25,45 -2,8 10,11 12,4 5,-18 14,-34 28,-46 6,-5 -3,-14 -8,-9z"/>
  <path class="fil13" d="M5893 4563c0,-9 -14,-9 -14,0 8,157 18,313 32,469 1,10 15,10 14,0 -13,-156 -24,-312 -32,-469z"/>
  <path class="fil13" d="M6028 5168c-27,-186 -49,-374 -67,-562 -1,-9 -16,-9 -15,0 18,189 41,378 68,566 1,9 15,5 14,-4z"/>
  <path class="fil19" d="M3836 4511c-1,-9 -15,-5 -14,4 8,57 -28,116 -83,135 -4,1 -5,5 -5,9 32,212 50,426 56,641 0,9 14,9 14,0 -6,-214 -24,-427 -55,-638 59,-24 96,-88 87,-151z"/>
  <path class="fil19" d="M3774 5479c-86,210 -158,426 -217,645 -7,-5 -14,-11 -20,-17 -7,-5 -18,5 -10,11 8,7 17,14 26,21 -5,20 -11,40 -16,60 -2,9 12,13 14,4 5,-18 10,-36 14,-54 43,31 89,58 137,80 8,4 16,-8 7,-12 -49,-23 -96,-50 -140,-83 59,-222 132,-439 219,-651 4,-9 -10,-12 -14,-4z"/>
  <path class="fil2" d="M2616 3573c-13,68 -18,138 -14,207 0,10 15,10 14,0 -3,-68 1,-136 14,-203 1,-10 -12,-14 -14,-4z"/>
  <path class="fil2" d="M3072 3632c-10,-51 -23,-102 -34,-152 -2,-9 -16,-6 -14,3 11,50 23,99 33,148 5,25 8,51 6,77 -2,24 -9,47 -16,70 -15,46 -30,91 -39,139 -9,46 -13,94 -13,141 0,10 15,10 15,0 0,-49 4,-98 13,-146 10,-49 27,-95 41,-142 7,-22 12,-44 14,-67 1,-24 -2,-48 -6,-71z"/>
  <path class="fil5" d="M2376 3924c-17,46 -26,95 -25,144 0,9 14,9 14,0 0,-48 8,-95 25,-140 4,-9 -10,-13 -14,-4z"/>
  <path class="fil28" d="M7188 2913c-1,-2 -1,-3 1,-5l163 -147 1 0c1,-1 3,-1 4,1l9 15c1,2 0,3 -1,4l-136 119c-1,0 -1,0 -1,0 0,1 1,1 1,1l171 -60c1,0 3,0 4,2l8 15c1,2 1,3 -1,4l-210 68c-2,1 -3,0 -4,-2l-9 -15zm279 72c-2,1 -4,1 -5,-1l-36 -64c-1,-1 -1,-1 -2,0l-68 39c-1,0 -1,1 -1,2l23 40c1,2 1,3 -1,4l-12 7c-1,1 -3,1 -4,-1l-23 -40c0,-1 -1,-1 -2,-1l-68 40c-1,0 -1,1 -1,1l37 64c1,2 1,3 -1,4l-11 7c-2,1 -4,1 -5,-1l-47 -82c-1,-1 -1,-3 1,-4l187 -108c2,-1 3,0 4,1l47 82c1,2 1,3 -1,4l-11 7zm-159 136c-1,-2 -1,-3 1,-4l187 -108c2,-1 3,-1 4,1l9 15c0,1 0,3 -1,4l-106 135c-1,0 -1,1 -1,1 1,1 1,1 1,0l138 -79c2,-1 3,-1 5,1l7 14c2,2 1,3 -1,4l-186 108c-2,1 -4,0 -5,-1l-8 -15c-1,-1 -1,-3 0,-4l107 -135c0,-1 0,-1 0,-1 0,-1 -1,-1 -1,0l-137 79c-2,1 -4,1 -5,-1l-8 -14zm78 135c-1,-2 0,-3 1,-4l187 -108c2,-1 3,0 4,1l25 43c8,14 10,28 5,41 -4,14 -14,26 -30,35l-90 51c-15,9 -30,12 -44,9 -14,-3 -25,-11 -33,-25l-25 -43zm28 7c-1,0 -1,1 0,1l14 24c4,8 11,13 20,14 9,2 19,-1 30,-7l88 -51c11,-6 18,-13 22,-22 3,-8 2,-16 -2,-25l-14 -24c-1,-1 -1,-1 -2,0l-156 90zm46 121c-1,-2 -1,-3 1,-4l187 -108c1,-1 3,-1 4,1l8 14c1,2 1,3 -1,4l-187 108c-2,1 -3,1 -4,-1l-8 -14zm34 59c-1,-2 -1,-3 1,-4l187 -108c2,-1 3,-1 4,1l24 42c9,14 10,28 6,42 -4,14 -14,25 -30,34l-90 52c-15,9 -30,12 -44,9 -14,-3 -26,-12 -34,-26l-24 -42zm28 6c-1,1 -1,1 -1,2l14 24c5,8 12,13 21,14 9,1 19,-1 30,-7l88 -51c11,-6 18,-14 21,-22 4,-8 3,-17 -2,-25l-14 -24c0,-1 -1,-1 -1,-1l-156 90zm66 163c-8,-15 -10,-28 -6,-42 4,-14 13,-25 27,-33l101 -58c14,-9 28,-11 42,-7 14,3 25,12 33,26 8,14 10,28 7,42 -4,14 -13,25 -28,34l-100 58c-14,8 -28,10 -42,6 -14,-3 -25,-12 -34,-26zm17 -10c5,8 12,13 21,15 8,2 17,1 26,-4l102 -59c9,-6 15,-12 17,-21 3,-8 2,-17 -3,-25 -5,-8 -12,-13 -20,-15 -9,-2 -17,-1 -26,5l-103 59c-8,5 -14,12 -17,20 -2,8 -1,16 3,25z"/>
 </g>
</svg>
