<svg version="1.1" id="Layer_1" xmlns="http://www.w3.org/2000/svg" xmlns:xlink="http://www.w3.org/1999/xlink" x="0px" y="0px"
	 width="100%" viewBox="0 0 240 320" enable-background="new 0 0 240 320" xml:space="preserve">
<path fill="#003865" opacity="1" stroke="none" 
	d="
M201.503204,51.098625 
	C165.334152,72.021675 129.107529,92.845993 93.012093,113.895302 
	C56.308559,135.299240 40.043148,167.650421 42.433784,209.743317 
	C42.560074,211.966980 43.218029,214.160461 43.654732,216.509216 
	C44.566296,216.095230 44.951580,216.039062 45.126011,215.817169 
	C45.532795,215.299728 45.936596,214.740372 46.170216,214.132156 
	C52.455288,197.769531 64.286751,186.034470 78.121880,176.038116 
	C97.782639,161.832504 119.743340,151.651764 141.047775,140.325470 
	C159.776215,130.368683 177.906754,119.499641 192.915115,104.241913 
	C207.469223,89.446007 215.137314,71.722580 214.625778,50.754463 
	C214.497238,45.485489 213.209564,44.672176 208.625854,46.994331 
	C206.401794,48.121052 204.289673,49.468685 201.503204,51.098625 
M153.070633,197.545074 
	C154.292023,196.674911 155.539856,195.839371 156.730850,194.929443 
	C175.015350,180.959885 186.100906,163.382065 184.636887,139.455795 
	C184.210281,132.483994 182.408234,131.362335 176.454453,134.750549 
	C157.341629,145.627396 138.289261,156.611511 119.120117,167.388016 
	C107.490967,173.925674 95.861923,180.430267 85.515709,188.946381 
	C75.397110,197.275131 66.291855,206.413452 60.999836,218.753815 
	C51.022743,242.019180 68.088730,263.492310 82.943550,269.679932 
	C83.161125,267.773102 81.949310,266.540344 81.136627,265.172180 
	C73.603584,252.490372 75.328033,243.440262 87.039505,234.325119 
	C93.124687,229.588974 99.942268,226.068573 106.772667,222.591171 
	C122.202301,214.735794 138.219223,207.973648 153.070633,197.545074 
M92.416527,253.570328 
	C92.723030,259.130432 95.712784,263.230652 99.726532,266.693573 
	C104.312263,270.649963 109.627174,273.389923 115.223099,275.630188 
	C129.646469,281.404480 144.802475,283.476898 160.145966,283.426727 
	C167.031387,283.404205 174.206268,283.448212 182.262543,281.051880 
	C180.187973,280.357483 179.431274,280.040863 178.643600,279.856720 
	C177.677933,279.630951 176.685730,279.519623 175.706039,279.352661 
	C163.481049,277.269287 151.666275,273.843262 141.105728,267.204559 
	C130.370804,260.456299 123.639786,251.023193 123.223038,237.822174 
	C123.126335,234.759186 124.608643,231.588242 122.420685,227.945282 
	C115.323448,230.213715 108.906792,233.814835 102.783379,238.072495 
	C97.526123,241.727905 93.738068,246.366516 92.416527,253.570328 
z"/>
</svg>