<svg version="1.1" id="Layer_1" xmlns="http://www.w3.org/2000/svg" xmlns:xlink="http://www.w3.org/1999/xlink" x="0px" y="0px"
	 width="100%" viewBox="0 0 290 166" enable-background="new 0 0 290 166" xml:space="preserve">
<path fill="#FFF" opacity="1.000000" stroke="none" 
	d="
M268.766968,77.655174 
	C260.552094,90.262436 249.337708,96.237915 234.663071,93.920403 
	C221.934647,91.910240 213.359970,84.142387 209.027817,72.141754 
	C203.944733,58.060928 209.531418,42.611275 222.259460,34.138500 
	C234.331558,26.102379 250.598022,27.302971 261.537933,37.037556 
	C273.449982,47.637207 276.211182,62.645489 268.766968,77.655174 
M260.957733,68.079720 
	C261.096100,67.429710 261.241486,66.781113 261.371735,66.129478 
	C263.154785,57.207024 259.668243,48.632954 252.193207,43.552185 
	C244.970657,38.643040 235.003555,38.655315 227.791092,43.582245 
	C220.341660,48.671040 216.927094,57.231602 218.765518,66.210022 
	C220.664825,75.485748 227.993149,82.241226 237.189468,83.193817 
	C248.146103,84.328743 255.973587,79.566498 260.957733,68.079720 
z"/>
<path fill="#FFF" opacity="1.000000" stroke="none" 
	d="
M122.673676,92.913452 
	C101.463211,99.268326 83.438042,83.824493 84.612869,64.895142 
	C85.342537,53.138489 84.748337,41.299671 84.748337,29.212101 
	C88.484306,29.212101 91.911911,29.212101 96.015259,29.212101 
	C96.015259,32.849297 96.014183,36.611328 96.015472,40.373356 
	C96.018570,49.371037 95.883598,58.371529 96.065025,67.365623 
	C96.252861,76.678085 103.505234,83.396957 112.990448,83.385658 
	C122.348320,83.374512 129.812210,76.465149 130.042969,67.394958 
	C130.194611,61.434486 130.071640,55.467026 130.071640,49.233742 
	C133.882324,49.233742 137.314072,49.233742 141.485168,49.233742 
	C140.903931,61.996944 144.778336,75.640930 133.404495,86.030067 
	C130.397980,88.776299 126.530540,90.580017 122.673676,92.913452 
z"/>
<path fill="#FFF" opacity="1.000000" stroke="none" 
	d="
M33.954250,64.976624 
	C39.903557,53.073223 45.715740,41.516815 52.047516,28.927292 
	C63.091381,50.991081 73.728416,72.242081 84.824959,94.411118 
	C80.716492,94.411118 77.281731,94.707817 73.950676,94.250023 
	C72.786354,94.090004 71.585297,92.220673 70.898247,90.877579 
	C65.450890,80.228745 60.129848,69.515350 54.751797,58.830952 
	C54.024460,57.385963 53.195930,55.991920 51.987957,53.801170 
	C48.922089,59.810417 46.157413,65.197243 43.422161,70.598961 
	C40.270004,76.824005 36.833614,82.930710 34.116135,89.341232 
	C32.323738,93.569473 29.801991,95.169525 25.402910,94.499931 
	C23.666260,94.235596 21.855742,94.456581 19.194498,94.456581 
	C24.342047,84.201012 29.079588,74.762314 33.954250,64.976624 
z"/>
<path fill="#FFF" opacity="1.000000" stroke="none" 
	d="
M175.718323,39.928371 
	C166.303345,39.928127 157.353180,39.928127 148.172501,39.928127 
	C148.172501,36.215755 148.172501,32.937122 148.172501,29.488415 
	C159.621704,29.488415 171.265915,28.614525 182.703766,29.774799 
	C191.300980,30.646914 196.766922,37.269287 198.669525,45.700180 
	C200.655624,54.501003 198.024536,62.168663 190.843185,67.971291 
	C189.441101,69.104187 187.894821,70.058647 186.173004,71.264984 
	C191.507919,78.815483 196.744217,86.226425 202.046265,93.730415 
	C192.565216,95.836006 191.396255,95.396469 186.259079,87.898560 
	C180.459167,79.433350 174.669708,70.960983 168.353989,61.729122 
	C171.397476,61.729122 173.647949,61.755836 175.897614,61.724239 
	C183.385513,61.619076 188.167557,57.419662 188.241943,50.909813 
	C188.316940,44.347729 183.818619,40.251389 175.718323,39.928371 
z"/>
<path fill="#FFF" opacity="1.000000" stroke="none" 
	d="
M147.950653,121.997971 
	C147.950623,116.210472 147.950623,110.922195 147.950623,105.123474 
	C154.544403,105.123474 160.692627,104.668266 166.741531,105.248535 
	C173.084686,105.857018 176.202881,112.275032 174.057465,118.397736 
	C173.484406,120.033165 173.423676,122.217735 174.012054,123.826828 
	C176.622116,130.964676 172.720230,137.047623 165.048965,137.215286 
	C160.056610,137.324387 155.059311,137.220230 150.064468,137.181915 
	C149.592178,137.178299 149.121552,136.962021 147.950684,136.670090 
	C147.950684,132.032761 147.950684,127.264984 147.950653,121.997971 
M153.158844,117.149399 
	C155.874390,119.268265 165.606049,119.761620 167.789627,117.634293 
	C168.724625,116.723389 169.798355,114.639374 169.380249,113.927094 
	C168.491577,112.413216 166.774353,110.626663 165.204956,110.421898 
	C161.374649,109.922134 157.435196,110.258934 153.103119,110.258934 
	C153.103119,112.706230 153.103119,114.487617 153.158844,117.149399 
M155.800690,124.003029 
	C150.680252,125.231209 154.019577,128.851990 153.125259,131.989197 
	C157.443939,131.989197 161.262787,132.363373 164.943161,131.812424 
	C166.503143,131.578903 167.772385,129.403076 169.173752,128.110016 
	C167.673645,126.742493 166.370895,124.661484 164.626022,124.178886 
	C162.164215,123.498001 159.375244,123.999939 155.800690,124.003029 
z"/>
<path fill="#FFF" opacity="1.000000" stroke="none" 
	d="
M147.936584,65.002350 
	C147.936584,59.532604 147.936584,54.562172 147.936584,49.276871 
	C151.554016,49.276871 154.939972,49.276871 158.609833,49.276871 
	C158.609833,64.186432 158.609833,79.054016 158.609833,94.191620 
	C155.188538,94.191620 151.919968,94.191620 147.936600,94.191620 
	C147.936600,84.621002 147.936600,75.061325 147.936584,65.002350 
z"/>
<path fill="#FFF" opacity="1.000000" stroke="none" 
	d="
M178.408936,133.433960 
	C183.051392,124.066315 187.508392,115.025024 192.453522,104.993553 
	C197.970261,116.205147 202.992584,126.411949 208.173325,136.940735 
	C204.417679,138.453857 202.268921,137.614639 200.722687,134.285461 
	C198.213348,128.882675 195.451370,123.597229 192.351990,117.370094 
	C189.408524,123.421776 186.696396,128.684326 184.282867,134.080444 
	C182.891876,137.190430 180.949112,138.443954 177.122040,137.205139 
	C177.494919,136.038956 177.859207,134.899658 178.408936,133.433960 
z"/>
<path fill="#FFF" opacity="1.000000" stroke="none" 
	d="
M257.379395,128.610535 
	C254.605331,126.467552 252.082687,124.575302 249.217407,122.426056 
	C255.607361,115.987251 260.419769,110.699341 265.767670,106.023857 
	C267.317963,104.668488 270.402771,105.068275 272.784119,104.663460 
	C273.164917,105.177650 273.545715,105.691841 273.926483,106.206032 
	C268.351196,110.714813 262.775879,115.223595 256.432281,120.353706 
	C263.320923,126.524704 268.487518,131.153061 273.654144,135.781418 
	C273.213593,136.564682 272.773071,137.347931 272.332550,138.131180 
	C269.675507,137.271622 266.706360,136.893356 264.443542,135.425873 
	C261.846008,133.741348 259.874329,131.091690 257.379395,128.610535 
z"/>
<path fill="#FFF" opacity="1.000000" stroke="none" 
	d="
M233.000977,112.065598 
	C233.000977,109.622612 233.000977,107.657234 233.000977,105.377312 
	C234.792816,105.377312 236.172623,105.377312 237.889862,105.377312 
	C237.889862,115.520317 237.889862,125.535645 237.889862,136.977036 
	C232.203659,131.788971 227.020660,127.536400 222.522263,122.653183 
	C221.242783,121.264236 221.955170,118.040421 221.640579,114.312546 
	C225.858932,117.932014 229.047806,120.668167 233.000961,124.060089 
	C233.000961,119.656952 233.000961,116.100082 233.000977,112.065598 
z"/>
<path fill="#FFF" opacity="1.000000" stroke="none" 
	d="
M243.065521,125.978317 
	C243.065582,118.889153 243.065582,112.295303 243.065582,105.294525 
	C245.043716,105.187920 246.601791,105.103951 248.851120,104.982727 
	C248.851120,115.265732 248.994675,125.153519 248.661194,135.025192 
	C248.621536,136.198959 245.977554,137.284729 244.540787,138.411301 
	C244.049011,138.023636 243.557236,137.635971 243.065460,137.248322 
	C243.065460,133.656754 243.065460,130.065186 243.065521,125.978317 
z"/>
<path fill="#FFF" opacity="1.000000" stroke="none" 
	d="
M211.840210,106.431198 
	C215.742294,107.514427 217.195328,109.916122 217.064865,113.835579 
	C216.810791,121.468781 216.990433,129.116425 216.990433,136.935318 
	C213.863556,137.983047 211.169357,138.714325 211.207550,134.037003 
	C211.282104,124.905411 211.405228,115.774223 211.840210,106.431198 
z"/>
<path fill="#FFF" opacity="1.000000" stroke="none" 
	d="
M141.602081,34.909973 
	C141.502533,36.797863 141.403107,38.236820 141.304657,39.661736 
	C137.433350,39.661736 133.999268,39.661736 130.314529,39.661736 
	C130.314529,36.169277 130.314529,32.909843 130.314529,29.271276 
	C133.812210,29.271276 137.369400,29.271276 141.602203,29.271276 
	C141.602203,30.933355 141.602203,32.697193 141.602081,34.909973 
z"/>
</svg>