<svg version="1.1" id="Layer_1" xmlns="http://www.w3.org/2000/svg" xmlns:xlink="http://www.w3.org/1999/xlink" x="0px" y="0px"
	 width="100%" viewBox="0 0 1772 290" enable-background="new 0 0 1772 290" xml:space="preserve">

<path fill="#41b6e6" opacity="1.000000" stroke="none" 
	d="
M895.921021,230.000000 
	C895.945312,167.204834 895.969299,104.909676 896.004700,42.614517 
	C896.004883,42.298809 896.166870,41.983181 896.423523,41.044949 
	C897.964905,40.962120 899.711548,40.787033 901.458252,40.786358 
	C938.436218,40.772064 975.420532,41.198887 1012.390259,40.647602 
	C1042.804321,40.194073 1071.451416,62.925083 1075.669189,95.216736 
	C1078.006958,113.113869 1073.761353,129.608109 1061.951416,143.733505 
	C1060.776611,145.138611 1059.590698,146.534836 1058.438843,147.958527 
	C1058.245361,148.197662 1058.199951,148.556641 1058.539429,147.651154 
	C1063.458984,156.235886 1069.171143,163.643860 1072.252808,172.019623 
	C1086.336304,210.298203 1061.861206,250.758667 1021.549255,256.760956 
	C1019.419739,257.078033 1017.229492,257.071228 1015.067383,257.072662 
	C976.756897,257.097809 938.446350,257.102661 900.135864,257.099762 
	C898.989746,257.099670 897.843628,256.968262 895.921082,256.850555 
	C895.921082,248.010040 895.921082,239.255020 895.921021,230.000000 
M954.500000,76.929802 
	C947.078125,76.929802 939.656250,76.929802 932.245972,76.929802 
	C932.245972,95.333221 932.245972,112.919868 932.245972,130.768616 
	C933.991699,130.855011 935.456970,130.990021 936.922363,130.990753 
	C962.252747,131.003296 987.583252,131.035934 1012.913574,130.985245 
	C1028.141235,130.954788 1040.130127,118.814804 1040.081421,103.627075 
	C1040.033203,88.584381 1028.332764,76.998169 1012.993286,76.949059 
	C993.829041,76.887695 974.664429,76.931381 954.500000,76.929802 
M961.500000,220.993362 
	C978.645996,220.992020 995.800354,221.287399 1012.932617,220.802536 
	C1017.860840,220.663055 1023.224426,219.159149 1027.519165,216.738586 
	C1037.637207,211.036057 1042.360474,198.142700 1039.255249,187.401871 
	C1035.738770,175.239365 1025.554321,167.091354 1013.305969,167.043365 
	C987.504089,166.942261 961.701660,167.003220 935.899414,167.025879 
	C934.644043,167.026993 933.388916,167.297668 932.286621,167.425156 
	C932.286621,185.438065 932.286621,203.006409 932.286621,220.993362 
	C941.918579,220.993362 951.209290,220.993362 961.500000,220.993362 
z"/>
<path fill="#003865" opacity="1.000000" stroke="none" 
	d="
M666.092224,202.904846 
	C642.970215,165.062515 647.846680,112.490425 677.037659,79.115242 
	C693.459778,60.339149 713.191467,46.871498 737.852539,42.481651 
	C780.879700,34.822498 817.038513,47.943089 844.440308,82.074829 
	C876.392090,121.874039 876.047180,175.087357 844.685547,215.368195 
	C801.528442,270.799164 718.049500,270.865295 674.886292,215.463333 
	C671.823364,211.531891 669.129578,207.312820 666.092224,202.904846 
M817.990723,106.556023 
	C798.606079,80.716576 767.047852,70.298813 737.276794,79.911301 
	C707.887146,89.400658 688.269165,116.321442 687.817383,147.782120 
	C687.152710,194.067245 728.183350,228.405975 773.449646,219.448196 
	C824.788574,209.288712 848.356201,150.423828 817.990723,106.556023 
z"/>
<path fill="#003865" opacity="1.000000" stroke="none" 
	d="
M246.308746,92.999893 
	C246.308777,75.354332 246.308777,58.208775 246.308777,40.652992 
	C258.795197,40.652992 271.008362,40.652992 283.946198,40.652992 
	C283.946198,42.296684 283.946198,44.048832 283.946198,45.800980 
	C283.946259,85.452423 284.464142,125.112877 283.774628,164.752319 
	C283.267395,193.913391 305.143494,215.527695 328.705963,219.799255 
	C356.470032,224.832504 384.240051,209.828552 393.419800,184.020615 
	C395.655609,177.734772 396.451019,170.691788 396.622070,163.964218 
	C397.058105,146.815216 396.767487,129.647766 396.767639,112.487686 
	C396.767670,110.679314 396.767639,108.870941 396.767639,106.844315 
	C409.297180,106.844315 421.411896,106.844315 433.785675,106.844315 
	C433.903076,107.705055 434.101715,108.481277 434.101257,109.257385 
	C434.089508,129.415924 434.135559,149.574936 434.012268,169.732895 
	C433.732025,215.553055 394.381836,250.883469 354.773010,255.918930 
	C321.128265,260.196198 292.270020,250.851532 269.020203,225.615829 
	C253.089508,208.324402 246.295380,187.674454 246.306473,164.473282 
	C246.317795,140.815491 246.308807,117.157692 246.308746,92.999893 
z"/>
<path fill="#003865" opacity="1.000000" stroke="none" 
	d="
M41.055763,257.001312 
	C37.284851,257.001312 34.003654,257.001312 29.994221,257.001312 
	C66.228943,184.696838 102.167427,112.983505 138.576263,40.331619 
	C174.790237,112.744720 210.663513,184.476547 246.930832,256.996307 
	C233.473633,256.996307 220.895294,257.110107 208.326096,256.823029 
	C207.047394,256.793793 205.418304,254.558899 204.633652,253.003571 
	C183.447220,211.008377 162.350723,168.967789 141.234741,126.937042 
	C140.429321,125.333878 139.580856,123.752319 138.527130,121.727760 
	C125.204338,148.168564 112.120728,174.134064 99.037712,200.099884 
	C90.062584,217.912766 81.026550,235.695511 72.181595,253.572815 
	C70.888420,256.186584 69.435486,257.140656 66.533371,257.071320 
	C58.208267,256.872437 49.875332,257.001312 41.055763,257.001312 
z"/>
<path fill="#41b6e6" opacity="1.000000" stroke="none" 
	d="
M1115.970947,198.985840 
	C1141.822998,146.196976 1167.529663,93.751282 1193.721558,40.315674 
	C1229.230835,112.772011 1264.332520,184.396484 1299.751587,256.668854 
	C1297.478638,256.866302 1296.073486,257.089539 1294.667603,257.094177 
	C1285.171509,257.125580 1275.666870,256.876709 1266.182983,257.217041 
	C1261.931885,257.369598 1259.773682,256.072815 1257.867310,252.157593 
	C1237.683594,210.706253 1217.273315,169.365204 1196.917358,127.997742 
	C1196.120850,126.379059 1195.243042,124.800446 1193.929932,122.303566 
	C1192.698120,124.593163 1191.764526,126.211433 1190.937622,127.882576 
	C1170.416626,169.356262 1149.849609,210.807419 1129.493164,252.361710 
	C1127.655640,256.112732 1125.524780,257.300354 1121.503174,257.202576 
	C1110.528809,256.935822 1099.543823,257.110779 1087.498779,257.110779 
	C1097.164062,237.395203 1106.494873,218.362106 1115.970947,198.985840 
z"/>
<path fill="#003865" opacity="1.000000" stroke="none" 
	d="
M571.347473,219.683197 
	C555.107849,195.977341 539.085754,172.558075 522.775085,148.717087 
	C532.958740,148.717087 542.386414,148.763306 551.813538,148.707581 
	C572.071716,148.587814 588.484497,133.180222 588.978027,113.877724 
	C589.508362,93.133492 573.684692,76.872437 552.331970,76.736229 
	C522.179688,76.543900 492.025330,76.684639 461.871857,76.683014 
	C459.895691,76.682907 457.919556,76.683006 455.570251,76.683006 
	C455.570251,64.478706 455.570251,52.622040 455.570251,40.465111 
	C457.175262,40.382915 458.632141,40.243797 460.089050,40.243206 
	C490.409119,40.230907 520.730286,40.398216 551.049011,40.193890 
	C590.553345,39.927662 614.113403,66.153984 621.881531,90.746246 
	C632.480347,124.299858 616.903076,161.018600 585.468201,177.149292 
	C584.140137,177.830780 582.799316,178.487183 580.889282,179.443130 
	C599.136597,205.098648 617.285889,230.616425 636.052856,257.002533 
	C628.061829,257.002533 620.723328,256.103729 613.695435,257.198517 
	C600.927185,259.187439 592.995667,254.405121 587.161255,243.143707 
	C582.906006,234.930267 576.829590,227.660324 571.347473,219.683197 
z"/>
<path fill="#41b6e6" opacity="1.000000" stroke="none" 
	d="
M1424.886719,133.130157 
	C1438.114990,144.958694 1451.076538,156.554840 1465.069336,169.073532 
	C1465.069336,125.629082 1465.069336,83.593071 1465.069336,41.165333 
	C1477.223145,41.165333 1488.785278,41.165333 1500.780762,41.165333 
	C1500.780762,112.565208 1500.780762,183.964706 1500.780762,255.847870 
	C1499.778931,255.285309 1498.750732,254.927429 1498.003174,254.256790 
	C1462.416870,222.333405 1426.844238,190.394547 1391.339233,158.380737 
	C1390.246948,157.395935 1389.286865,155.604477 1389.275757,154.181152 
	C1389.144165,137.349319 1389.201660,120.515976 1389.236694,103.683090 
	C1389.237549,103.253998 1389.548828,102.825584 1390.004150,101.653580 
	C1401.750488,112.255859 1413.185181,122.576805 1424.886719,133.130157 
z"/>
<path fill="#41b6e6" opacity="1.000000" stroke="none" 
	d="
M1658.591797,121.591782 
	C1649.504883,130.655807 1640.668213,139.470016 1631.932373,148.183701 
	C1667.853394,184.093964 1703.512451,219.742218 1740.110596,256.329315 
	C1737.489136,256.706787 1736.474487,256.978180 1735.459351,256.980194 
	C1721.130493,257.008514 1706.800293,257.097229 1692.474365,256.892334 
	C1690.413696,256.862885 1687.843506,255.911942 1686.402100,254.485245 
	C1651.824585,220.260437 1617.367310,185.914032 1582.900024,151.577911 
	C1582.100098,150.780914 1581.433472,149.850021 1580.130981,148.298111 
	C1585.005249,143.565308 1589.800049,139.002258 1594.493774,134.337402 
	C1624.863281,104.154434 1655.241211,73.979622 1685.512085,43.697975 
	C1688.079102,41.130165 1690.609863,40.025021 1694.252197,40.073368 
	C1708.900024,40.267799 1723.551880,40.153847 1739.013428,41.177719 
	C1712.289551,67.899139 1685.565796,94.620552 1658.591797,121.591782 
z"/>
<path fill="#41b6e6" opacity="1.000000" stroke="none" 
	d="
M1533.822510,122.999985 
	C1533.822266,95.542564 1533.822266,68.585144 1533.822266,41.200974 
	C1545.893677,41.200974 1557.571899,41.200974 1569.553833,41.200974 
	C1569.553833,113.101463 1569.553833,184.788910 1569.553833,256.794006 
	C1557.725830,256.794006 1546.158691,256.794006 1533.822632,256.794006 
	C1533.822632,212.284576 1533.822632,167.892288 1533.822510,122.999985 
z"/>
<path fill="#41b6e6" opacity="1.000000" stroke="none" 
	d="
M1357.118164,129.000000 
	C1357.118286,171.757187 1357.118286,214.014374 1357.118286,256.579163 
	C1344.990967,256.579163 1333.418091,256.579163 1321.468750,256.579163 
	C1321.468750,184.816254 1321.468750,113.170082 1321.468750,40.605717 
	C1324.687500,43.324600 1327.451904,45.555706 1330.100830,47.916649 
	C1337.930054,54.894993 1345.638916,62.010693 1353.557251,68.885651 
	C1356.165405,71.150169 1357.231934,73.538429 1357.196655,77.036148 
	C1357.023071,94.189278 1357.118042,111.345116 1357.118164,129.000000 
z"/>
<path fill="#003865" opacity="1.000000" stroke="none" 
	d="
M455.197021,154.999939 
	C455.197052,138.718323 455.197052,122.936714 455.197052,106.890030 
	C467.350555,106.890030 479.095215,106.890030 491.038208,106.890030 
	C491.038208,156.866684 491.038208,206.616562 491.038208,256.683624 
	C479.303497,256.683624 467.565704,256.683624 455.197021,256.683624 
	C455.197021,222.970642 455.197021,189.235291 455.197021,154.999939 
z"/>
<path fill="#003865" opacity="1.000000" stroke="none" 
	d="
M415.000549,40.235558 
	C421.458130,40.235577 427.416199,40.235577 433.743958,40.235577 
	C433.743958,52.211811 433.743958,63.897884 433.743958,75.933495 
	C421.678223,75.933495 409.507996,75.933495 397.047302,75.933495 
	C397.047302,64.191277 397.047302,52.492878 397.047302,40.235538 
	C402.962555,40.235538 408.731812,40.235538 415.000549,40.235558 
z"/>
</svg>