<?xml version="1.0" encoding="UTF-8"?>
<!DOCTYPE svg PUBLIC "-//W3C//DTD SVG 1.1//EN" "http://www.w3.org/Graphics/SVG/1.1/DTD/svg11.dtd">
<!-- Creator: CorelDRAW Home & Student X8 -->
<svg xmlns="http://www.w3.org/2000/svg" xml:space="preserve" width="24.0054mm" height="25.6878mm" version="1.1" style="shape-rendering:geometricPrecision; text-rendering:geometricPrecision; image-rendering:optimizeQuality; fill-rule:evenodd; clip-rule:evenodd"
viewBox="0 0 440 471"
 xmlns:xlink="http://www.w3.org/1999/xlink">
 <defs>
  <style type="text/css">
   <![CDATA[
    .fil0 {fill:white}
   ]]>
  </style>
 </defs>
 <g id="Camada_x0020_1">
  <metadata id="CorelCorpID_0Corel-Layer"/>
  <g id="_584172640">
   <path class="fil0" d="M338 415c4,4 10,10 15,15l29 29c3,3 5,5 9,7 3,2 7,3 10,5l13 0c5,-3 29,-9 26,-36 -1,-10 -6,-16 -11,-21l-46 -46c-10,-7 -12,-5 -24,-7 -5,-1 -10,-10 -17,-15 2,-7 40,-56 5,-118l-9 -14c-11,-10 -16,-18 -31,-26 -24,-14 -26,-10 -44,-15 8,-1 16,0 24,0 8,0 15,-4 11,-12 -3,-6 -14,-4 -21,-4l-119 0c-9,0 -42,-2 -46,3 -5,6 0,12 8,13 8,0 16,0 24,0 16,0 32,0 48,0 15,0 33,-1 47,0 -15,5 -25,3 -46,16 -12,9 -24,19 -31,31 -9,0 -18,0 -27,0 -8,0 -20,-2 -24,3 -2,4 -1,8 2,10 3,3 7,2 11,2 9,0 19,0 28,1 -6,15 -10,26 -10,46 -10,2 -32,-4 -32,9 1,10 16,7 33,7 2,10 3,17 7,25 4,11 9,17 11,22 -13,0 -27,0 -40,0 -7,0 -12,2 -10,10 1,6 6,6 13,6 14,0 27,0 40,0 11,0 10,0 16,5 30,24 67,34 107,21 12,-4 17,-9 27,-14 2,1 15,13 16,17 3,20 -3,4 8,25zm-97 -226c-48,6 -89,48 -83,104 5,48 49,89 104,83 48,-5 90,-49 83,-105 -6,-47 -49,-89 -104,-82zm-4 9c-42,7 -79,47 -71,99 7,42 48,79 100,71 42,-7 79,-48 71,-99 -7,-43 -48,-80 -100,-71zm3 15c-39,7 -65,44 -58,81 6,35 39,65 81,58 35,-5 65,-39 58,-81 -5,-35 -39,-66 -81,-58zm87 150l10 10c1,-2 3,-4 5,-5l-10 -11c-3,4 -4,3 -5,6zm30 15c-10,3 -15,15 -8,25l39 39c5,5 13,16 25,12 9,-3 15,-15 8,-24 -2,-4 -32,-33 -39,-40 -5,-5 -12,-16 -25,-12z"/>
   <path class="fil0" d="M330 432c-2,-11 -12,-8 -33,-8l-200 0c-27,0 -54,1 -81,0l0 -314 314 0c1,10 0,50 0,65 0,8 0,13 8,14 11,-1 8,-14 8,-24 0,-16 1,-94 -1,-98 -2,-4 -59,-59 -67,-67l-272 0c-3,2 -5,2 -5,7l-1 85c0,45 -1,336 1,342 2,7 10,5 18,5 8,0 16,0 25,0l269 0c9,0 15,2 17,-7zm-47 -394l0 8 0 16 13 1 8 0 10 0 1 0 3 0 -35 -36 0 11zm-267 56c26,1 53,0 78,0 34,0 230,1 236,-1l0 -14c-12,-2 -54,3 -60,-3 -5,-4 -3,-21 -3,-28 0,-11 0,-22 0,-32l-251 0 0 78z"/>
   <path class="fil0" d="M101 63c-7,2 -8,10 -4,14 5,3 56,1 63,1 11,1 82,2 86,0 6,-2 7,-10 3,-14 -5,-3 -56,-1 -63,-1 -10,0 -81,-1 -85,0z"/>
   <path class="fil0" d="M54 330c-8,2 -7,9 -7,17 1,6 0,18 1,23 1,8 9,7 17,7 30,0 30,2 30,-17 0,-6 0,-20 -1,-24 -1,-8 -10,-6 -17,-6 -5,0 -19,-1 -23,0zm9 31l16 0 0 -16 -16 0 0 16z"/>
   <path class="fil0" d="M52 205c-6,2 -4,10 -4,18 0,28 -3,28 18,28 29,0 29,3 29,-18 0,-5 0,-20 -1,-24 -2,-7 -11,-5 -18,-5 -6,0 -20,-1 -24,1zm11 30l16 0 0 -3 0 -8 0 -4 -16 0 0 15z"/>
   <path class="fil0" d="M52 142c-6,4 -5,11 -5,19 1,28 -3,27 20,27 4,0 20,1 23,0 6,-3 5,-12 5,-19 0,-29 2,-28 -20,-28 -5,0 -19,-1 -23,1zm11 30l16 1c1,-19 1,-17 -15,-16l-1 15z"/>
   <path class="fil0" d="M53 267c-7,3 -5,9 -6,18 0,30 -2,29 19,29 29,0 29,3 29,-19 0,-4 0,-20 -1,-23 -3,-7 -11,-5 -18,-5 -5,0 -19,-1 -23,0zm10 31c4,1 12,1 16,0l0 -15 -16 0 0 15z"/>
   <path class="fil0" d="M239 305c-2,-2 -21,-21 -24,-22 -7,-2 -13,4 -10,11 1,2 20,20 24,23 4,4 7,10 15,8 4,-1 34,-48 38,-55 2,-3 8,-11 9,-14 0,-8 -8,-11 -14,-7l-19 28c-4,7 -15,25 -19,28z"/>
   <path class="fil0" d="M131 32c-8,4 -6,14 3,15 8,1 79,0 82,-1 7,-3 6,-14 -3,-15l-82 1z"/>
  </g>
 </g>
</svg>
