<?xml version="1.0" encoding="UTF-8"?>
<!DOCTYPE svg PUBLIC "-//W3C//DTD SVG 1.1//EN" "http://www.w3.org/Graphics/SVG/1.1/DTD/svg11.dtd">
<!-- Creator: CorelDRAW Home & Student X8 -->
<svg xmlns="http://www.w3.org/2000/svg" xml:space="preserve" width="24.0054mm" height="25.6878mm" version="1.1" style="shape-rendering:geometricPrecision; text-rendering:geometricPrecision; image-rendering:optimizeQuality; fill-rule:evenodd; clip-rule:evenodd"
viewBox="0 0 383 409"
 xmlns:xlink="http://www.w3.org/1999/xlink">
 <defs>
  <style type="text/css">
   <![CDATA[
    .fil0 {fill:#003865}
   ]]>
  </style>
 </defs>
 <g id="Camada_x0020_1">
  <metadata id="CorelCorpID_0Corel-Layer"/>
  <g id="_702253168">
   <path class="fil0" d="M294 361c4,3 9,8 13,12l25 26c3,3 4,4 8,6 2,2 6,3 9,4l11 0c5,-2 25,-7 22,-31 0,-8 -5,-13 -9,-18l-40 -40c-8,-6 -10,-5 -21,-6 -5,-1 -9,-9 -14,-13 1,-6 34,-48 3,-103l-7 -12c-9,-8 -14,-15 -27,-23 -21,-11 -23,-8 -38,-13 7,0 14,0 21,0 6,0 12,-3 9,-10 -3,-5 -12,-4 -18,-4l-104 0c-8,0 -36,-2 -40,3 -4,5 0,11 7,11 7,0 14,0 21,0 14,0 28,0 42,0 13,0 28,-1 41,0 -13,5 -22,3 -40,15 -11,7 -21,16 -27,26 -8,0 -16,0 -24,0 -6,0 -17,-2 -20,3 -2,3 -1,7 1,9 3,2 6,2 10,2 8,0 16,-1 24,0 -5,14 -8,23 -9,40 -8,2 -27,-4 -27,8 0,9 14,6 28,6 2,9 3,15 6,22 4,9 8,15 10,19 -12,0 -23,0 -35,0 -6,0 -10,2 -9,9 1,5 6,5 12,5 12,0 23,0 35,0 9,0 8,-1 13,4 27,21 59,29 93,18 11,-3 16,-7 24,-12 2,1 13,12 14,15 3,18 -3,4 7,22zm-84 -197c-43,6 -78,42 -73,91 5,42 43,77 91,72 42,-5 78,-43 72,-91 -5,-41 -43,-78 -90,-72zm-4 8c-37,6 -69,41 -61,86 6,37 41,69 86,62 37,-6 69,-42 62,-86 -7,-38 -41,-70 -87,-62zm2 13c-34,6 -56,38 -50,71 5,30 34,56 71,50 30,-5 56,-34 50,-70 -5,-30 -34,-57 -71,-51zm76 131l9 8c1,-1 3,-3 4,-4l-9 -9c-2,3 -2,2 -4,5zm27 12c-9,3 -14,14 -8,22l34 34c5,5 11,15 22,11 8,-3 13,-13 7,-22 -2,-3 -28,-28 -33,-34 -5,-4 -11,-14 -22,-11z"/>
   <path class="fil0" d="M287 375c-2,-9 -10,-7 -28,-7l-175 0c-23,0 -47,1 -70,0l0 -272 273 0c1,8 0,43 0,56 0,7 0,11 7,12 9,-1 7,-12 7,-21 0,-13 1,-81 -1,-85 -2,-3 -51,-51 -58,-58l-237 0c-3,2 -4,2 -4,6l-1 74c0,39 -1,292 1,297 1,6 8,5 15,5 7,0 15,0 22,0l234 0c8,0 14,1 15,-7zm-41 -342l0 7 0 14 11 1 7 0 9 0 1 0 3 -1 -31 -30 0 9zm-232 49c22,1 46,0 68,0 29,0 200,1 205,-1l0 -12c-10,-2 -47,2 -52,-3 -4,-3 -3,-18 -3,-24 0,-10 1,-19 0,-28l-218 0 0 68z"/>
   <path class="fil0" d="M88 55c-6,1 -7,9 -3,12 3,2 48,1 54,1 10,0 71,1 75,0 5,-2 6,-9 2,-12 -3,-3 -48,-1 -54,-1 -9,0 -71,-1 -74,0z"/>
   <path class="fil0" d="M47 287c-7,1 -6,8 -6,14 0,6 0,17 0,21 2,7 9,5 15,6 27,0 26,2 26,-15 0,-5 1,-17 0,-21 -2,-7 -9,-6 -15,-5 -5,0 -17,-1 -20,0zm8 26l14 1 0 -14 -14 0 0 13z"/>
   <path class="fil0" d="M46 178c-6,2 -5,9 -5,15 0,25 -2,25 16,25 25,0 25,3 25,-16 0,-4 1,-17 0,-20 -2,-6 -10,-5 -16,-5 -5,0 -17,0 -20,1zm9 26l14 1 0 -4 0 -6 0 -4 -14 0 0 13z"/>
   <path class="fil0" d="M45 124c-5,3 -4,9 -4,16 0,24 -2,24 17,24 4,0 17,0 20,-1 6,-2 4,-10 4,-16 0,-25 2,-24 -17,-24 -5,0 -17,-1 -20,1zm10 26l14 0c0,-16 1,-14 -14,-13l0 13z"/>
   <path class="fil0" d="M46 233c-6,2 -5,7 -5,15 0,26 -2,25 16,25 26,0 25,2 25,-16 0,-4 1,-18 0,-21 -3,-5 -10,-4 -16,-4 -5,0 -17,-1 -20,1zm9 26c4,1 10,1 14,0l0 -13 -14 0 0 13z"/>
   <path class="fil0" d="M208 265c-2,-2 -19,-18 -21,-19 -6,-2 -11,3 -9,9 1,3 18,18 21,20 4,4 7,10 13,8 4,-2 30,-42 34,-48 1,-3 6,-10 7,-13 0,-6 -7,-9 -12,-5l-16 24c-4,6 -13,21 -17,24z"/>
   <path class="fil0" d="M114 28c-7,3 -5,12 2,13 7,1 70,0 72,-1 6,-3 5,-12 -3,-13l-71 1z"/>
  </g>
 </g>
</svg>
