<?xml version="1.0" encoding="UTF-8"?>
<!DOCTYPE svg PUBLIC "-//W3C//DTD SVG 1.1//EN" "http://www.w3.org/Graphics/SVG/1.1/DTD/svg11.dtd">
<!-- Creator: CorelDRAW Home & Student X8 -->
<svg xmlns="http://www.w3.org/2000/svg" xml:space="preserve" width="24.0054mm" height="25.6878mm" version="1.1" style="shape-rendering:geometricPrecision; text-rendering:geometricPrecision; image-rendering:optimizeQuality; fill-rule:evenodd; clip-rule:evenodd"
viewBox="0 0 1240 1327"
 xmlns:xlink="http://www.w3.org/1999/xlink">
 <defs>
  <style type="text/css">
   <![CDATA[
    .fil0 {fill:black}
   ]]>
  </style>
 </defs>
 <g id="Camada_x0020_1">
  <metadata id="CorelCorpID_0Corel-Layer"/>
  <g id="_688184936">
   <path class="fil0" d="M952 1170c13,10 29,28 42,41l84 84c7,7 13,12 23,19 9,5 21,8 31,13l35 0c15,-8 80,-23 73,-101 -3,-27 -16,-44 -30,-58l-131 -130c-26,-21 -33,-15 -67,-21 -15,-3 -28,-28 -47,-41 4,-20 112,-157 12,-334l-24 -38c-30,-28 -44,-51 -88,-75 -66,-37 -74,-26 -122,-41 22,-2 45,-1 67,-1 22,0 41,-11 29,-34 -8,-15 -37,-11 -58,-11l-337 0c-25,0 -116,-6 -128,8 -14,17 -1,36 22,37 22,0 46,0 67,0 45,0 90,-1 135,0 43,0 93,-3 135,1 -42,14 -71,7 -130,46 -36,23 -68,52 -89,85 -26,0 -51,0 -77,0 -20,0 -56,-5 -65,11 -6,10 -3,22 4,28 8,7 21,6 33,6 25,-1 53,-1 78,0 -18,45 -28,76 -30,131 -26,5 -89,-13 -88,24 1,31 46,21 91,22 6,27 10,46 20,71 12,29 26,48 31,61 -37,0 -75,0 -113,0 -18,0 -32,6 -28,27 3,19 19,18 39,18 37,-1 74,0 111,0 31,-1 28,-2 45,13 85,69 191,96 301,59 34,-12 50,-24 77,-38 5,3 43,36 45,47 10,58 -9,13 22,71zm-272 -637c-137,17 -252,135 -235,293 15,136 139,251 295,234 135,-15 251,-139 233,-295 -16,-133 -138,-252 -293,-232zm-11 24c-119,20 -224,134 -200,279 20,120 134,225 281,200 118,-19 224,-133 199,-278 -20,-122 -133,-225 -280,-201zm6 43c-109,20 -181,123 -162,229 17,98 109,183 229,164 97,-16 182,-110 164,-228 -16,-99 -111,-186 -231,-165zm247 424l27 28c5,-6 10,-11 15,-16l-29 -29c-8,11 -9,8 -13,17zm85 41c-28,8 -44,44 -23,71l109 110c15,14 36,46 72,34 24,-8 42,-41 23,-69 -8,-11 -92,-93 -110,-110 -15,-16 -35,-47 -71,-36z"/>
   <path class="fil0" d="M931 1216c-8,-30 -34,-21 -93,-21l-565 0c-75,-1 -153,2 -227,-1l-1 -884 885 0c3,29 0,140 0,183 0,22 -1,36 22,40 31,-4 23,-40 23,-69 0,-44 3,-264 -3,-276 -6,-11 -166,-167 -188,-188l-768 0c-8,6 -12,6 -14,19l-1 240c0,127 -3,947 1,964 5,20 29,16 51,16 23,0 47,0 70,0l759 0c26,0 44,4 49,-23zm-133 -1110l0 24 0 46 35 1 23 0 29 0 3 0 9 -1 -99 -99 0 29zm-753 159c72,3 148,0 220,0 96,1 650,4 665,-2l0 -41c-33,-5 -152,9 -169,-7 -13,-11 -8,-61 -8,-80 0,-30 1,-61 0,-91l-708 0 0 221z"/>
   <path class="fil0" d="M284 178c-20,5 -23,29 -9,38 11,9 157,5 177,5 31,0 230,3 243,-1 15,-6 19,-29 6,-38 -12,-9 -156,-5 -176,-5 -29,0 -230,-2 -241,1z"/>
   <path class="fil0" d="M152 930c-23,5 -18,25 -18,47 0,17 -2,53 0,67 4,22 28,18 48,18 86,0 85,7 85,-48 0,-15 1,-56 -1,-68 -5,-21 -29,-17 -50,-17 -14,0 -53,-2 -64,1zm26 86l44 2 0 -45 -44 1 0 42z"/>
   <path class="fil0" d="M148 577c-19,7 -14,28 -14,50 0,81 -8,81 51,81 82,0 82,8 82,-52 0,-14 1,-57 -2,-67 -6,-18 -31,-14 -51,-14 -15,0 -55,-2 -66,2zm30 86l44 1 0 -11 0 -20 0 -13 -44 0 0 43z"/>
   <path class="fil0" d="M146 401c-17,10 -12,30 -12,53 0,78 -9,77 54,77 13,0 56,2 65,-2 18,-6 14,-33 14,-52 0,-83 6,-79 -56,-79 -15,0 -54,-3 -65,3zm32 85l44 0c3,-51 4,-46 -43,-43l-1 43z"/>
   <path class="fil0" d="M149 754c-20,8 -15,25 -15,50 -1,83 -7,81 51,81 83,0 82,8 82,-53 0,-13 1,-57 -2,-66 -7,-18 -32,-14 -51,-14 -15,0 -54,-2 -65,2zm29 86c12,2 33,3 44,-1l0 -41 -44 -2 0 44z"/>
   <path class="fil0" d="M675 860c-7,-7 -61,-60 -69,-62 -19,-6 -36,10 -28,30 4,8 57,56 67,65 13,12 22,30 42,24 12,-4 96,-136 109,-156 6,-9 23,-31 23,-41 2,-21 -22,-30 -37,-17l-53 79c-12,18 -43,68 -54,78z"/>
   <path class="fil0" d="M370 91c-24,11 -18,39 7,42 22,2 225,0 231,-3 19,-9 17,-39 -8,-41l-230 2z"/>
  </g>
 </g>
</svg>
