<?xml version="1.0" encoding="UTF-8"?>
<!DOCTYPE svg PUBLIC "-//W3C//DTD SVG 1.1//EN" "http://www.w3.org/Graphics/SVG/1.1/DTD/svg11.dtd">
<!-- Creator: CorelDRAW Home & Student X8 -->
<svg xmlns="http://www.w3.org/2000/svg" xml:space="preserve" width="24.0054mm" height="25.6878mm" version="1.1" style="shape-rendering:geometricPrecision; text-rendering:geometricPrecision; image-rendering:optimizeQuality; fill-rule:evenodd; clip-rule:evenodd"
viewBox="0 0 999 1069"
 xmlns:xlink="http://www.w3.org/1999/xlink">
 <defs>
  <style type="text/css">
   <![CDATA[
    .fil0 {fill:#41B6E6}
   ]]>
  </style>
 </defs>
 <g id="Camada_x0020_1">
  <metadata id="CorelCorpID_0Corel-Layer"/>
  <g id="_561065728">
   <path class="fil0" d="M767 942c11,9 24,23 34,33l68 68c5,6 10,10 18,15 7,5 17,7 25,11l28 0c12,-7 65,-19 59,-81 -2,-22 -13,-36 -24,-47l-106 -105c-21,-17 -26,-12 -54,-17 -12,-2 -22,-22 -38,-33 4,-15 91,-126 10,-269l-20 -31c-24,-22 -35,-40 -70,-60 -54,-30 -60,-21 -99,-33 18,-2 37,-1 55,-1 17,0 32,-9 23,-27 -7,-12 -30,-8 -47,-9l-271 0c-21,0 -94,-5 -103,6 -12,14 -1,30 17,30 18,1 37,0 55,0 36,0 72,0 108,0 35,0 75,-2 109,1 -34,11 -57,6 -105,37 -29,19 -55,43 -72,69 -20,0 -41,0 -61,0 -17,0 -46,-4 -53,8 -5,9 -2,18 3,23 7,6 17,5 27,5 20,0 42,-1 62,0 -14,36 -22,61 -23,106 -21,3 -72,-11 -71,19 0,25 36,16 73,17 5,22 8,38 16,58 9,23 21,38 25,49 -30,0 -60,0 -91,0 -15,0 -26,5 -23,22 3,15 16,14 32,14 30,0 60,0 90,0 24,0 21,-1 36,11 68,55 153,77 242,47 27,-9 41,-19 62,-30 4,2 34,29 36,38 8,46 -7,10 18,56zm-219 -513c-111,14 -203,110 -189,237 11,109 112,202 237,188 109,-12 203,-112 188,-237 -13,-108 -112,-203 -236,-188zm-9 20c-96,16 -181,108 -161,225 16,96 108,180 226,161 95,-16 180,-108 161,-225 -17,-97 -108,-181 -226,-161zm5 35c-88,15 -146,99 -131,184 14,79 88,147 185,132 78,-13 147,-88 132,-184 -13,-79 -89,-149 -186,-132zm198 341l23 22c4,-4 8,-8 12,-12l-24 -23c-6,8 -7,6 -11,13zm70 33c-23,6 -36,35 -20,57l89 89c11,11 29,37 57,27 20,-6 35,-33 19,-55 -6,-9 -74,-75 -88,-89 -12,-13 -28,-38 -57,-29z"/>
   <path class="fil0" d="M750 980c-6,-25 -28,-18 -75,-18l-455 0c-60,0 -123,2 -183,0l0 -712 712 -1c2,24 1,114 0,148 0,18 0,30 18,32 25,-3 18,-31 18,-55 0,-35 3,-213 -2,-222 -5,-9 -133,-135 -151,-152l-619 0c-7,5 -10,5 -12,15l0 194c0,102 -3,762 1,776 4,17 23,13 41,13 18,0 37,0 56,0l612 0c20,0 35,3 39,-18zm-107 -894l0 18 0 38 28 1 19 0 23 0 2 0 8 -1 -80 -80 0 24zm-606 128c57,2 119,0 177,0 77,0 523,3 536,-2l-1 -33c-26,-5 -122,7 -136,-6 -11,-9 -6,-49 -6,-64 0,-25 0,-49 0,-73l-570 0 0 178z"/>
   <path class="fil0" d="M229 143c-16,4 -18,24 -8,31 10,7 127,4 143,4 25,0 185,3 196,-1 12,-4 15,-23 5,-31 -10,-7 -126,-3 -142,-3 -24,-1 -185,-2 -194,0z"/>
   <path class="fil0" d="M122 749c-18,5 -14,21 -14,38 0,14 -2,43 0,54 4,18 23,14 39,15 69,0 68,6 68,-39 0,-12 1,-45 -1,-54 -4,-17 -23,-15 -40,-14 -12,0 -43,-2 -52,0zm21 70l36 1 0 -36 -35 1 -1 34z"/>
   <path class="fil0" d="M119 465c-15,5 -11,23 -11,40 0,66 -7,66 41,65 66,0 66,7 66,-42 0,-10 1,-45 -2,-53 -4,-15 -25,-12 -41,-12 -12,0 -44,-1 -53,2zm25 69l35 1 0 -9 0 -16 0 -11 -36 0 1 35z"/>
   <path class="fil0" d="M118 323c-14,8 -10,24 -10,43 0,63 -7,61 43,62 11,0 46,1 53,-2 14,-5 11,-26 11,-42 0,-66 5,-63 -45,-63 -12,0 -44,-3 -52,2zm25 69l36 0c2,-42 3,-37 -35,-35l-1 35z"/>
   <path class="fil0" d="M120 607c-16,7 -12,21 -12,40 -1,68 -5,66 41,66 67,0 66,6 66,-43 0,-10 1,-46 -2,-53 -5,-14 -25,-11 -41,-11 -12,0 -43,-2 -52,1zm23 69c10,2 27,3 36,0l0 -33 -35 -1 -1 34z"/>
   <path class="fil0" d="M544 693c-6,-6 -50,-48 -56,-50 -15,-5 -29,8 -22,24 3,6 46,45 54,53 10,9 17,24 33,19 11,-4 78,-110 88,-126 5,-7 19,-25 19,-33 1,-17 -18,-24 -30,-13l-43 63c-9,14 -34,55 -43,63z"/>
   <path class="fil0" d="M298 73c-19,9 -14,32 6,34 18,2 181,0 186,-2 15,-7 13,-31 -7,-34l-185 2z"/>
  </g>
 </g>
</svg>
