<?xml version="1.0" encoding="UTF-8"?>
<!DOCTYPE svg PUBLIC "-//W3C//DTD SVG 1.1//EN" "http://www.w3.org/Graphics/SVG/1.1/DTD/svg11.dtd">
<!-- Creator: CorelDRAW Home & Student X8 -->
<svg xmlns="http://www.w3.org/2000/svg" xml:space="preserve" width="30.5872mm" height="32.6263mm" version="1.1" style="shape-rendering:geometricPrecision; text-rendering:geometricPrecision; image-rendering:optimizeQuality; fill-rule:evenodd; clip-rule:evenodd"
viewBox="0 0 740 790"
 xmlns:xlink="http://www.w3.org/1999/xlink">
 <defs>
  <style type="text/css">
   <![CDATA[
    .fil0 {fill:white}
   ]]>
  </style>
 </defs>
 <g id="Camada_x0020_1">
  <metadata id="CorelCorpID_0Corel-Layer"/>
  <g id="smartphone.svg">
   <g>
    <g>
     <path class="fil0" d="M386 123c-9,0 -16,7 -16,16 0,8 7,15 16,15 8,0 15,-7 15,-15 0,-9 -7,-16 -15,-16z"/>
    </g>
   </g>
   <g>
    <g>
     <path class="fil0" d="M231 697l-30 0c-9,0 -16,7 -16,16 0,8 7,15 16,15l30 0c9,0 16,-7 16,-15 0,-9 -7,-16 -16,-16z"/>
    </g>
   </g>
   <g>
    <g>
     <path class="fil0" d="M495 230c-8,0 -15,-7 -15,-15 0,-9 7,-16 15,-16 6,0 11,3 17,9 6,5 16,5 22,-1 6,-6 5,-16 -1,-22 -8,-7 -15,-12 -22,-14l0 -18c0,-8 -7,-15 -16,-15 -8,0 -15,7 -15,15l0 18c-18,7 -31,24 -31,44 0,25 21,46 46,46 9,0 16,7 16,16 0,8 -7,15 -16,15 -6,0 -14,-4 -20,-12 -5,-6 -15,-7 -22,-2 -6,6 -7,16 -1,22 8,10 17,17 28,20l0 18c0,9 7,16 15,16 9,0 16,-7 16,-16l0 -18c18,-6 30,-23 30,-43 0,-26 -20,-47 -46,-47z"/>
    </g>
   </g>
   <g>
    <g>
     <path class="fil0" d="M494 0c-61,0 -118,22 -164,62l-284 0c-25,0 -46,20 -46,46l0 636c0,25 21,46 46,46l340 0c25,0 46,-21 46,-46l0 -258c20,5 41,8 62,8 136,0 246,-111 246,-247 0,-136 -110,-247 -246,-247zm-463 108c0,-9 7,-15 15,-15l255 0c-15,18 -27,39 -36,61l-234 0 0 -46zm370 636c0,8 -7,15 -15,15l-340 0c-8,0 -15,-7 -15,-15l0 -78 370 0 0 78zm0 -108l-370 0 0 -451 224 0c-6,20 -8,41 -8,62 0,45 12,89 35,128l-34 98c-2,5 -1,11 3,16 4,4 10,6 15,4l111 -29c8,4 16,8 24,12l0 160zm93 -173c-38,0 -75,-10 -108,-29 -3,-2 -7,-2 -11,-1l-89 23 28 -78c2,-5 1,-10 -2,-14 -22,-35 -34,-75 -34,-117 0,-120 97,-216 216,-216 119,0 216,97 216,216 0,119 -97,216 -216,216z"/>
    </g>
   </g>
   <g>
    <g>
     <path class="fil0" d="M494 77c-22,0 -43,4 -63,12 -8,3 -12,12 -9,20 3,8 12,12 20,9 17,-7 34,-10 52,-10 76,0 138,62 138,139 0,79 -63,139 -138,139 -77,0 -139,-63 -139,-139 0,-21 5,-40 10,-52 3,-7 -1,-16 -9,-20 -7,-3 -17,1 -20,8 -7,19 -12,42 -12,64 0,93 76,170 170,170 16,0 34,-3 50,-8l0 0c71,-22 119,-88 119,-162 0,-94 -76,-170 -169,-170z"/>
    </g>
   </g>
   <g>
   </g>
   <g>
   </g>
   <g>
   </g>
   <g>
   </g>
   <g>
   </g>
   <g>
   </g>
   <g>
   </g>
   <g>
   </g>
   <g>
   </g>
   <g>
   </g>
   <g>
   </g>
   <g>
   </g>
   <g>
   </g>
   <g>
   </g>
   <g>
   </g>
  </g>
 </g>
</svg>
