<?xml version="1.0" encoding="UTF-8"?>
<!DOCTYPE svg PUBLIC "-//W3C//DTD SVG 1.1//EN" "http://www.w3.org/Graphics/SVG/1.1/DTD/svg11.dtd">
<!-- Creator: CorelDRAW Home & Student X8 -->
<svg xmlns="http://www.w3.org/2000/svg" xml:space="preserve" width="30.5872mm" height="32.6263mm" version="1.1" style="shape-rendering:geometricPrecision; text-rendering:geometricPrecision; image-rendering:optimizeQuality; fill-rule:evenodd; clip-rule:evenodd"
viewBox="0 0 603 643"
 xmlns:xlink="http://www.w3.org/1999/xlink">
 <defs>
  <style type="text/css">
   <![CDATA[
    .fil0 {fill:#003865}
   ]]>
  </style>
 </defs>
 <g id="Camada_x0020_1">
  <metadata id="CorelCorpID_0Corel-Layer"/>
  <g id="smartphone.svg">
   <g>
    <g>
     <path class="fil0" d="M314 100c-7,0 -13,6 -13,13 0,7 6,13 13,13 7,0 12,-6 12,-13 0,-7 -5,-13 -12,-13z"/>
    </g>
   </g>
   <g>
    <g>
     <path class="fil0" d="M188 567l-25 0c-7,0 -12,6 -12,13 0,7 5,13 12,13l25 0c7,0 13,-6 13,-13 0,-7 -6,-13 -13,-13z"/>
    </g>
   </g>
   <g>
    <g>
     <path class="fil0" d="M403 187c-7,0 -13,-5 -13,-12 0,-7 6,-13 13,-13 4,0 9,3 14,7 5,5 13,5 17,0 5,-5 5,-13 0,-18 -6,-6 -13,-10 -18,-12l0 -14c0,-7 -6,-13 -13,-13 -7,0 -13,6 -13,13l0 14c-14,6 -25,20 -25,36 0,21 17,38 38,38 7,0 13,5 13,12 0,7 -6,13 -13,13 -5,0 -11,-4 -16,-10 -5,-5 -13,-6 -18,-1 -5,4 -6,12 -1,17 6,8 14,14 22,17l0 14c0,7 6,13 13,13 7,0 13,-6 13,-13l0 -14c14,-6 25,-20 25,-36 0,-21 -17,-38 -38,-38z"/>
    </g>
   </g>
   <g>
    <g>
     <path class="fil0" d="M402 0c-49,0 -96,18 -133,50l-231 0c-21,0 -38,17 -38,38l0 517c0,21 17,38 38,38l276 0c21,0 38,-17 38,-38l0 -210c16,5 33,7 50,7 111,0 201,-90 201,-201 0,-111 -90,-201 -201,-201zm-377 88c0,-7 6,-13 13,-13l207 0c-12,16 -22,33 -29,51l-191 0 0 -38zm301 517c0,7 -5,13 -12,13l-276 0c-7,0 -13,-6 -13,-13l0 -63 301 0 0 63zm0 -88l-301 0 0 -366 182 0c-4,16 -6,33 -6,50 0,37 10,73 29,104l-28 80c-2,4 -1,9 2,13 3,3 8,5 13,3l90 -23c6,3 13,6 19,9l0 130zm76 -140c-31,0 -61,-8 -88,-24 -2,-1 -6,-2 -9,-1l-72 19 23 -63c1,-4 0,-8 -2,-11 -18,-29 -28,-62 -28,-96 0,-98 79,-176 176,-176 97,0 176,79 176,176 0,97 -79,176 -176,176z"/>
    </g>
   </g>
   <g>
    <g>
     <path class="fil0" d="M402 63c-18,0 -35,3 -52,10 -6,2 -9,9 -7,16 3,6 10,10 17,7 13,-5 27,-8 42,-8 62,0 113,51 113,113 0,64 -52,113 -113,113 -63,0 -113,-51 -113,-113 0,-17 4,-33 8,-42 2,-6 -1,-14 -7,-16 -6,-3 -14,0 -16,6 -7,15 -10,34 -10,52 0,76 62,138 138,138 13,0 27,-2 41,-6l0 0c58,-18 97,-72 97,-132 0,-76 -62,-138 -138,-138z"/>
    </g>
   </g>
   <g>
   </g>
   <g>
   </g>
   <g>
   </g>
   <g>
   </g>
   <g>
   </g>
   <g>
   </g>
   <g>
   </g>
   <g>
   </g>
   <g>
   </g>
   <g>
   </g>
   <g>
   </g>
   <g>
   </g>
   <g>
   </g>
   <g>
   </g>
   <g>
   </g>
  </g>
 </g>
</svg>
