<?xml version="1.0" encoding="UTF-8"?>
<!DOCTYPE svg PUBLIC "-//W3C//DTD SVG 1.1//EN" "http://www.w3.org/Graphics/SVG/1.1/DTD/svg11.dtd">
<!-- Creator: CorelDRAW Home & Student X8 -->
<svg xmlns="http://www.w3.org/2000/svg" xml:space="preserve" width="30.5872mm" height="32.6263mm" version="1.1" style="shape-rendering:geometricPrecision; text-rendering:geometricPrecision; image-rendering:optimizeQuality; fill-rule:evenodd; clip-rule:evenodd"
viewBox="0 0 2236 2385"
 xmlns:xlink="http://www.w3.org/1999/xlink">
 <defs>
  <style type="text/css">
   <![CDATA[
    .fil0 {fill:black}
   ]]>
  </style>
 </defs>
 <g id="Camada_x0020_1">
  <metadata id="CorelCorpID_0Corel-Layer"/>
  <g id="smartphone.svg">
   <g>
    <g>
     <path class="fil0" d="M1164 373c-25,0 -46,20 -46,46 0,26 21,47 46,47 26,0 47,-21 47,-47 0,-25 -21,-46 -47,-46z"/>
    </g>
   </g>
   <g>
    <g>
     <path class="fil0" d="M699 2105l-93 0c-26,0 -47,21 -47,47 0,26 21,46 47,46l93 0c25,0 46,-20 46,-46 0,-26 -21,-47 -46,-47z"/>
    </g>
   </g>
   <g>
    <g>
     <path class="fil0" d="M1495 695c-26,0 -46,-21 -46,-46 0,-26 20,-47 46,-47 17,0 34,9 51,25 18,17 47,17 65,-2 18,-18 18,-48 -1,-65 -23,-23 -47,-36 -68,-43l0 -55c0,-25 -21,-46 -47,-46 -26,0 -46,21 -46,46l0 55c-55,19 -94,71 -94,132 0,77 63,140 140,140 26,0 47,20 47,46 0,26 -21,47 -47,47 -20,0 -41,-13 -60,-36 -17,-19 -46,-22 -66,-5 -20,16 -22,46 -6,65 25,30 55,51 86,61l0 54c0,26 20,47 46,47 26,0 47,-21 47,-47l0 -54c54,-19 93,-71 93,-132 0,-77 -63,-140 -140,-140z"/>
    </g>
   </g>
   <g>
    <g>
     <path class="fil0" d="M1490 0c-182,0 -356,66 -492,186l-858 0c-77,0 -140,63 -140,140l0 1919c0,77 63,140 140,140l1024 0c77,0 140,-63 140,-140l0 -778c61,16 123,23 186,23 411,0 746,-334 746,-745 0,-411 -335,-745 -746,-745zm-1397 326c0,-26 21,-47 47,-47l769 0c-45,57 -82,120 -109,187l-707 0 0 -140zm1118 1919c0,26 -21,47 -47,47l-1024 0c-26,0 -47,-21 -47,-47l0 -233 1118 0 0 233zm0 -326l-1118 0 0 -1361 676 0c-16,61 -24,124 -24,187 0,137 37,270 108,386l-105 297c-6,17 -2,35 10,47 11,13 29,18 46,14l333 -87c24,12 49,24 74,34l0 483zm279 -522c-115,0 -225,-30 -323,-86 -11,-6 -24,-7 -35,-4l-267 70 83 -236c5,-13 3,-29 -5,-41 -68,-105 -105,-228 -105,-355 0,-362 294,-652 652,-652 360,0 653,293 653,652 0,360 -293,652 -653,652z"/>
    </g>
   </g>
   <g>
    <g>
     <path class="fil0" d="M1490 233c-65,0 -129,12 -190,36 -24,10 -36,37 -26,61 9,24 37,36 60,26 50,-20 103,-30 156,-30 232,0 420,188 420,419 0,238 -193,419 -420,419 -231,0 -419,-188 -419,-419 0,-62 16,-121 30,-155 10,-24 -1,-51 -25,-61 -24,-10 -51,1 -61,25 -23,55 -37,126 -37,191 0,283 230,513 512,513 51,0 103,-8 153,-23l0 0c214,-67 360,-265 360,-490 0,-282 -230,-512 -513,-512z"/>
    </g>
   </g>
   <g>
   </g>
   <g>
   </g>
   <g>
   </g>
   <g>
   </g>
   <g>
   </g>
   <g>
   </g>
   <g>
   </g>
   <g>
   </g>
   <g>
   </g>
   <g>
   </g>
   <g>
   </g>
   <g>
   </g>
   <g>
   </g>
   <g>
   </g>
   <g>
   </g>
  </g>
 </g>
</svg>
