<?xml version="1.0" encoding="UTF-8"?>
<!DOCTYPE svg PUBLIC "-//W3C//DTD SVG 1.1//EN" "http://www.w3.org/Graphics/SVG/1.1/DTD/svg11.dtd">
<!-- Creator: CorelDRAW Home & Student X8 -->
<svg xmlns="http://www.w3.org/2000/svg" xml:space="preserve" width="30.5872mm" height="32.6263mm" version="1.1" style="shape-rendering:geometricPrecision; text-rendering:geometricPrecision; image-rendering:optimizeQuality; fill-rule:evenodd; clip-rule:evenodd"
viewBox="0 0 1502 1603"
 xmlns:xlink="http://www.w3.org/1999/xlink">
 <defs>
  <style type="text/css">
   <![CDATA[
    .fil0 {fill:#41B6E6}
   ]]>
  </style>
 </defs>
 <g id="Camada_x0020_1">
  <metadata id="CorelCorpID_0Corel-Layer"/>
  <g id="smartphone.svg">
   <g>
    <g>
     <path class="fil0" d="M783 250c-18,0 -32,14 -32,32 0,17 14,31 32,31 17,0 31,-14 31,-31 0,-18 -14,-32 -31,-32z"/>
    </g>
   </g>
   <g>
    <g>
     <path class="fil0" d="M470 1415l-63 0c-17,0 -31,14 -31,31 0,17 14,31 31,31l63 0c17,0 31,-14 31,-31 0,-17 -14,-31 -31,-31z"/>
    </g>
   </g>
   <g>
    <g>
     <path class="fil0" d="M1005 467c-18,0 -32,-14 -32,-31 0,-17 14,-31 32,-31 11,0 23,5 34,16 12,12 32,12 44,-1 12,-12 12,-32 -1,-44 -16,-15 -32,-24 -46,-29l0 -36c0,-18 -14,-32 -31,-32 -18,0 -32,14 -32,32l0 36c-36,13 -62,48 -62,89 0,52 42,94 94,94 17,0 31,14 31,31 0,17 -14,31 -31,31 -14,0 -28,-8 -41,-23 -11,-13 -31,-15 -44,-4 -13,11 -15,31 -4,44 17,20 37,34 57,41l0 36c0,18 14,32 32,32 17,0 31,-14 31,-32l0 -36c36,-13 63,-48 63,-89 0,-52 -42,-94 -94,-94z"/>
    </g>
   </g>
   <g>
    <g>
     <path class="fil0" d="M1002 0c-123,0 -240,44 -332,125l-576 0c-52,0 -94,42 -94,94l0 1290c0,51 42,94 94,94l689 0c51,0 93,-43 93,-94l0 -523c41,10 83,16 126,16 276,0 500,-225 500,-501 0,-276 -224,-501 -500,-501zm-939 219c0,-17 14,-31 31,-31l517 0c-31,38 -55,80 -74,125l-474 0 0 -94zm751 1290c0,17 -14,31 -31,31l-689 0c-17,0 -31,-14 -31,-31l0 -157 751 0 0 157zm0 -219l-751 0 0 -915 454 0c-11,41 -16,83 -16,126 0,92 25,181 72,259l-70 200c-4,11 -2,23 6,32 8,8 20,11 31,9l224 -59c16,8 33,16 50,23l0 325zm188 -351c-78,0 -152,-20 -218,-58 -7,-4 -16,-5 -24,-3l-179 47 56 -158c3,-9 2,-19 -3,-28 -46,-71 -71,-153 -71,-238 0,-244 198,-438 439,-438 241,0 438,196 438,438 0,241 -197,438 -438,438z"/>
    </g>
   </g>
   <g>
    <g>
     <path class="fil0" d="M1002 157c-44,0 -87,8 -128,24 -16,6 -24,25 -18,41 7,16 25,24 41,17 33,-13 69,-20 105,-20 155,0 281,126 281,282 0,160 -129,282 -281,282 -156,0 -282,-127 -282,-282 0,-42 10,-82 20,-104 7,-16 -1,-35 -17,-41 -16,-7 -34,0 -41,16 -15,37 -25,85 -25,129 0,190 155,344 345,344 33,0 69,-5 102,-15l0 0c144,-45 242,-178 242,-329 0,-190 -155,-344 -344,-344z"/>
    </g>
   </g>
   <g>
   </g>
   <g>
   </g>
   <g>
   </g>
   <g>
   </g>
   <g>
   </g>
   <g>
   </g>
   <g>
   </g>
   <g>
   </g>
   <g>
   </g>
   <g>
   </g>
   <g>
   </g>
   <g>
   </g>
   <g>
   </g>
   <g>
   </g>
   <g>
   </g>
  </g>
 </g>
</svg>
