<?xml version="1.0" encoding="UTF-8"?>
<!DOCTYPE svg PUBLIC "-//W3C//DTD SVG 1.1//EN" "http://www.w3.org/Graphics/SVG/1.1/DTD/svg11.dtd">
<!-- Creator: CorelDRAW Home & Student X8 -->
<svg xmlns="http://www.w3.org/2000/svg" xml:space="preserve" width="22.5566mm" height="29.5983mm" version="1.1" style="shape-rendering:geometricPrecision; text-rendering:geometricPrecision; image-rendering:optimizeQuality; fill-rule:evenodd; clip-rule:evenodd"
viewBox="0 0 865 1135"
 xmlns:xlink="http://www.w3.org/1999/xlink">
 <defs>
  <style type="text/css">
   <![CDATA[
    .fil0 {fill:#41B6E6}
   ]]>
  </style>
 </defs>
 <g id="Camada_x0020_1">
  <metadata id="CorelCorpID_0Corel-Layer"/>
  <path class="fil0" d="M1 26c0,130 -4,871 3,936 14,5 71,0 77,7 8,8 -4,59 8,76 11,12 45,5 77,7 0,23 -3,59 4,77 6,2 13,4 22,4l-4 0c78,0 645,6 672,-4 2,-6 4,-13 4,-22 0,-126 4,-875 -3,-936 -21,-8 -53,-2 -79,-5 -3,-23 5,-56 -5,-75 -14,-12 -54,-6 -78,-7 0,-24 3,-62 -4,-80 -6,-2 -12,-4 -21,-4l-647 0c-22,0 -26,4 -26,26zm198 1074l632 0c0,-52 4,-873 -2,-900l-628 0c-7,26 -2,850 -2,900zm-82 -83l48 2c5,-83 1,-323 1,-423 0,-58 -4,-398 3,-425 27,-10 503,-4 577,-4 5,-14 2,-34 2,-50l-631 0 0 900zm-83 -84l50 1c0,-94 -5,-819 4,-846 39,-10 488,0 578,-4l0 -51 -632 0 0 900z"/>
  <rect class="fil0" x="295" y="333" width="455.617" height="39.3363"/>
  <rect class="fil0" x="295" y="428" width="455.617" height="39.3363"/>
  <rect class="fil0" x="295" y="523" width="455.617" height="39.3363"/>
  <rect class="fil0" x="295" y="618" width="455.617" height="39.3363"/>
  <rect class="fil0" x="295" y="714" width="455.617" height="39.3363"/>
  <rect class="fil0" x="295" y="809" width="455.617" height="39.3363"/>
  <rect class="fil0" x="295" y="904" width="455.617" height="39.3363"/>
 </g>
</svg>
