<?xml version="1.0" encoding="UTF-8"?>
<!DOCTYPE svg PUBLIC "-//W3C//DTD SVG 1.1//EN" "http://www.w3.org/Graphics/SVG/1.1/DTD/svg11.dtd">
<!-- Creator: CorelDRAW Home & Student X8 -->
<svg xmlns="http://www.w3.org/2000/svg" xml:space="preserve" width="22.5566mm" height="29.5983mm" version="1.1" style="shape-rendering:geometricPrecision; text-rendering:geometricPrecision; image-rendering:optimizeQuality; fill-rule:evenodd; clip-rule:evenodd"
viewBox="0 0 1123 1474"
 xmlns:xlink="http://www.w3.org/1999/xlink">
 <defs>
  <style type="text/css">
   <![CDATA[
    .fil0 {fill:black}
    .fil1 {fill:black}
   ]]>
  </style>
 </defs>
 <g id="Camada_x0020_1">
  <metadata id="CorelCorpID_0Corel-Layer"/>
  <path class="fil0" d="M2 34c0,168 -6,1131 3,1216 18,6 92,0 101,8 10,10 -5,77 10,99 14,16 58,6 99,10 0,30 -3,76 5,100 8,3 17,5 29,5l-5 0c102,0 837,8 873,-6 3,-8 5,-16 5,-28 0,-164 5,-1137 -4,-1216 -28,-11 -69,-3 -102,-6 -4,-30 6,-73 -7,-97 -18,-17 -70,-8 -101,-10 0,-30 4,-80 -5,-104 -8,-3 -16,-5 -28,-5l-840 0c-29,0 -33,5 -33,34zm256 1395l821 0c0,-68 6,-1134 -2,-1170l-816 0c-9,35 -3,1105 -3,1170zm-106 -108l63 2c6,-107 0,-419 0,-549 0,-76 -5,-517 4,-552 36,-13 654,-5 749,-5 7,-19 4,-44 4,-64l-820 0 0 1168zm-108 -109l65 1c0,-122 -7,-1064 6,-1099 50,-13 633,0 751,-5l0 -66 -822 0 0 1169z"/>
  <rect class="fil1" x="383" y="433" width="591.756" height="51.0901"/>
  <rect class="fil1" x="383" y="556" width="591.756" height="51.0901"/>
  <rect class="fil1" x="383" y="680" width="591.756" height="51.0901"/>
  <rect class="fil1" x="383" y="803" width="591.756" height="51.0901"/>
  <rect class="fil1" x="383" y="927" width="591.756" height="51.0901"/>
  <rect class="fil1" x="383" y="1050" width="591.756" height="51.0901"/>
  <rect class="fil1" x="383" y="1174" width="591.756" height="51.0901"/>
 </g>
</svg>
