<?xml version="1.0" encoding="UTF-8"?>
<!DOCTYPE svg PUBLIC "-//W3C//DTD SVG 1.1//EN" "http://www.w3.org/Graphics/SVG/1.1/DTD/svg11.dtd">
<!-- Creator: CorelDRAW Home & Student X8 -->
<svg xmlns="http://www.w3.org/2000/svg" xml:space="preserve" width="22.5566mm" height="29.5983mm" version="1.1" style="shape-rendering:geometricPrecision; text-rendering:geometricPrecision; image-rendering:optimizeQuality; fill-rule:evenodd; clip-rule:evenodd"
viewBox="0 0 335 440"
 xmlns:xlink="http://www.w3.org/1999/xlink">
 <defs>
  <style type="text/css">
   <![CDATA[
    .fil0 {fill:#003865}
   ]]>
  </style>
 </defs>
 <g id="Camada_x0020_1">
  <metadata id="CorelCorpID_0Corel-Layer"/>
  <path class="fil0" d="M1 10c0,50 -2,338 1,363 5,2 27,0 30,2 3,3 -2,23 2,30 5,5 18,2 30,3 0,9 -1,23 2,30 2,0 5,1 8,1l-1 0c30,0 250,2 260,-1 1,-3 2,-5 2,-9 0,-49 1,-339 -1,-363 -9,-3 -21,-1 -31,-2 -1,-9 2,-21 -2,-29 -5,-5 -21,-2 -30,-2 0,-10 1,-24 -1,-31 -3,-1 -5,-2 -9,-2l-250 0c-9,0 -10,2 -10,10zm76 416l245 0c0,-20 2,-338 -1,-349l-243 0c-3,11 -1,330 -1,349zm-32 -32l19 1c2,-32 0,-125 0,-164 0,-23 -1,-154 1,-165 11,-4 195,-1 224,-1 2,-6 1,-13 1,-19l-245 0 0 348zm-32 -32l20 0c0,-37 -2,-317 1,-328 15,-4 189,0 224,-1l0 -20 -245 0 0 349z"/>
  <rect class="fil0" x="114" y="129" width="176.565" height="15.244"/>
  <rect class="fil0" x="114" y="166" width="176.565" height="15.244"/>
  <rect class="fil0" x="114" y="203" width="176.565" height="15.244"/>
  <rect class="fil0" x="114" y="240" width="176.565" height="15.244"/>
  <rect class="fil0" x="114" y="277" width="176.565" height="15.244"/>
  <rect class="fil0" x="114" y="313" width="176.565" height="15.244"/>
  <rect class="fil0" x="114" y="350" width="176.565" height="15.244"/>
 </g>
</svg>
