<?xml version="1.0" encoding="UTF-8"?>
<!DOCTYPE svg PUBLIC "-//W3C//DTD SVG 1.1//EN" "http://www.w3.org/Graphics/SVG/1.1/DTD/svg11.dtd">
<!-- Creator: CorelDRAW Home & Student X8 -->
<svg xmlns="http://www.w3.org/2000/svg" xml:space="preserve" width="22.5566mm" height="29.5983mm" version="1.1" style="shape-rendering:geometricPrecision; text-rendering:geometricPrecision; image-rendering:optimizeQuality; fill-rule:evenodd; clip-rule:evenodd"
viewBox="0 0 392 514"
 xmlns:xlink="http://www.w3.org/1999/xlink">
 <defs>
  <style type="text/css">
   <![CDATA[
    .fil0 {fill:white}
   ]]>
  </style>
 </defs>
 <g id="Camada_x0020_1">
  <metadata id="CorelCorpID_0Corel-Layer"/>
  <path class="fil0" d="M1 12c0,59 -2,394 1,424 6,2 32,0 35,3 3,4 -2,27 3,35 5,5 21,2 35,3 0,10 -1,27 2,35 3,1 6,2 10,2l-2 0c36,0 292,2 305,-2 1,-3 1,-6 1,-10 0,-57 2,-397 -1,-424 -9,-4 -24,-2 -36,-3 -1,-10 3,-25 -2,-34 -6,-5 -24,-2 -35,-3 0,-11 1,-28 -2,-36 -3,-1 -6,-2 -10,-2l-293 0c-10,0 -11,2 -11,12zm89 486l287 1c0,-24 2,-396 -1,-408l-285 -1c-3,12 -1,386 -1,408zm-37 -37l22 1c2,-38 0,-147 0,-192 0,-26 -2,-180 1,-193 13,-4 228,-1 262,-1 2,-7 1,-16 1,-23l-286 0 0 408zm-37 -38l22 0c0,-42 -2,-371 2,-383 18,-5 221,0 262,-2l0 -23 -286 0 0 408z"/>
  <rect class="fil0" x="134" y="151" width="206.491" height="17.8277"/>
  <rect class="fil0" x="134" y="194" width="206.491" height="17.8277"/>
  <rect class="fil0" x="134" y="237" width="206.491" height="17.8277"/>
  <rect class="fil0" x="134" y="280" width="206.491" height="17.8277"/>
  <rect class="fil0" x="134" y="323" width="206.491" height="17.8277"/>
  <rect class="fil0" x="134" y="366" width="206.491" height="17.8277"/>
  <rect class="fil0" x="134" y="410" width="206.491" height="17.8277"/>
 </g>
</svg>
