<?xml version="1.0" encoding="UTF-8"?>
<!DOCTYPE svg PUBLIC "-//W3C//DTD SVG 1.1//EN" "http://www.w3.org/Graphics/SVG/1.1/DTD/svg11.dtd">
<!-- Creator: CorelDRAW Home & Student X8 -->
<svg xmlns="http://www.w3.org/2000/svg" xml:space="preserve" width="21.5384mm" height="23.888mm" version="1.1" style="shape-rendering:geometricPrecision; text-rendering:geometricPrecision; image-rendering:optimizeQuality; fill-rule:evenodd; clip-rule:evenodd"
viewBox="0 0 350 389"
 xmlns:xlink="http://www.w3.org/1999/xlink">
 <defs>
  <style type="text/css">
   <![CDATA[
    .fil0 {fill:white}
   ]]>
  </style>
 </defs>
 <g id="Camada_x0020_1">
  <metadata id="CorelCorpID_0Corel-Layer"/>
  <path class="fil0" d="M260 163c5,5 9,11 15,15 5,4 11,11 15,16l23 24c4,4 5,3 8,9 6,12 3,44 3,60 0,21 0,42 0,63l-103 0c0,-10 2,-16 -6,-20 -12,-6 -20,-14 -26,-26 -2,-4 -5,-16 -8,-18 -2,-2 -13,-3 -8,12 5,17 18,36 35,43l0 9c-30,0 -26,-4 -26,26 0,4 -1,8 2,11 2,2 6,2 9,0 3,-4 2,-18 2,-24l142 0c0,4 -1,19 1,22 2,5 11,5 12,-3 1,-6 0,-16 0,-23 0,-10 -4,-9 -13,-9 0,-22 0,-45 0,-67 0,-18 3,-48 -5,-62 -4,-9 -39,-42 -48,-52 -3,-3 -5,-6 -8,-9 -19,-19 -17,-8 -17,-34 0,-11 0,-22 0,-34 0,-8 4,-26 -5,-27 -11,-1 -8,19 -8,27l0 83c0,5 0,11 5,12 12,4 8,-17 9,-24z"/>
  <path class="fil0" d="M13 78l0 -65 285 0 0 65c-4,0 -16,-1 -20,0 -6,1 -8,8 -3,11 4,3 14,2 19,2 6,0 14,1 16,-4 1,-2 2,-74 1,-80 -1,-8 -7,-7 -14,-7 -6,0 -13,0 -20,0l-243 0c-6,0 -13,0 -20,0 -7,0 -13,-1 -14,7 0,6 0,78 1,80 2,5 10,4 16,4 5,0 16,1 19,-2 5,-3 3,-10 -3,-11 -4,-1 -14,0 -20,0z"/>
  <path class="fil0" d="M65 259c0,-60 0,-121 0,-181 0,-6 0,-16 -9,-13 -6,3 -4,13 -4,19l0 136c0,13 -1,33 0,46 1,7 9,6 16,6 19,0 132,1 136,-1 5,-2 5,-11 -3,-12 -11,-1 -114,1 -136,0z"/>
  <path class="fil0" d="M228 261c-3,12 -7,17 -4,31 4,22 19,36 23,24 3,-8 -16,-16 -10,-42 1,-5 5,-10 5,-13 1,-5 -4,-8 -7,-11 -6,-6 -12,-12 -19,-18 -4,-5 -13,-12 -15,-22 -1,-9 5,-22 10,-27 7,6 47,46 60,58 3,3 11,13 17,11 3,-1 5,-6 2,-10l-67 -66c-4,-3 -11,-13 -18,-6 -19,19 -23,40 -7,62l30 29z"/>
  <path class="fil0" d="M43 40c-3,1 -6,5 -2,9 2,4 8,3 13,3 33,0 211,1 214,-1 4,-1 6,-6 3,-10 -3,-3 -9,-2 -13,-2l-93 0c-13,0 -118,-1 -122,1z"/>
  <path class="fil0" d="M106 120c-8,0 -17,-1 -16,9 1,9 10,8 19,7 3,17 25,25 39,13 13,-10 11,-37 27,-36 9,0 16,7 16,16 -1,12 -11,14 -12,20 -1,5 1,9 5,11 5,2 8,-1 10,-3 6,-6 10,-11 12,-20 8,0 16,0 17,-8 0,-9 -7,-9 -15,-9 -4,-1 -7,-24 -34,-24 -33,0 -26,45 -43,41 -9,-1 -8,-13 -4,-20 8,-14 -9,-26 -18,-2 -2,5 0,3 -3,5z"/>
 </g>
</svg>
