<?xml version="1.0" encoding="UTF-8"?>
<!DOCTYPE svg PUBLIC "-//W3C//DTD SVG 1.1//EN" "http://www.w3.org/Graphics/SVG/1.1/DTD/svg11.dtd">
<!-- Creator: CorelDRAW Home & Student X8 -->
<svg xmlns="http://www.w3.org/2000/svg" xml:space="preserve" width="21.5384mm" height="23.888mm" version="1.1" style="shape-rendering:geometricPrecision; text-rendering:geometricPrecision; image-rendering:optimizeQuality; fill-rule:evenodd; clip-rule:evenodd"
viewBox="0 0 968 1074"
 xmlns:xlink="http://www.w3.org/1999/xlink">
 <defs>
  <style type="text/css">
   <![CDATA[
    .fil0 {fill:#243137}
   ]]>
  </style>
 </defs>
 <g id="Camada_x0020_1">
  <metadata id="CorelCorpID_0Corel-Layer"/>
  <path class="fil0" d="M717 450c14,13 27,30 42,42 14,12 30,30 43,44l64 66c10,11 13,10 20,25 16,32 10,122 10,165 -1,58 0,116 0,174l-287 0c0,-27 7,-43 -15,-54 -32,-16 -55,-40 -72,-71 -6,-13 -14,-45 -22,-50 -7,-5 -37,-8 -23,32 15,48 51,99 96,118l0 25c-81,0 -71,-10 -71,72 0,11 -2,23 5,30 7,7 18,7 25,0 10,-10 6,-49 6,-66l393 0c0,13 -2,52 2,61 7,16 32,14 34,-7 2,-16 0,-46 0,-63 0,-27 -11,-26 -36,-27 0,-61 0,-122 0,-183 1,-51 8,-132 -13,-173 -12,-24 -107,-117 -133,-143 -9,-9 -15,-16 -23,-24 -52,-54 -45,-24 -45,-94 0,-31 0,-63 0,-94 0,-22 9,-73 -17,-76 -29,-2 -19,52 -19,74l0 230c0,15 -2,30 12,35 33,10 23,-47 24,-68z"/>
  <path class="fil0" d="M37 215l0 -179 787 0 0 179c-13,0 -45,-2 -56,0 -16,3 -21,23 -8,32 10,7 39,4 53,4 17,0 39,3 45,-11 3,-6 4,-204 2,-222 -3,-20 -19,-18 -38,-18 -19,0 -38,0 -56,0l-671 0c-19,0 -38,0 -56,0 -19,0 -36,-1 -38,18 -2,18 -1,216 2,222 6,14 28,11 45,11 13,0 43,2 52,-4 13,-9 8,-29 -8,-32 -13,-2 -40,0 -55,0z"/>
  <path class="fil0" d="M180 716c-1,-167 -1,-334 0,-501 0,-17 -2,-45 -25,-34 -16,7 -11,34 -11,52l0 375c0,36 -3,92 0,126 2,21 25,18 45,18 52,0 364,2 374,-2 16,-7 14,-32 -8,-34 -31,-4 -314,1 -375,0z"/>
  <path class="fil0" d="M629 723c-8,32 -17,44 -10,84 10,60 52,99 64,66 8,-23 -44,-44 -28,-115 4,-15 13,-28 15,-36 2,-15 -13,-23 -21,-31 -17,-17 -33,-34 -51,-51 -13,-13 -37,-33 -41,-60 -5,-26 11,-61 25,-73 19,14 131,126 166,159 8,8 31,37 47,30 9,-3 15,-16 8,-26l-187 -183c-11,-10 -30,-38 -50,-17 -51,53 -64,111 -18,171l81 82z"/>
  <path class="fil0" d="M120 109c-10,5 -17,16 -7,27 7,9 22,7 35,7 92,0 584,2 594,-1 9,-4 15,-18 6,-28 -7,-9 -23,-7 -36,-7l-255 0c-38,0 -328,-2 -337,2z"/>
  <path class="fil0" d="M293 331c-23,0 -46,-1 -44,26 2,23 27,21 51,20 11,44 70,67 110,35 35,-28 31,-102 74,-100 24,1 43,19 43,45 -1,32 -28,39 -33,56 -3,13 4,24 14,28 14,6 23,-2 29,-8 15,-15 27,-30 33,-56 22,0 43,1 45,-20 2,-25 -19,-26 -40,-26 -10,-3 -20,-67 -93,-66 -92,0 -74,123 -121,114 -23,-4 -22,-36 -11,-55 23,-39 -23,-73 -48,-5 -5,12 0,8 -9,12z"/>
 </g>
</svg>
