<?xml version="1.0" encoding="UTF-8"?>
<!DOCTYPE svg PUBLIC "-//W3C//DTD SVG 1.1//EN" "http://www.w3.org/Graphics/SVG/1.1/DTD/svg11.dtd">
<!-- Creator: CorelDRAW Home & Student X8 -->
<svg xmlns="http://www.w3.org/2000/svg" xml:space="preserve" width="21.5384mm" height="23.888mm" version="1.1" style="shape-rendering:geometricPrecision; text-rendering:geometricPrecision; image-rendering:optimizeQuality; fill-rule:evenodd; clip-rule:evenodd"
viewBox="0 0 311 345"
 xmlns:xlink="http://www.w3.org/1999/xlink">
 <defs>
  <style type="text/css">
   <![CDATA[
    .fil0 {fill:#003865}
   ]]>
  </style>
 </defs>
 <g id="Camada_x0020_1">
  <metadata id="CorelCorpID_0Corel-Layer"/>
  <path class="fil0" d="M230 145c5,4 9,9 14,13 5,4 10,10 14,14l20 22c3,3 4,3 7,7 5,11 3,40 3,53 0,19 0,38 0,56l-92 0c0,-8 2,-14 -5,-17 -10,-5 -18,-13 -23,-23 -2,-4 -5,-14 -7,-16 -3,-2 -12,-2 -8,11 5,15 17,31 31,37l0 8c-26,0 -23,-3 -23,23 0,4 0,8 2,10 2,2 6,2 8,0 3,-3 2,-16 2,-21l126 0c0,4 0,17 1,20 2,5 10,4 11,-3 0,-5 0,-14 0,-20 0,-9 -4,-8 -12,-9 0,-19 0,-39 0,-58 0,-17 3,-43 -4,-56 -4,-8 -35,-37 -43,-46 -3,-3 -5,-5 -7,-8 -17,-17 -15,-7 -15,-30 0,-10 0,-20 0,-30 0,-7 3,-24 -5,-24 -9,-1 -6,16 -6,23l0 74c0,5 -1,10 4,11 10,4 7,-15 7,-21z"/>
  <path class="fil0" d="M12 69l0 -57 253 0 0 57c-4,0 -15,0 -18,0 -5,1 -7,7 -3,10 3,2 13,2 17,2 6,0 13,1 15,-4 1,-2 1,-66 0,-71 -1,-7 -6,-6 -12,-6 -6,0 -12,0 -18,0l-216 0c-6,0 -12,0 -18,0 -5,0 -11,0 -12,6 0,6 0,69 1,71 2,5 9,4 14,4 4,0 14,0 17,-2 4,-2 3,-9 -2,-10 -5,-1 -13,0 -18,0z"/>
  <path class="fil0" d="M58 230c0,-54 0,-107 0,-161 0,-5 -1,-14 -8,-11 -5,2 -4,11 -4,17l0 121c0,11 -1,29 0,40 1,7 8,6 15,6 16,0 117,0 120,-1 5,-2 4,-10 -3,-11 -10,-1 -101,0 -120,0z"/>
  <path class="fil0" d="M202 232c-2,11 -5,15 -3,27 3,20 17,32 21,21 2,-7 -15,-14 -9,-37 1,-4 4,-8 4,-11 1,-5 -4,-7 -6,-10 -6,-6 -11,-11 -17,-16 -4,-5 -12,-11 -13,-20 -2,-8 3,-19 8,-23 6,4 42,40 53,51 3,3 10,12 16,10 2,-1 4,-5 2,-9l-60 -58c-4,-4 -10,-13 -16,-6 -17,17 -21,36 -6,55l26 26z"/>
  <path class="fil0" d="M39 35c-4,2 -6,5 -3,9 3,3 7,2 12,2 29,0 187,1 190,-1 3,-1 5,-5 2,-8 -2,-3 -7,-2 -11,-2l-82 0c-12,0 -105,-1 -108,0z"/>
  <path class="fil0" d="M94 106c-7,0 -15,0 -14,9 1,7 9,6 16,6 4,14 23,22 36,11 11,-9 10,-33 24,-32 7,0 13,6 13,15 0,10 -9,12 -10,18 -1,4 1,8 4,9 5,2 8,-1 10,-3 4,-5 8,-10 10,-18 7,0 14,1 15,-6 0,-8 -7,-9 -13,-9 -4,0 -7,-21 -30,-21 -30,0 -24,40 -39,37 -8,-2 -7,-12 -3,-18 7,-12 -8,-23 -16,-2 -2,4 0,3 -3,4z"/>
 </g>
</svg>
