<?xml version="1.0" encoding="UTF-8"?>
<!DOCTYPE svg PUBLIC "-//W3C//DTD SVG 1.1//EN" "http://www.w3.org/Graphics/SVG/1.1/DTD/svg11.dtd">
<!-- Creator: CorelDRAW Home & Student X8 -->
<svg xmlns="http://www.w3.org/2000/svg" xml:space="preserve" width="21.5384mm" height="23.888mm" version="1.1" style="shape-rendering:geometricPrecision; text-rendering:geometricPrecision; image-rendering:optimizeQuality; fill-rule:evenodd; clip-rule:evenodd"
viewBox="0 0 826 916"
 xmlns:xlink="http://www.w3.org/1999/xlink">
 <defs>
  <style type="text/css">
   <![CDATA[
    .fil0 {fill:#41B6E6}
   ]]>
  </style>
 </defs>
 <g id="Camada_x0020_1">
  <metadata id="CorelCorpID_0Corel-Layer"/>
  <path class="fil0" d="M612 384c12,11 22,25 35,36 13,10 26,25 37,37l54 57c9,8 11,8 18,21 14,27 8,104 8,140 0,50 0,100 0,149l-244 0c0,-23 5,-37 -13,-46 -28,-14 -48,-34 -61,-61 -6,-11 -13,-38 -19,-42 -6,-5 -32,-7 -20,27 13,41 44,85 82,101l0 21c-70,0 -61,-8 -61,61 0,10 -1,20 5,26 5,6 15,6 21,0 8,-8 5,-42 5,-56l335 0c0,10 -2,44 2,52 6,13 27,12 29,-7 1,-13 0,-38 0,-53 0,-23 -10,-22 -31,-23 0,-52 0,-104 0,-156 0,-44 7,-113 -11,-148 -10,-20 -92,-99 -114,-122 -7,-7 -13,-13 -19,-20 -44,-46 -39,-20 -39,-80 0,-27 0,-54 0,-80 0,-19 8,-63 -14,-65 -25,-2 -16,44 -16,63l0 196c0,13 -2,26 10,30 28,9 19,-40 21,-58z"/>
  <path class="fil0" d="M31 183l0 -152 672 0 0 152c-11,0 -39,-1 -48,1 -13,2 -18,19 -7,27 8,5 34,3 45,3 14,0 33,3 39,-9 2,-5 3,-175 1,-190 -2,-16 -16,-15 -32,-15 -16,0 -32,0 -48,0l-572 0c-16,0 -32,0 -48,0 -16,0 -30,-1 -32,15 -2,16 -1,185 1,190 6,12 24,9 39,9 11,0 37,2 45,-3 11,-8 6,-25 -7,-28 -12,-1 -35,0 -48,0z"/>
  <path class="fil0" d="M153 610c0,-142 0,-284 0,-427 1,-14 -1,-38 -21,-29 -13,6 -9,29 -9,44l0 321c0,30 -3,78 0,107 2,18 21,15 38,15 45,0 310,2 319,-1 14,-6 12,-27 -6,-29 -27,-3 -268,1 -321,-1z"/>
  <path class="fil0" d="M536 616c-6,28 -14,38 -8,72 8,51 44,85 55,56 7,-19 -38,-37 -24,-98 3,-12 11,-23 12,-30 2,-13 -11,-20 -17,-26 -15,-16 -29,-29 -44,-44 -11,-11 -31,-28 -35,-51 -4,-22 9,-53 22,-63 16,12 111,108 141,136 7,7 27,32 40,26 8,-3 12,-14 7,-23l-159 -155c-10,-9 -26,-33 -43,-15 -44,45 -55,95 -16,145l69 70z"/>
  <path class="fil0" d="M102 93c-8,4 -15,13 -6,23 6,8 19,6 31,6 78,0 498,2 506,-1 7,-4 12,-15 5,-24 -6,-7 -20,-5 -31,-5l-217 0c-32,0 -280,-3 -288,1z"/>
  <path class="fil0" d="M250 282c-20,0 -40,-1 -37,22 1,20 23,18 43,18 9,37 60,56 93,30 30,-25 27,-88 64,-86 21,1 37,17 36,38 -1,28 -24,34 -28,48 -2,12 4,21 12,24 12,5 20,-2 25,-7 13,-13 23,-26 29,-47 18,0 36,1 37,-18 2,-21 -16,-22 -34,-22 -8,-2 -17,-57 -79,-56 -78,0 -63,105 -103,98 -20,-4 -18,-32 -9,-48 20,-33 -20,-62 -42,-4 -4,11 1,6 -7,10z"/>
 </g>
</svg>
