<?xml version="1.0" encoding="UTF-8"?>
<!DOCTYPE svg PUBLIC "-//W3C//DTD SVG 1.1//EN" "http://www.w3.org/Graphics/SVG/1.1/DTD/svg11.dtd">
<!-- Creator: CorelDRAW Home & Student X8 -->
<svg xmlns="http://www.w3.org/2000/svg" xml:space="preserve" width="19.0565mm" height="19.0879mm" version="1.1" style="shape-rendering:geometricPrecision; text-rendering:geometricPrecision; image-rendering:optimizeQuality; fill-rule:evenodd; clip-rule:evenodd"
viewBox="0 0 628 629"
 xmlns:xlink="http://www.w3.org/1999/xlink">
 <defs>
  <style type="text/css">
   <![CDATA[
    .fil0 {fill:#41B6E6}
   ]]>
  </style>
 </defs>
 <g id="Camada_x0020_1">
  <metadata id="CorelCorpID_0Corel-Layer"/>
  <g id="stopwatch.svg">
   <path class="fil0" d="M184 379l-32 0c6,111 95,200 206,206l0 -32c0,-6 5,-11 11,-11 6,0 10,5 10,11l0 32c111,-6 200,-95 206,-206l-43 0c-6,0 -11,-4 -11,-10 0,-6 5,-11 11,-11l43 0c-6,-111 -95,-200 -206,-206l0 32c0,6 -4,11 -10,11 -6,0 -11,-5 -11,-11l0 -32c-111,6 -200,95 -206,206l32 0c6,0 11,5 11,11 0,6 -5,10 -11,10zm83 -25c4,-4 11,-4 15,0l65 64 143 -143c4,-4 11,-4 15,0 4,5 4,11 0,16l-150 150c-5,5 -12,5 -16,0l-72 -72c-4,-4 -4,-11 0,-15l0 0zm0 0z"/>
   <path class="fil0" d="M543 148c17,13 33,29 46,46l17 -17 -46 -46 -17 17zm0 0z"/>
   <path class="fil0" d="M206 166c1,-1 2,-2 3,-3 -1,1 -2,2 -3,3zm0 0z"/>
   <path class="fil0" d="M194 176c1,-1 1,-1 2,-2 -1,1 -1,1 -2,2zm0 0z"/>
   <path class="fil0" d="M180 189c1,-1 2,-2 3,-3 -1,1 -2,2 -3,3zm0 0z"/>
   <path class="fil0" d="M169 201c1,-1 2,-2 3,-3 -1,1 -2,2 -3,3zm0 0z"/>
   <path class="fil0" d="M252 601c-1,0 -1,-1 -2,-1 1,0 1,1 2,1zm0 0z"/>
   <path class="fil0" d="M283 614l0 0 0 0zm0 0z"/>
   <path class="fil0" d="M300 619l-2 0 2 0zm0 0z"/>
   <path class="fil0" d="M172 539c-1,-1 -2,-2 -3,-3 1,1 2,2 3,3zm0 0z"/>
   <path class="fil0" d="M335 627c-1,-1 -2,-1 -3,-1 1,0 2,0 3,1zm0 0z"/>
   <path class="fil0" d="M352 628c-1,0 -2,0 -4,0 2,0 3,0 4,0zm0 0z"/>
   <path class="fil0" d="M183 551c-1,-1 -2,-2 -3,-3 1,1 2,2 3,3zm0 0z"/>
   <path class="fil0" d="M196 563c-1,-1 -1,-1 -2,-2 1,1 1,1 2,2zm0 0z"/>
   <path class="fil0" d="M237 593c-1,0 -1,-1 -1,-1 0,0 0,1 1,1zm0 0z"/>
   <path class="fil0" d="M209 574c-1,-1 -2,-2 -3,-2 1,0 2,1 3,2zm0 0z"/>
   <path class="fil0" d="M222 583c-1,0 -1,0 -2,-1 1,1 1,1 2,1zm0 0z"/>
   <path class="fil0" d="M250 137c1,0 1,-1 2,-1 -1,0 -1,1 -2,1zm0 0z"/>
   <path class="fil0" d="M236 145c0,0 0,0 1,-1 -1,1 -1,1 -1,1zm0 0z"/>
   <path class="fil0" d="M220 155c1,0 1,-1 2,-1 -1,0 -1,1 -2,1zm0 0z"/>
   <path class="fil0" d="M119 358l-108 0c-6,0 -11,5 -11,11 0,6 5,10 11,10l108 0c6,0 11,-4 11,-10 0,-6 -5,-11 -11,-11zm0 0z"/>
   <path class="fil0" d="M119 293l-86 0c-6,0 -11,5 -11,11 0,6 5,10 11,10l86 0c6,0 11,-4 11,-10 0,-6 -5,-11 -11,-11l0 0zm0 0z"/>
   <path class="fil0" d="M119 423l-86 0c-6,0 -11,5 -11,11 0,6 5,10 11,10l86 0c6,0 11,-4 11,-10 0,-6 -5,-11 -11,-11zm0 0z"/>
   <path class="fil0" d="M379 109c0,0 0,-1 0,-1l0 -86 76 0c6,0 11,-5 11,-11 0,-6 -5,-11 -11,-11l-173 0c-6,0 -11,5 -11,11 0,6 5,11 11,11l76 0 0 86c0,1 0,1 0,1 -2,0 -4,0 -6,0 -1,0 -2,0 -4,0 -4,1 -8,1 -13,2 -1,0 -2,0 -3,0 -11,2 -22,4 -32,7l-2 0c-5,1 -10,3 -15,5l-1 0c-10,4 -20,8 -30,13 -1,0 -1,1 -2,1 -4,2 -9,5 -13,7 -1,1 -1,1 -1,1 -5,3 -10,6 -14,9 -1,0 -1,1 -2,1 -4,2 -7,5 -11,8 -1,1 -2,2 -3,3 -3,2 -7,5 -10,8 -1,1 -1,1 -2,2 -4,3 -7,7 -11,10 -1,1 -2,2 -3,3 -3,3 -5,6 -8,9 -1,1 -2,2 -3,3 -3,4 -6,9 -10,13l0 0c-3,4 -6,9 -9,14 0,0 -1,1 -1,1 -2,3 -4,7 -6,10 -1,0 -1,0 -2,-1l-76 0c-6,0 -11,5 -11,11 0,6 5,11 11,11l91 0c50,-98 161,-149 268,-123 108,25 183,121 183,232 0,110 -75,206 -183,231 -107,26 -218,-25 -268,-123l-102 0c-6,0 -11,5 -11,11 0,6 5,11 11,11l87 0c1,0 1,-1 2,-1 2,3 4,7 6,10 0,0 1,1 1,2 3,4 6,9 9,13l0 0c4,5 7,9 10,13 1,1 2,2 3,3 2,3 5,6 8,9 1,1 2,2 3,3 4,4 7,7 11,10 1,1 1,1 2,2 3,3 6,6 10,9 1,0 2,1 3,2 4,3 7,6 11,8 1,1 1,1 2,1 4,3 9,6 14,9 0,0 0,1 1,1 4,2 8,5 13,7 1,0 1,1 2,1 10,5 20,9 30,13l1 0c5,2 10,4 15,5l2 0c10,3 21,6 32,7 1,0 2,0 3,1 5,0 9,1 13,1 2,0 3,0 4,0 6,1 11,1 17,1 141,-1 256,-114 259,-255 3,-141 -108,-259 -249,-265l0 0zm0 0z"/>
  </g>
 </g>
</svg>
