<?xml version="1.0" encoding="UTF-8"?>
<!DOCTYPE svg PUBLIC "-//W3C//DTD SVG 1.1//EN" "http://www.w3.org/Graphics/SVG/1.1/DTD/svg11.dtd">
<!-- Creator: CorelDRAW Home & Student X8 -->
<svg xmlns="http://www.w3.org/2000/svg" xml:space="preserve" width="19.0565mm" height="19.0879mm" version="1.1" style="shape-rendering:geometricPrecision; text-rendering:geometricPrecision; image-rendering:optimizeQuality; fill-rule:evenodd; clip-rule:evenodd"
viewBox="0 0 241 241"
 xmlns:xlink="http://www.w3.org/1999/xlink">
 <defs>
  <style type="text/css">
   <![CDATA[
    .fil0 {fill:#003865}
   ]]>
  </style>
 </defs>
 <g id="Camada_x0020_1">
  <metadata id="CorelCorpID_0Corel-Layer"/>
  <g id="stopwatch.svg">
   <path class="fil0" d="M71 146l-13 0c3,42 37,76 79,78l0 -12c0,-2 2,-4 4,-4 3,0 5,2 5,4l0 12c42,-2 76,-36 78,-78l-16 0c-2,0 -4,-2 -4,-5 0,-2 2,-4 4,-4l16 0c-2,-42 -36,-76 -78,-79l0 13c0,2 -2,4 -5,4 -2,0 -4,-2 -4,-4l0 -13c-42,3 -76,37 -79,79l13 0c2,0 4,2 4,4 0,3 -2,5 -4,5zm31 -10c2,-2 5,-2 6,0l25 24 55 -54c2,-2 4,-2 6,0 1,1 1,4 0,5l-58 58c-2,2 -4,2 -6,0l-28 -27c-1,-2 -1,-5 0,-6l0 0zm0 0z"/>
   <path class="fil0" d="M208 57c7,5 13,11 18,17l7 -6 -18 -18 -7 7zm0 0z"/>
   <path class="fil0" d="M79 63c0,0 1,0 1,-1 0,1 -1,1 -1,1zm0 0z"/>
   <path class="fil0" d="M74 67c1,0 1,0 1,0 0,0 0,0 -1,0zm0 0z"/>
   <path class="fil0" d="M69 73c0,-1 1,-1 1,-2 0,1 -1,1 -1,2zm0 0z"/>
   <path class="fil0" d="M65 77c0,0 1,-1 1,-1 0,0 -1,1 -1,1zm0 0z"/>
   <path class="fil0" d="M97 231c-1,-1 -1,-1 -1,-1 0,0 0,0 1,1zm0 0z"/>
   <path class="fil0" d="M109 236l-1 0 1 0zm0 0z"/>
   <path class="fil0" d="M115 238l-1 -1 1 1zm0 0z"/>
   <path class="fil0" d="M66 207c0,-1 -1,-1 -1,-1 0,0 1,0 1,1zm0 0z"/>
   <path class="fil0" d="M129 240c-1,0 -1,0 -2,0 1,0 1,0 2,0zm0 0z"/>
   <path class="fil0" d="M135 241c0,0 -1,0 -1,0 0,0 1,0 1,0zm0 0z"/>
   <path class="fil0" d="M70 211c0,0 -1,0 -1,-1 0,1 1,1 1,1zm0 0z"/>
   <path class="fil0" d="M75 216c0,0 0,0 -1,-1 1,1 1,1 1,1zm0 0z"/>
   <path class="fil0" d="M91 227c0,0 0,0 -1,0 1,0 1,0 1,0zm0 0z"/>
   <path class="fil0" d="M80 220c0,0 -1,0 -1,-1 0,1 1,1 1,1zm0 0z"/>
   <path class="fil0" d="M85 224c0,0 0,-1 -1,-1 1,0 1,1 1,1zm0 0z"/>
   <path class="fil0" d="M96 53c0,-1 0,-1 1,-1 -1,0 -1,0 -1,1zm0 0z"/>
   <path class="fil0" d="M90 56c1,0 1,-1 1,-1 0,0 0,1 -1,1zm0 0z"/>
   <path class="fil0" d="M84 59c1,0 1,0 1,0 0,0 0,0 -1,0zm0 0z"/>
   <path class="fil0" d="M46 137l-42 0c-2,0 -4,2 -4,4 0,3 2,5 4,5l42 0c2,0 4,-2 4,-5 0,-2 -2,-4 -4,-4zm0 0z"/>
   <path class="fil0" d="M46 112l-34 0c-2,0 -4,2 -4,4 0,3 2,5 4,5l34 0c2,0 4,-2 4,-5 0,-2 -2,-4 -4,-4l0 0zm0 0z"/>
   <path class="fil0" d="M46 162l-34 0c-2,0 -4,2 -4,4 0,3 2,4 4,4l34 0c2,0 4,-1 4,-4 0,-2 -2,-4 -4,-4zm0 0z"/>
   <path class="fil0" d="M146 42c0,0 0,0 0,0l0 -34 29 0c2,0 4,-2 4,-4 0,-2 -2,-4 -4,-4l-67 0c-2,0 -4,2 -4,4 0,2 2,4 4,4l29 0 0 34c0,0 0,0 0,0 0,0 -1,0 -2,0 0,0 -1,0 -1,0 -2,0 -4,0 -5,0 -1,0 -1,1 -2,1 -4,0 -8,1 -12,2l-1 0c-2,1 -4,1 -5,2l-1 0c-4,2 -8,3 -11,5 -1,0 -1,0 -1,1 -2,0 -4,1 -5,2 0,0 -1,1 -1,1 -1,1 -3,2 -5,3 0,0 0,0 -1,0 -1,1 -2,2 -4,3 0,1 -1,1 -1,1 -1,2 -3,3 -4,4 0,0 0,0 -1,0 -1,2 -2,3 -4,4 0,1 -1,1 -1,2 -1,1 -2,2 -3,3 0,0 -1,1 -1,1 -1,2 -3,3 -4,5l0 0c-1,2 -2,4 -3,5 -1,1 -1,1 -1,1 -1,1 -1,2 -2,4 0,0 -1,0 -1,-1l-29 0c-2,0 -4,2 -4,5 0,2 2,4 4,4l35 0c19,-38 62,-57 103,-48 41,10 70,47 70,89 0,43 -29,79 -70,89 -41,10 -84,-9 -103,-47l-39 0c-3,0 -4,2 -4,4 0,2 1,4 4,4l33 0c0,0 1,0 1,0 1,1 1,3 2,4 0,0 0,0 0,0 2,2 3,4 4,6l0 0c1,1 3,3 4,5 0,0 1,0 1,1 1,1 2,2 3,3 0,1 1,1 1,1 2,2 3,3 4,4 1,1 1,1 1,1 1,1 3,2 4,3 0,1 1,1 1,1 2,1 3,2 4,3 1,0 1,1 1,1 2,1 4,2 5,3 0,0 1,0 1,0 1,1 3,2 5,3 0,0 0,0 1,1 3,1 7,3 11,5l1 0c1,0 3,1 5,1l1 1c4,1 8,2 12,2 1,0 1,0 2,0 1,1 3,1 5,1 0,0 1,0 1,0 2,0 4,0 6,0 55,0 99,-43 100,-98 1,-54 -41,-99 -95,-101l0 0zm0 0z"/>
  </g>
 </g>
</svg>
