<?xml version="1.0" encoding="UTF-8"?>
<!DOCTYPE svg PUBLIC "-//W3C//DTD SVG 1.1//EN" "http://www.w3.org/Graphics/SVG/1.1/DTD/svg11.dtd">
<!-- Creator: CorelDRAW Home & Student X8 -->
<svg xmlns="http://www.w3.org/2000/svg" xml:space="preserve" width="19.0565mm" height="19.0878mm" version="1.1" style="shape-rendering:geometricPrecision; text-rendering:geometricPrecision; image-rendering:optimizeQuality; fill-rule:evenodd; clip-rule:evenodd"
viewBox="0 0 785 786"
 xmlns:xlink="http://www.w3.org/1999/xlink">
 <defs>
  <style type="text/css">
   <![CDATA[
    .fil0 {fill:black}
   ]]>
  </style>
 </defs>
 <g id="Camada_x0020_1">
  <metadata id="CorelCorpID_0Corel-Layer"/>
  <g id="stopwatch.svg">
   <path class="fil0" d="M230 474l-40 0c8,139 119,250 257,257l0 -40c0,-7 6,-13 14,-13 7,0 13,6 13,13l0 40c139,-7 250,-118 257,-257l-53 0c-8,0 -14,-6 -14,-13 0,-8 6,-14 14,-14l53 0c-7,-138 -118,-249 -257,-257l0 40c0,8 -6,14 -13,14 -8,0 -14,-6 -14,-14l0 -40c-138,8 -249,119 -257,257l40 0c8,0 14,6 14,14 0,7 -6,13 -14,13zm104 -32c5,-5 14,-5 19,0l81 81 179 -179c5,-5 13,-5 19,0 5,6 5,14 0,19l-189 189c-5,5 -14,5 -19,0l-90 -90c-5,-6 -5,-14 0,-20l0 0zm0 0z"/>
   <path class="fil0" d="M680 185c21,17 40,36 57,57l21 -21 -57 -57 -21 21zm0 0z"/>
   <path class="fil0" d="M258 207c1,-1 2,-2 4,-3 -2,1 -3,2 -4,3zm0 0z"/>
   <path class="fil0" d="M243 220c0,-1 1,-2 2,-2 -1,0 -2,1 -2,2zm0 0z"/>
   <path class="fil0" d="M225 237c1,-2 3,-3 4,-4 -1,1 -3,3 -4,4zm0 0z"/>
   <path class="fil0" d="M212 252c1,-2 2,-3 3,-4 -1,1 -2,2 -3,4zm0 0z"/>
   <path class="fil0" d="M315 752c-1,-1 -2,-1 -2,-1 0,0 1,0 2,1zm0 0z"/>
   <path class="fil0" d="M354 768l-1 0 1 0zm0 0z"/>
   <path class="fil0" d="M375 775l-2 -1 2 1zm0 0z"/>
   <path class="fil0" d="M215 674c-1,-1 -2,-3 -3,-4 1,1 2,3 3,4zm0 0z"/>
   <path class="fil0" d="M419 784c-1,-1 -2,-1 -4,-1 2,0 3,0 4,1zm0 0z"/>
   <path class="fil0" d="M441 786c-2,-1 -4,-1 -5,-1 1,0 3,0 5,1zm0 0z"/>
   <path class="fil0" d="M229 689c-1,-1 -3,-3 -4,-4 1,1 3,3 4,4zm0 0z"/>
   <path class="fil0" d="M245 704c-1,-1 -2,-1 -2,-2 0,1 1,1 2,2zm0 0z"/>
   <path class="fil0" d="M296 741c0,0 -1,0 -1,0 0,0 1,0 1,0zm0 0z"/>
   <path class="fil0" d="M262 718c-2,-1 -3,-2 -4,-3 1,1 2,2 4,3zm0 0z"/>
   <path class="fil0" d="M277 730c0,-1 -1,-1 -2,-2 1,1 2,1 2,2zm0 0z"/>
   <path class="fil0" d="M313 171c0,0 1,0 2,-1 -1,1 -2,1 -2,1zm0 0z"/>
   <path class="fil0" d="M295 181c0,0 1,0 1,-1 0,1 -1,1 -1,1zm0 0z"/>
   <path class="fil0" d="M275 194c1,-1 2,-1 2,-2 0,1 -1,1 -2,2zm0 0z"/>
   <path class="fil0" d="M149 447l-135 0c-8,0 -14,6 -14,14 0,7 6,13 14,13l135 0c8,0 14,-6 14,-13 0,-8 -6,-14 -14,-14zm0 0z"/>
   <path class="fil0" d="M149 366l-108 0c-8,0 -14,6 -14,14 0,7 6,13 14,13l108 0c8,0 14,-6 14,-13 0,-8 -6,-14 -14,-14l0 0zm0 0z"/>
   <path class="fil0" d="M149 529l-108 0c-8,0 -14,6 -14,13 0,8 6,14 14,14l108 0c8,0 14,-6 14,-14 0,-7 -6,-13 -14,-13zm0 0z"/>
   <path class="fil0" d="M474 136c0,0 0,0 0,0l0 -109 95 0c8,0 14,-6 14,-13 0,-8 -6,-14 -14,-14l-217 0c-7,0 -13,6 -13,14 0,7 6,13 13,13l95 0 0 109c0,0 0,0 0,0 -2,0 -4,0 -6,0 -2,0 -4,1 -5,1 -6,0 -11,1 -17,1 -1,0 -2,1 -4,1 -13,2 -27,5 -40,8l-2 1c-6,1 -13,3 -19,6l-1 0c-13,4 -26,10 -38,16 -1,1 -2,1 -2,1 -6,3 -12,6 -17,9 -1,1 -1,1 -1,1 -6,4 -12,7 -18,11 0,1 -1,1 -2,2 -4,3 -9,6 -13,10 -2,1 -3,2 -4,3 -5,3 -9,7 -13,11 -1,0 -2,1 -2,2 -5,4 -10,8 -14,13 -1,1 -3,3 -4,4 -3,3 -7,7 -10,11 -1,1 -2,2 -3,4 -4,5 -9,10 -13,15l0 1c-4,5 -8,11 -12,17 0,0 0,1 -1,2 -2,4 -5,8 -7,12 -1,0 -2,-1 -3,-1l-95 0c-7,0 -13,6 -13,14 0,7 6,13 13,13l114 0c63,-122 202,-186 336,-154 134,32 228,152 228,290 0,138 -94,258 -228,290 -134,32 -273,-32 -336,-155l-127 0c-8,0 -14,7 -14,14 0,8 6,14 14,14l108 0c1,-1 2,-1 3,-1 2,4 5,8 7,12 1,1 1,2 1,2 4,6 8,12 12,17l0 0c4,6 8,11 13,16 1,1 2,3 3,4 3,4 7,7 10,11 1,1 3,3 4,4 4,4 9,9 14,13 0,1 1,1 2,2 4,4 8,7 13,11 1,1 2,2 4,3 4,4 9,7 13,10 1,1 2,1 2,2 6,3 12,7 18,11 0,0 0,0 1,0 5,4 11,7 17,10 0,0 1,0 2,1 12,6 25,11 38,16l1 0c6,2 13,4 19,6l2 1c13,3 27,6 40,8 2,0 3,0 4,1 6,0 11,1 16,1 2,0 4,0 6,1 6,0 13,0 20,0 176,0 320,-142 324,-318 4,-177 -134,-324 -311,-332l0 0zm0 0z"/>
  </g>
 </g>
</svg>
