<?xml version="1.0" encoding="UTF-8"?>
<!DOCTYPE svg PUBLIC "-//W3C//DTD SVG 1.1//EN" "http://www.w3.org/Graphics/SVG/1.1/DTD/svg11.dtd">
<!-- Creator: CorelDRAW Home & Student X8 -->
<svg xmlns="http://www.w3.org/2000/svg" xml:space="preserve" width="19.0565mm" height="19.0879mm" version="1.1" style="shape-rendering:geometricPrecision; text-rendering:geometricPrecision; image-rendering:optimizeQuality; fill-rule:evenodd; clip-rule:evenodd"
viewBox="0 0 278 278"
 xmlns:xlink="http://www.w3.org/1999/xlink">
 <defs>
  <style type="text/css">
   <![CDATA[
    .fil0 {fill:white}
   ]]>
  </style>
 </defs>
 <g id="Camada_x0020_1">
  <metadata id="CorelCorpID_0Corel-Layer"/>
  <g id="stopwatch.svg">
   <path class="fil0" d="M82 168l-15 0c3,49 42,88 91,91l0 -14c0,-3 2,-5 5,-5 3,0 5,2 5,5l0 14c49,-3 88,-42 91,-91l-19 0c-3,0 -5,-2 -5,-5 0,-3 2,-5 5,-5l19 0c-3,-49 -42,-88 -91,-91l0 15c0,2 -2,4 -5,4 -3,0 -5,-2 -5,-4l0 -15c-49,3 -88,42 -91,91l15 0c2,0 4,2 4,5 0,3 -2,5 -4,5zm36 -11c2,-2 5,-2 7,0l28 28 64 -63c2,-2 5,-2 6,0 2,2 2,5 1,7l-67 66c-2,2 -5,2 -7,0l-32 -32c-2,-2 -2,-5 0,-6l0 0zm0 0z"/>
   <path class="fil0" d="M240 65c8,6 15,13 21,21l7 -8 -20 -20 -8 7zm0 0z"/>
   <path class="fil0" d="M91 73c1,0 1,-1 2,-1 -1,0 -1,1 -2,1zm0 0z"/>
   <path class="fil0" d="M86 78c0,-1 0,-1 1,-1 -1,0 -1,0 -1,1zm0 0z"/>
   <path class="fil0" d="M80 84c0,-1 1,-1 1,-2 0,1 -1,1 -1,2zm0 0z"/>
   <path class="fil0" d="M75 89c0,0 1,-1 1,-1 0,0 -1,1 -1,1zm0 0z"/>
   <path class="fil0" d="M111 266c0,0 0,0 0,0 0,0 0,0 0,0zm0 0z"/>
   <path class="fil0" d="M125 272l0 0 0 0zm0 0z"/>
   <path class="fil0" d="M133 274l-1 0 1 0zm0 0z"/>
   <path class="fil0" d="M76 238c0,0 -1,0 -1,-1 0,1 1,1 1,1zm0 0z"/>
   <path class="fil0" d="M148 277c0,0 -1,0 -1,0 0,0 1,0 1,0zm0 0z"/>
   <path class="fil0" d="M156 278c-1,0 -1,0 -2,0 1,0 1,0 2,0zm0 0z"/>
   <path class="fil0" d="M81 244c0,-1 -1,-1 -1,-2 0,1 1,1 1,2zm0 0z"/>
   <path class="fil0" d="M87 249c-1,0 -1,0 -1,-1 0,1 0,1 1,1zm0 0z"/>
   <path class="fil0" d="M105 262c0,0 -1,0 -1,0 0,0 1,0 1,0zm0 0z"/>
   <path class="fil0" d="M93 254c-1,0 -1,-1 -2,-1 1,0 1,1 2,1zm0 0z"/>
   <path class="fil0" d="M98 258c0,0 0,0 -1,0 1,0 1,0 1,0zm0 0z"/>
   <path class="fil0" d="M111 61c0,-1 0,-1 0,-1 0,0 0,0 0,1zm0 0z"/>
   <path class="fil0" d="M104 64c0,0 1,0 1,0 0,0 -1,0 -1,0zm0 0z"/>
   <path class="fil0" d="M97 69c1,-1 1,-1 1,-1 0,0 0,0 -1,1zm0 0z"/>
   <path class="fil0" d="M53 158l-48 0c-3,0 -5,2 -5,5 0,3 2,5 5,5l48 0c2,0 5,-2 5,-5 0,-3 -3,-5 -5,-5zm0 0z"/>
   <path class="fil0" d="M53 129l-39 0c-2,0 -4,3 -4,5 0,3 2,5 4,5l39 0c2,0 5,-2 5,-5 0,-2 -3,-5 -5,-5l0 0zm0 0z"/>
   <path class="fil0" d="M53 187l-39 0c-2,0 -4,2 -4,5 0,2 2,5 4,5l39 0c2,0 5,-3 5,-5 0,-3 -3,-5 -5,-5zm0 0z"/>
   <path class="fil0" d="M168 48c0,0 0,0 0,0l0 -38 33 0c3,0 5,-3 5,-5 0,-3 -2,-5 -5,-5l-76 0c-3,0 -5,2 -5,5 0,2 2,5 5,5l33 0 0 38c0,0 0,0 0,0 0,0 -1,0 -2,0 -1,0 -1,0 -2,0 -2,0 -4,1 -6,1 0,0 -1,0 -1,0 -5,1 -10,2 -14,3l-1 0c-2,1 -5,2 -7,2l0 0c-5,2 -9,4 -14,6 0,0 0,0 0,1 -2,1 -4,2 -6,3 0,0 -1,0 -1,0 -2,1 -4,3 -6,4 0,0 0,0 -1,1 -1,1 -3,2 -4,3 -1,0 -1,1 -2,1 -1,1 -3,3 -4,4 -1,0 -1,0 -1,1 -2,1 -3,3 -5,4 0,1 -1,1 -1,2 -2,1 -3,2 -4,4 0,0 -1,1 -1,1 -2,2 -3,4 -4,6l-1 0c-1,2 -2,4 -4,6 0,0 0,0 0,0 -1,2 -2,3 -3,5 0,0 0,0 -1,0l-33 0c-3,0 -5,2 -5,4 0,3 2,5 5,5l40 0c22,-43 71,-66 119,-55 47,12 81,54 81,103 0,49 -34,91 -81,103 -48,11 -97,-12 -119,-55l-45 0c-3,0 -5,2 -5,5 0,2 2,5 5,5l38 0c1,0 1,0 1,-1 1,2 2,3 3,5 0,0 0,0 0,0 2,2 3,4 4,6l1 1c1,1 2,3 4,5 0,1 1,1 1,1 1,2 2,3 4,4 0,1 1,1 1,2 2,1 3,3 5,4 0,1 0,1 1,1 1,1 3,3 4,4 1,0 1,1 2,1 1,1 3,2 4,4 1,0 1,0 1,0 2,1 4,3 6,4 0,0 1,0 1,0 2,1 4,3 6,4 0,0 0,0 0,0 5,2 9,4 14,6l0 0c2,1 5,1 7,2l1 0c4,1 9,2 14,3 0,0 1,0 1,0 2,0 4,1 6,1 1,0 1,0 2,0 2,0 5,0 7,0 63,0 113,-50 115,-113 1,-62 -48,-114 -110,-117l0 0zm0 0z"/>
  </g>
 </g>
</svg>
