<?xml version="1.0" encoding="UTF-8"?>
<!DOCTYPE svg PUBLIC "-//W3C//DTD SVG 1.1//EN" "http://www.w3.org/Graphics/SVG/1.1/DTD/svg11.dtd">
<!-- Creator: CorelDRAW Home & Student X8 -->
<svg xmlns="http://www.w3.org/2000/svg" xml:space="preserve" width="27.9452mm" height="27.9453mm" version="1.1" style="shape-rendering:geometricPrecision; text-rendering:geometricPrecision; image-rendering:optimizeQuality; fill-rule:evenodd; clip-rule:evenodd"
viewBox="0 0 1204 1204"
 xmlns:xlink="http://www.w3.org/1999/xlink">
 <defs>
  <style type="text/css">
   <![CDATA[
    .fil0 {fill:#41B6E6}
   ]]>
  </style>
 </defs>
 <g id="Camada_x0020_1">
  <metadata id="CorelCorpID_0Corel-Layer"/>
  <g id="file.svg">
   <path class="fil0" d="M80 100l482 0 0 40 -482 0 0 -40zm0 0z"/>
   <path class="fil0" d="M80 181l241 0 0 40 -241 0 0 -40zm0 0z"/>
   <path class="fil0" d="M361 181l201 0 0 40 -201 0 0 -40zm0 0z"/>
   <path class="fil0" d="M80 261l482 0 0 40 -482 0 0 -40zm0 0z"/>
   <path class="fil0" d="M80 341l482 0 0 40 -482 0 0 -40zm0 0z"/>
   <path class="fil0" d="M80 421l241 0 0 40 -241 0 0 -40zm0 0z"/>
   <path class="fil0" d="M361 421l201 0 0 40 -201 0 0 -40zm0 0z"/>
   <path class="fil0" d="M1204 341l-281 0 0 -48 -293 -293 -570 0c-33,0 -60,27 -60,60l0 1064c0,44 36,80 80,80l763 0c36,0 68,-25 77,-60l284 0 0 -803zm-562 -272l212 212 -192 0c-11,0 -20,-9 -20,-20l0 -192zm201 1095l-763 0c-22,0 -40,-18 -40,-40l0 -1064c0,-11 9,-20 20,-20l542 0 0 221c0,33 27,60 60,60l221 0 0 20 -281 0 0 803 275 0c-7,12 -20,20 -34,20zm321 -60l-522 0 0 -723 522 0 0 723zm0 0z"/>
   <path class="fil0" d="M1124 421l-442 0 0 161 442 0 0 -161zm-41 121l-361 0 0 -81 361 0 0 81zm0 0z"/>
   <path class="fil0" d="M803 622l-121 0 0 120 121 0 0 -120zm-41 80l-40 0 0 -40 40 0 0 40zm0 0z"/>
   <path class="fil0" d="M843 742l120 0 0 -120 -120 0 0 120zm40 -80l40 0 0 40 -40 0 0 -40zm0 0z"/>
   <path class="fil0" d="M1003 742l121 0 0 -120 -121 0 0 120zm40 -80l40 0 0 40 -40 0 0 -40zm0 0z"/>
   <path class="fil0" d="M803 783l-121 0 0 120 121 0 0 -120zm-41 80l-40 0 0 -40 40 0 0 40zm0 0z"/>
   <path class="fil0" d="M843 903l120 0 0 -120 -120 0 0 120zm40 -80l40 0 0 40 -40 0 0 -40zm0 0z"/>
   <path class="fil0" d="M1003 1063l121 0 0 -280 -121 0 0 280zm40 -240l40 0 0 200 -40 0 0 -200zm0 0z"/>
   <path class="fil0" d="M803 943l-121 0 0 120 121 0 0 -120zm-41 80l-40 0 0 -40 40 0 0 40zm0 0z"/>
   <path class="fil0" d="M843 1063l120 0 0 -120 -120 0 0 120zm40 -80l40 0 0 40 -40 0 0 -40zm0 0z"/>
   <path class="fil0" d="M381 722l40 0c0,-38 -34,-71 -80,-78l0 -22 -40 0 0 22c-46,7 -80,40 -80,78 0,39 34,71 80,79l0 79c-23,-5 -40,-20 -40,-37l-40 0c0,38 34,71 80,78l0 22 40 0 0 -22c46,-7 80,-40 80,-78 0,-39 -34,-71 -80,-79l0 -79c23,5 40,20 40,37l0 0zm-120 0c0,-17 17,-32 40,-37l0 75c-23,-6 -40,-21 -40,-38l0 0zm120 121c0,17 -17,32 -40,37l0 -75c23,6 40,21 40,38l0 0zm0 0z"/>
   <path class="fil0" d="M321 562c-122,0 -221,99 -221,221 0,121 99,220 221,220 122,0 221,-99 221,-220 0,-122 -99,-221 -221,-221zm0 401c-100,0 -181,-81 -181,-180 0,-100 81,-181 181,-181 100,0 181,81 181,181 0,99 -81,180 -181,180zm0 0z"/>
  </g>
 </g>
</svg>
