<?xml version="1.0" encoding="UTF-8"?>
<!DOCTYPE svg PUBLIC "-//W3C//DTD SVG 1.1//EN" "http://www.w3.org/Graphics/SVG/1.1/DTD/svg11.dtd">
<!-- Creator: CorelDRAW Home & Student X8 -->
<svg xmlns="http://www.w3.org/2000/svg" xml:space="preserve" width="27.9452mm" height="27.9453mm" version="1.1" style="shape-rendering:geometricPrecision; text-rendering:geometricPrecision; image-rendering:optimizeQuality; fill-rule:evenodd; clip-rule:evenodd"
viewBox="0 0 495 495"
 xmlns:xlink="http://www.w3.org/1999/xlink">
 <defs>
  <style type="text/css">
   <![CDATA[
    .fil0 {fill:#003865}
   ]]>
  </style>
 </defs>
 <g id="Camada_x0020_1">
  <metadata id="CorelCorpID_0Corel-Layer"/>
  <g id="file.svg">
   <path class="fil0" d="M33 41l198 0 0 17 -198 0 0 -17zm0 0z"/>
   <path class="fil0" d="M33 74l99 0 0 17 -99 0 0 -17zm0 0z"/>
   <path class="fil0" d="M148 74l83 0 0 17 -83 0 0 -17zm0 0z"/>
   <path class="fil0" d="M33 107l198 0 0 17 -198 0 0 -17zm0 0z"/>
   <path class="fil0" d="M33 140l198 0 0 17 -198 0 0 -17zm0 0z"/>
   <path class="fil0" d="M33 173l99 0 0 17 -99 0 0 -17zm0 0z"/>
   <path class="fil0" d="M148 173l83 0 0 17 -83 0 0 -17zm0 0z"/>
   <path class="fil0" d="M495 140l-116 0 0 -20 -120 -120 -234 0c-14,0 -25,11 -25,25l0 437c0,18 15,33 33,33l313 0c15,0 28,-10 32,-25l117 0 0 -330zm-231 -112l87 87 -79 0c-4,0 -8,-3 -8,-8l0 -79zm82 450l-313 0c-9,0 -17,-7 -17,-16l0 -437c0,-5 4,-9 9,-9l222 0 0 91c0,14 11,25 25,25l91 0 0 8 -116 0 0 330 114 0c-3,5 -9,8 -15,8zm132 -24l-214 0 0 -297 214 0 0 297zm0 0z"/>
   <path class="fil0" d="M462 173l-182 0 0 66 182 0 0 -66zm-17 50l-148 0 0 -33 148 0 0 33zm0 0z"/>
   <path class="fil0" d="M330 256l-50 0 0 49 50 0 0 -49zm-17 33l-16 0 0 -17 16 0 0 17zm0 0z"/>
   <path class="fil0" d="M346 305l50 0 0 -49 -50 0 0 49zm17 -33l16 0 0 17 -16 0 0 -17zm0 0z"/>
   <path class="fil0" d="M412 305l50 0 0 -49 -50 0 0 49zm17 -33l16 0 0 17 -16 0 0 -17zm0 0z"/>
   <path class="fil0" d="M330 322l-50 0 0 49 50 0 0 -49zm-17 33l-16 0 0 -17 16 0 0 17zm0 0z"/>
   <path class="fil0" d="M346 371l50 0 0 -49 -50 0 0 49zm17 -33l16 0 0 17 -16 0 0 -17zm0 0z"/>
   <path class="fil0" d="M412 437l50 0 0 -115 -50 0 0 115zm17 -99l16 0 0 83 -16 0 0 -83zm0 0z"/>
   <path class="fil0" d="M330 388l-50 0 0 49 50 0 0 -49zm-17 33l-16 0 0 -17 16 0 0 17zm0 0z"/>
   <path class="fil0" d="M346 437l50 0 0 -49 -50 0 0 49zm17 -33l16 0 0 17 -16 0 0 -17zm0 0z"/>
   <path class="fil0" d="M157 297l16 0c0,-16 -14,-29 -33,-32l0 -9 -16 0 0 9c-19,3 -33,16 -33,32 0,16 14,29 33,32l0 33c-10,-3 -17,-9 -17,-16l-16 0c0,16 14,30 33,33l0 9 16 0 0 -9c19,-3 33,-17 33,-33 0,-16 -14,-29 -33,-32l0 -33c10,3 17,9 17,16l0 0zm-50 0c0,-7 7,-13 17,-16l0 31c-10,-2 -17,-8 -17,-15l0 0zm50 49c0,7 -7,13 -17,16l0 -31c10,2 17,8 17,15l0 0zm0 0z"/>
   <path class="fil0" d="M132 231c-50,0 -91,41 -91,91 0,50 41,90 91,90 50,0 91,-40 91,-90 0,-50 -41,-91 -91,-91zm0 165c-41,0 -74,-33 -74,-74 0,-41 33,-75 74,-75 41,0 74,34 74,75 0,41 -33,74 -74,74zm0 0z"/>
  </g>
 </g>
</svg>
