<?xml version="1.0" encoding="UTF-8"?>
<!DOCTYPE svg PUBLIC "-//W3C//DTD SVG 1.1//EN" "http://www.w3.org/Graphics/SVG/1.1/DTD/svg11.dtd">
<!-- Creator: CorelDRAW Home & Student X8 -->
<svg xmlns="http://www.w3.org/2000/svg" xml:space="preserve" width="27.9452mm" height="27.9453mm" version="1.1" style="shape-rendering:geometricPrecision; text-rendering:geometricPrecision; image-rendering:optimizeQuality; fill-rule:evenodd; clip-rule:evenodd"
viewBox="0 0 631 631"
 xmlns:xlink="http://www.w3.org/1999/xlink">
 <defs>
  <style type="text/css">
   <![CDATA[
    .fil0 {fill:white}
   ]]>
  </style>
 </defs>
 <g id="Camada_x0020_1">
  <metadata id="CorelCorpID_0Corel-Layer"/>
  <g id="file.svg">
   <path class="fil0" d="M42 53l252 0 0 21 -252 0 0 -21zm0 0z"/>
   <path class="fil0" d="M42 95l126 0 0 21 -126 0 0 -21zm0 0z"/>
   <path class="fil0" d="M189 95l105 0 0 21 -105 0 0 -21zm0 0z"/>
   <path class="fil0" d="M42 137l252 0 0 21 -252 0 0 -21zm0 0z"/>
   <path class="fil0" d="M42 179l252 0 0 21 -252 0 0 -21zm0 0z"/>
   <path class="fil0" d="M42 221l126 0 0 21 -126 0 0 -21zm0 0z"/>
   <path class="fil0" d="M189 221l105 0 0 21 -105 0 0 -21zm0 0z"/>
   <path class="fil0" d="M631 179l-147 0 0 -26 -154 -153 -298 0c-18,0 -32,14 -32,32l0 557c0,23 19,42 42,42l400 0c19,0 36,-13 40,-32l149 0 0 -420zm-294 -143l111 111 -101 0c-6,0 -10,-4 -10,-10l0 -101zm105 574l-400 0c-12,0 -21,-9 -21,-21l0 -557c0,-6 5,-11 11,-11l284 0 0 116c0,17 14,31 31,31l116 0 0 11 -147 0 0 420 144 0c-4,7 -11,11 -18,11zm168 -32l-273 0 0 -378 273 0 0 378zm0 0z"/>
   <path class="fil0" d="M589 221l-231 0 0 84 231 0 0 -84zm-21 63l-189 0 0 -42 189 0 0 42zm0 0z"/>
   <path class="fil0" d="M421 326l-63 0 0 63 63 0 0 -63zm-21 42l-21 0 0 -21 21 0 0 21zm0 0z"/>
   <path class="fil0" d="M442 389l63 0 0 -63 -63 0 0 63zm21 -42l21 0 0 21 -21 0 0 -21zm0 0z"/>
   <path class="fil0" d="M526 389l63 0 0 -63 -63 0 0 63zm21 -42l21 0 0 21 -21 0 0 -21zm0 0z"/>
   <path class="fil0" d="M421 410l-63 0 0 63 63 0 0 -63zm-21 42l-21 0 0 -21 21 0 0 21zm0 0z"/>
   <path class="fil0" d="M442 473l63 0 0 -63 -63 0 0 63zm21 -42l21 0 0 21 -21 0 0 -21zm0 0z"/>
   <path class="fil0" d="M526 557l63 0 0 -147 -63 0 0 147zm21 -126l21 0 0 105 -21 0 0 -105zm0 0z"/>
   <path class="fil0" d="M421 494l-63 0 0 63 63 0 0 -63zm-21 42l-21 0 0 -21 21 0 0 21zm0 0z"/>
   <path class="fil0" d="M442 557l63 0 0 -63 -63 0 0 63zm21 -42l21 0 0 21 -21 0 0 -21zm0 0z"/>
   <path class="fil0" d="M200 379l21 0c0,-21 -18,-38 -42,-42l0 -11 -21 0 0 11c-24,4 -42,21 -42,42 0,20 18,37 42,41l0 41c-12,-3 -21,-10 -21,-19l-21 0c0,20 18,37 42,41l0 11 21 0 0 -11c24,-4 42,-21 42,-41 0,-21 -18,-38 -42,-41l0 -42c12,3 21,11 21,20l0 0zm-63 0c0,-9 9,-17 21,-20l0 39c-12,-3 -21,-10 -21,-19l0 0zm63 63c0,9 -9,16 -21,19l0 -39c12,3 21,11 21,20l0 0zm0 0z"/>
   <path class="fil0" d="M168 294c-64,0 -115,52 -115,116 0,64 51,116 115,116 64,0 116,-52 116,-116 0,-64 -52,-115 -116,-116zm0 211c-52,0 -94,-43 -94,-95 0,-52 42,-94 94,-94 53,0 95,42 95,94 0,52 -42,95 -95,95zm0 0z"/>
  </g>
 </g>
</svg>
