<?xml version="1.0" encoding="UTF-8"?>
<!DOCTYPE svg PUBLIC "-//W3C//DTD SVG 1.1//EN" "http://www.w3.org/Graphics/SVG/1.1/DTD/svg11.dtd">
<!-- Creator: CorelDRAW Home & Student X8 -->
<svg xmlns="http://www.w3.org/2000/svg" xml:space="preserve" width="27.9453mm" height="27.9453mm" version="1.1" style="shape-rendering:geometricPrecision; text-rendering:geometricPrecision; image-rendering:optimizeQuality; fill-rule:evenodd; clip-rule:evenodd"
viewBox="0 0 1990 1990"
 xmlns:xlink="http://www.w3.org/1999/xlink">
 <defs>
  <style type="text/css">
   <![CDATA[
    .fil0 {fill:black}
   ]]>
  </style>
 </defs>
 <g id="Camada_x0020_1">
  <metadata id="CorelCorpID_0Corel-Layer"/>
  <g id="file.svg">
   <path class="fil0" d="M133 166l795 0 0 66 -795 0 0 -66zm0 0z"/>
   <path class="fil0" d="M133 298l398 0 0 67 -398 0 0 -67zm0 0z"/>
   <path class="fil0" d="M597 298l331 0 0 67 -331 0 0 -67zm0 0z"/>
   <path class="fil0" d="M133 431l795 0 0 66 -795 0 0 -66zm0 0z"/>
   <path class="fil0" d="M133 564l795 0 0 66 -795 0 0 -66zm0 0z"/>
   <path class="fil0" d="M133 696l398 0 0 67 -398 0 0 -67zm0 0z"/>
   <path class="fil0" d="M597 696l331 0 0 67 -331 0 0 -67zm0 0z"/>
   <path class="fil0" d="M1990 564l-465 0 0 -80 -483 -484 -943 0c-54,0 -99,45 -99,99l0 1758c0,73 59,133 133,133l1260 0c60,-1 113,-41 128,-100l469 0 0 -1326zm-929 -451l351 351 -318 0c-18,0 -33,-15 -33,-33l0 -318zm332 1810l-1260 0c-37,0 -67,-29 -67,-66l0 -1758c0,-18 15,-33 33,-33l896 0 0 365c0,55 44,100 99,100l365 0 0 33 -464 0 0 1326 455 0c-12,21 -34,33 -57,33zm530 -99l-862 0 0 -1194 862 0 0 1194zm0 0z"/>
   <path class="fil0" d="M1857 696l-730 0 0 266 730 0 0 -266zm-66 199l-597 0 0 -132 597 0 0 132zm0 0z"/>
   <path class="fil0" d="M1326 1028l-199 0 0 199 199 0 0 -199zm-66 133l-66 0 0 -67 66 0 0 67zm0 0z"/>
   <path class="fil0" d="M1393 1227l199 0 0 -199 -199 0 0 199zm66 -133l66 0 0 67 -66 0 0 -67zm0 0z"/>
   <path class="fil0" d="M1658 1227l199 0 0 -199 -199 0 0 199zm66 -133l67 0 0 67 -67 0 0 -67zm0 0z"/>
   <path class="fil0" d="M1326 1293l-199 0 0 199 199 0 0 -199zm-66 133l-66 0 0 -66 66 0 0 66zm0 0z"/>
   <path class="fil0" d="M1393 1492l199 0 0 -199 -199 0 0 199zm66 -132l66 0 0 66 -66 0 0 -66zm0 0z"/>
   <path class="fil0" d="M1658 1758l199 0 0 -465 -199 0 0 465zm66 -398l67 0 0 331 -67 0 0 -331zm0 0z"/>
   <path class="fil0" d="M1326 1559l-199 0 0 199 199 0 0 -199zm-66 132l-66 0 0 -66 66 0 0 66zm0 0z"/>
   <path class="fil0" d="M1393 1758l199 0 0 -199 -199 0 0 199zm66 -133l66 0 0 66 -66 0 0 -66zm0 0z"/>
   <path class="fil0" d="M630 1194l66 0c0,-64 -57,-118 -132,-130l0 -36 -67 0 0 36c-75,12 -132,66 -132,130 0,64 57,117 132,130l0 131c-38,-10 -66,-34 -66,-62l-66 0c0,64 57,117 132,130l0 36 67 0 0 -36c75,-13 132,-66 132,-130 0,-64 -57,-118 -132,-130l0 -131c38,9 66,34 66,62l0 0zm-199 0c0,-28 28,-53 66,-62l0 124c-38,-9 -66,-34 -66,-62l0 0zm199 199c0,28 -28,52 -66,62l0 -124c38,9 66,34 66,62l0 0zm0 0z"/>
   <path class="fil0" d="M531 928c-202,0 -365,164 -365,365 0,202 163,365 365,365 201,0 364,-163 364,-365 0,-201 -163,-364 -364,-365zm0 664c-165,0 -299,-134 -299,-299 0,-165 134,-298 299,-298 164,0 298,133 298,298 0,165 -134,299 -298,299zm0 0z"/>
  </g>
 </g>
</svg>
